<?xml version="1.0" encoding="UTF-8"?>
<svg xmlns="http://www.w3.org/2000/svg" xmlns:xlink="http://www.w3.org/1999/xlink" width="375pt" height="374.999991pt" viewBox="0 0 375 374.999991" version="1.2">
<defs>
<clipPath id="clip1">
  <path d="M 40.871094 253 L 334.121094 253 L 334.121094 278 L 40.871094 278 Z M 40.871094 253 "/>
</clipPath>
<clipPath id="clip2">
  <path d="M 40.871094 235 L 334.121094 235 L 334.121094 268 L 40.871094 268 Z M 40.871094 235 "/>
</clipPath>
<clipPath id="clip3">
  <path d="M 40.871094 53 L 334.121094 53 L 334.121094 236 L 40.871094 236 Z M 40.871094 53 "/>
</clipPath>
</defs>
<g id="surface1">
<path style=" stroke:none;fill-rule:nonzero;fill:rgb(90.19928%,91.369629%,92.939758%);fill-opacity:1;" d="M 54.835938 67.390625 L 64.144531 67.390625 L 64.144531 221.285156 L 54.835938 221.285156 Z M 54.835938 67.390625 "/>
<path style=" stroke:none;fill-rule:nonzero;fill:rgb(26.269531%,29.019165%,32.939148%);fill-opacity:1;" d="M 64.144531 67.4375 L 320.15625 67.4375 L 320.15625 221.238281 L 64.144531 221.238281 Z M 64.144531 67.4375 "/>
<path style=" stroke:none;fill-rule:nonzero;fill:rgb(79.998779%,81.959534%,85.099792%);fill-opacity:1;" d="M 194.476562 251.542969 C 194.476562 252.003906 194.433594 252.457031 194.34375 252.90625 C 194.253906 253.359375 194.121094 253.796875 193.945312 254.21875 C 193.769531 254.644531 193.554688 255.046875 193.300781 255.429688 C 193.046875 255.808594 192.757812 256.164062 192.433594 256.488281 C 192.109375 256.8125 191.753906 257.101562 191.375 257.359375 C 190.992188 257.613281 190.589844 257.828125 190.167969 258.003906 C 189.742188 258.179688 189.308594 258.3125 188.855469 258.402344 C 188.40625 258.492188 187.953125 258.535156 187.496094 258.535156 C 187.035156 258.535156 186.582031 258.492188 186.132812 258.402344 C 185.683594 258.3125 185.246094 258.179688 184.824219 258.003906 C 184.398438 257.828125 183.996094 257.613281 183.617188 257.359375 C 183.234375 257.101562 182.882812 256.8125 182.558594 256.488281 C 182.234375 256.164062 181.945312 255.808594 181.6875 255.429688 C 181.433594 255.046875 181.21875 254.644531 181.042969 254.21875 C 180.867188 253.796875 180.734375 253.359375 180.648438 252.90625 C 180.558594 252.457031 180.511719 252.003906 180.511719 251.542969 C 180.511719 251.085938 180.558594 250.628906 180.648438 250.179688 C 180.734375 249.730469 180.867188 249.292969 181.042969 248.867188 C 181.21875 248.441406 181.433594 248.039062 181.6875 247.65625 C 181.945312 247.277344 182.234375 246.921875 182.558594 246.597656 C 182.882812 246.273438 183.234375 245.984375 183.617188 245.730469 C 183.996094 245.472656 184.398438 245.257812 184.824219 245.082031 C 185.246094 244.90625 185.683594 244.773438 186.132812 244.683594 C 186.582031 244.59375 187.035156 244.550781 187.496094 244.550781 C 187.953125 244.550781 188.40625 244.59375 188.855469 244.683594 C 189.308594 244.773438 189.742188 244.90625 190.167969 245.082031 C 190.589844 245.257812 190.992188 245.472656 191.375 245.730469 C 191.753906 245.984375 192.109375 246.273438 192.433594 246.597656 C 192.757812 246.921875 193.046875 247.277344 193.300781 247.65625 C 193.554688 248.039062 193.769531 248.441406 193.945312 248.867188 C 194.121094 249.292969 194.253906 249.730469 194.34375 250.179688 C 194.433594 250.628906 194.476562 251.085938 194.476562 251.542969 Z M 194.476562 251.542969 "/>
<g clip-path="url(#clip1)" clip-rule="nonzero">
<path style=" stroke:none;fill-rule:nonzero;fill:rgb(79.998779%,81.959534%,85.099792%);fill-opacity:1;" d="M 334.121094 253.96875 L 334.121094 263.199219 C 334.121094 271.074219 328.015625 277.183594 320.15625 277.183594 C 316.851562 277.183594 270.675781 277.183594 217.703125 277.183594 C 197.875 277.183594 177.109375 277.183594 157.285156 277.183594 C 104.3125 277.183594 58.140625 277.183594 54.835938 277.183594 C 46.972656 277.183594 40.871094 271.074219 40.871094 263.199219 L 40.871094 253.96875 C 40.871094 261.660156 47.152344 267.953125 54.835938 267.953125 L 320.15625 267.953125 C 327.835938 267.953125 334.121094 261.660156 334.121094 253.96875 Z M 334.121094 253.96875 "/>
</g>
<path style=" stroke:none;fill-rule:nonzero;fill:rgb(79.998779%,81.959534%,85.099792%);fill-opacity:1;" d="M 217.703125 277.183594 L 227.015625 319.144531 L 147.976562 319.144531 L 157.285156 277.183594 C 177.113281 277.183594 197.875 277.183594 217.703125 277.183594 Z M 217.703125 277.183594 "/>
<g clip-path="url(#clip2)" clip-rule="nonzero">
<path style=" stroke:none;fill-rule:nonzero;fill:rgb(90.19928%,91.369629%,92.939758%);fill-opacity:1;" d="M 187.496094 235.226562 L 40.871094 235.226562 L 40.871094 253.96875 C 40.871094 261.660156 47.152344 267.953125 54.835938 267.953125 L 320.15625 267.953125 C 327.835938 267.953125 334.121094 261.660156 334.121094 253.96875 L 334.121094 235.226562 Z M 187.496094 258.535156 C 183.632812 258.535156 180.511719 255.414062 180.511719 251.542969 C 180.511719 247.671875 183.632812 244.550781 187.496094 244.550781 C 191.359375 244.550781 194.476562 247.671875 194.476562 251.542969 C 194.476562 255.414062 191.359375 258.535156 187.496094 258.535156 Z M 187.496094 258.535156 "/>
</g>
<g clip-path="url(#clip3)" clip-rule="nonzero">
<path style=" stroke:none;fill-rule:nonzero;fill:rgb(39.608765%,42.749023%,47.059631%);fill-opacity:1;" d="M 334.121094 67.484375 L 334.121094 235.226562 L 40.871094 235.226562 L 40.871094 67.484375 C 40.871094 59.796875 47.152344 53.5 54.835938 53.5 L 320.15625 53.5 C 327.835938 53.5 334.121094 59.792969 334.121094 67.484375 Z M 320.15625 221.238281 L 320.15625 67.390625 L 54.835938 67.390625 L 54.835938 221.238281 Z M 320.15625 221.238281 "/>
</g>
<path style=" stroke:none;fill-rule:nonzero;fill:rgb(66.668701%,69.799805%,74.119568%);fill-opacity:1;" d="M 218.742188 281.847656 L 217.703125 277.183594 C 197.875 277.183594 177.109375 277.183594 157.285156 277.183594 L 156.246094 281.847656 Z M 218.742188 281.847656 "/>
<path style=" stroke:none;fill-rule:nonzero;fill:rgb(90.19928%,91.369629%,92.939758%);fill-opacity:1;" d="M 234.042969 321.445312 L 140.945312 321.445312 C 139.664062 321.445312 138.621094 320.402344 138.621094 319.113281 C 138.621094 317.828125 139.664062 316.785156 140.945312 316.785156 L 234.042969 316.785156 C 235.328125 316.785156 236.371094 317.828125 236.371094 319.113281 C 236.371094 320.402344 235.328125 321.445312 234.042969 321.445312 Z M 234.042969 321.445312 "/>
<path style=" stroke:none;fill-rule:nonzero;fill:rgb(100%,80.778503%,32.939148%);fill-opacity:1;" d="M 96.726562 83.757812 L 78.109375 83.757812 C 76.824219 83.757812 75.78125 82.710938 75.78125 81.425781 C 75.78125 80.136719 76.824219 79.09375 78.109375 79.09375 L 96.726562 79.09375 C 98.011719 79.09375 99.054688 80.136719 99.054688 81.425781 C 99.054688 82.710938 98.011719 83.757812 96.726562 83.757812 Z M 96.726562 83.757812 "/>
<path style=" stroke:none;fill-rule:nonzero;fill:rgb(67.449951%,57.249451%,92.549133%);fill-opacity:1;" d="M 180.511719 97.742188 L 115.347656 97.742188 C 114.0625 97.742188 113.019531 96.699219 113.019531 95.410156 C 113.019531 94.125 114.0625 93.082031 115.347656 93.082031 L 180.511719 93.082031 C 181.796875 93.082031 182.839844 94.125 182.839844 95.410156 C 182.839844 96.699219 181.796875 97.742188 180.511719 97.742188 Z M 180.511719 97.742188 "/>
<path style=" stroke:none;fill-rule:nonzero;fill:rgb(67.449951%,57.249451%,92.549133%);fill-opacity:1;" d="M 106.035156 97.742188 L 82.761719 97.742188 C 81.476562 97.742188 80.433594 96.699219 80.433594 95.410156 C 80.433594 94.125 81.476562 93.082031 82.761719 93.082031 L 106.035156 93.082031 C 107.320312 93.082031 108.363281 94.125 108.363281 95.410156 C 108.363281 96.699219 107.320312 97.742188 106.035156 97.742188 Z M 106.035156 97.742188 "/>
<path style=" stroke:none;fill-rule:nonzero;fill:rgb(36.468506%,61.178589%,92.549133%);fill-opacity:1;" d="M 236.371094 111.726562 L 175.859375 111.726562 C 174.574219 111.726562 173.53125 110.683594 173.53125 109.398438 C 173.53125 108.109375 174.574219 107.066406 175.859375 107.066406 L 236.371094 107.066406 C 237.65625 107.066406 238.695312 108.109375 238.695312 109.398438 C 238.695312 110.683594 237.65625 111.726562 236.371094 111.726562 Z M 236.371094 111.726562 "/>
<path style=" stroke:none;fill-rule:nonzero;fill:rgb(36.468506%,61.178589%,92.549133%);fill-opacity:1;" d="M 264.296875 111.726562 L 245.679688 111.726562 C 244.394531 111.726562 243.351562 110.683594 243.351562 109.398438 C 243.351562 108.109375 244.394531 107.066406 245.679688 107.066406 L 264.296875 107.066406 C 265.582031 107.066406 266.625 108.109375 266.625 109.398438 C 266.625 110.683594 265.582031 111.726562 264.296875 111.726562 Z M 264.296875 111.726562 "/>
<path style=" stroke:none;fill-rule:nonzero;fill:rgb(36.468506%,61.178589%,92.549133%);fill-opacity:1;" d="M 166.546875 111.726562 L 87.417969 111.726562 C 86.132812 111.726562 85.089844 110.683594 85.089844 109.398438 C 85.089844 108.109375 86.132812 107.066406 87.417969 107.066406 L 166.546875 107.066406 C 167.832031 107.066406 168.875 108.109375 168.875 109.398438 C 168.875 110.683594 167.832031 111.726562 166.546875 111.726562 Z M 166.546875 111.726562 "/>
<path style=" stroke:none;fill-rule:nonzero;fill:rgb(92.939758%,33.329773%,39.608765%);fill-opacity:1;" d="M 110.699219 139.699219 L 96.734375 139.699219 C 95.453125 139.699219 94.410156 138.65625 94.410156 137.371094 C 94.410156 136.082031 95.453125 135.039062 96.734375 135.039062 L 110.699219 135.039062 C 111.984375 135.039062 113.027344 136.082031 113.027344 137.371094 C 113.027344 138.65625 111.984375 139.699219 110.699219 139.699219 Z M 110.699219 139.699219 "/>
<path style=" stroke:none;fill-rule:nonzero;fill:rgb(92.939758%,33.329773%,39.608765%);fill-opacity:1;" d="M 189.105469 139.699219 L 120.011719 139.699219 C 118.726562 139.699219 117.683594 138.65625 117.683594 137.371094 C 117.683594 136.082031 118.726562 135.039062 120.011719 135.039062 L 189.105469 135.039062 C 190.390625 135.039062 191.433594 136.082031 191.433594 137.371094 C 191.433594 138.65625 190.390625 139.699219 189.105469 139.699219 Z M 189.105469 139.699219 "/>
<path style=" stroke:none;fill-rule:nonzero;fill:rgb(62.748718%,83.139038%,40.779114%);fill-opacity:1;" d="M 199.132812 125.714844 L 92.070312 125.714844 C 90.789062 125.714844 89.746094 124.671875 89.746094 123.382812 C 89.746094 122.097656 90.789062 121.050781 92.070312 121.050781 L 199.132812 121.050781 C 200.417969 121.050781 201.460938 122.097656 201.460938 123.382812 C 201.460938 124.671875 200.417969 125.714844 199.132812 125.714844 Z M 199.132812 125.714844 "/>
<path style=" stroke:none;fill-rule:nonzero;fill:rgb(30.979919%,75.689697%,91.369629%);fill-opacity:1;" d="M 203.796875 153.6875 L 161.902344 153.6875 C 160.617188 153.6875 159.574219 152.644531 159.574219 151.355469 C 159.574219 150.070312 160.617188 149.023438 161.902344 149.023438 L 203.796875 149.023438 C 205.082031 149.023438 206.125 150.070312 206.125 151.355469 C 206.125 152.644531 205.082031 153.6875 203.796875 153.6875 Z M 203.796875 153.6875 "/>
<path style=" stroke:none;fill-rule:nonzero;fill:rgb(62.748718%,83.139038%,40.779114%);fill-opacity:1;" d="M 171.210938 167.671875 L 92.082031 167.671875 C 90.796875 167.671875 89.753906 166.628906 89.753906 165.34375 C 89.753906 164.054688 90.796875 163.011719 92.082031 163.011719 L 171.210938 163.011719 C 172.496094 163.011719 173.539062 164.054688 173.539062 165.34375 C 173.539062 166.628906 172.496094 167.671875 171.210938 167.671875 Z M 171.210938 167.671875 "/>
<path style=" stroke:none;fill-rule:nonzero;fill:rgb(67.449951%,57.249451%,92.549133%);fill-opacity:1;" d="M 120 195.644531 L 82.761719 195.644531 C 81.476562 195.644531 80.433594 194.601562 80.433594 193.3125 C 80.433594 192.027344 81.476562 190.984375 82.761719 190.984375 L 120 190.984375 C 121.285156 190.984375 122.328125 192.027344 122.328125 193.3125 C 122.328125 194.601562 121.285156 195.644531 120 195.644531 Z M 120 195.644531 "/>
<path style=" stroke:none;fill-rule:nonzero;fill:rgb(36.468506%,61.178589%,92.549133%);fill-opacity:1;" d="M 213.097656 181.660156 L 147.929688 181.660156 C 146.644531 181.660156 145.601562 180.613281 145.601562 179.328125 C 145.601562 178.042969 146.644531 176.996094 147.929688 176.996094 L 213.097656 176.996094 C 214.378906 176.996094 215.421875 178.042969 215.421875 179.328125 C 215.421875 180.613281 214.378906 181.660156 213.097656 181.660156 Z M 213.097656 181.660156 "/>
<path style=" stroke:none;fill-rule:nonzero;fill:rgb(36.468506%,61.178589%,92.549133%);fill-opacity:1;" d="M 227.058594 181.660156 L 222.40625 181.660156 C 221.121094 181.660156 220.078125 180.613281 220.078125 179.328125 C 220.078125 178.042969 221.121094 176.996094 222.40625 176.996094 L 227.058594 176.996094 C 228.34375 176.996094 229.386719 178.042969 229.386719 179.328125 C 229.386719 180.613281 228.34375 181.660156 227.058594 181.660156 Z M 227.058594 181.660156 "/>
<path style=" stroke:none;fill-rule:nonzero;fill:rgb(36.468506%,61.178589%,92.549133%);fill-opacity:1;" d="M 138.621094 181.660156 L 87.417969 181.660156 C 86.132812 181.660156 85.089844 180.613281 85.089844 179.328125 C 85.089844 178.042969 86.132812 176.996094 87.417969 176.996094 L 138.621094 176.996094 C 139.90625 176.996094 140.945312 178.042969 140.945312 179.328125 C 140.945312 180.613281 139.90625 181.660156 138.621094 181.660156 Z M 138.621094 181.660156 "/>
<path style=" stroke:none;fill-rule:nonzero;fill:rgb(100%,80.778503%,32.939148%);fill-opacity:1;" d="M 96.726562 209.632812 L 78.109375 209.632812 C 76.824219 209.632812 75.78125 208.585938 75.78125 207.300781 C 75.78125 206.011719 76.824219 204.96875 78.109375 204.96875 L 96.726562 204.96875 C 98.011719 204.96875 99.054688 206.011719 99.054688 207.300781 C 99.054688 208.585938 98.011719 209.632812 96.726562 209.632812 Z M 96.726562 209.632812 "/>
<path style=" stroke:none;fill-rule:nonzero;fill:rgb(62.748718%,83.139038%,40.779114%);fill-opacity:1;" d="M 208.449219 167.671875 L 180.523438 167.671875 C 179.238281 167.671875 178.195312 166.628906 178.195312 165.34375 C 178.195312 164.054688 179.238281 163.011719 180.523438 163.011719 L 208.449219 163.011719 C 209.734375 163.011719 210.777344 164.054688 210.777344 165.34375 C 210.777344 166.628906 209.734375 167.671875 208.449219 167.671875 Z M 208.449219 167.671875 "/>
<path style=" stroke:none;fill-rule:nonzero;fill:rgb(30.979919%,75.689697%,91.369629%);fill-opacity:1;" d="M 245.6875 153.6875 L 213.105469 153.6875 C 211.820312 153.6875 210.777344 152.644531 210.777344 151.355469 C 210.777344 150.070312 211.820312 149.023438 213.105469 149.023438 L 245.6875 149.023438 C 246.972656 149.023438 248.015625 150.070312 248.015625 151.355469 C 248.015625 152.644531 246.972656 153.6875 245.6875 153.6875 Z M 245.6875 153.6875 "/>
<path style=" stroke:none;fill-rule:nonzero;fill:rgb(30.979919%,75.689697%,91.369629%);fill-opacity:1;" d="M 152.59375 153.6875 L 96.734375 153.6875 C 95.453125 153.6875 94.410156 152.644531 94.410156 151.355469 C 94.410156 150.070312 95.453125 149.023438 96.734375 149.023438 L 152.59375 149.023438 C 153.878906 149.023438 154.921875 150.070312 154.921875 151.355469 C 154.921875 152.644531 153.878906 153.6875 152.59375 153.6875 Z M 152.59375 153.6875 "/>
<path style=" stroke:none;fill-rule:nonzero;fill:rgb(79.998779%,81.959534%,85.099792%);fill-opacity:1;" d="M 57.160156 151.332031 C 57.160156 150.046875 56.117188 149 54.835938 149 L 54.835938 153.664062 C 56.117188 153.664062 57.160156 152.621094 57.160156 151.332031 Z M 57.160156 151.332031 "/>
<path style=" stroke:none;fill-rule:nonzero;fill:rgb(79.998779%,81.959534%,85.099792%);fill-opacity:1;" d="M 57.160156 165.320312 C 57.160156 164.03125 56.117188 162.988281 54.835938 162.988281 L 54.835938 167.648438 C 56.117188 167.648438 57.160156 166.605469 57.160156 165.320312 Z M 57.160156 165.320312 "/>
<path style=" stroke:none;fill-rule:nonzero;fill:rgb(79.998779%,81.959534%,85.099792%);fill-opacity:1;" d="M 57.160156 179.304688 C 57.160156 178.019531 56.117188 176.972656 54.835938 176.972656 L 54.835938 181.636719 C 56.117188 181.636719 57.160156 180.589844 57.160156 179.304688 Z M 57.160156 179.304688 "/>
<path style=" stroke:none;fill-rule:nonzero;fill:rgb(79.998779%,81.959534%,85.099792%);fill-opacity:1;" d="M 57.160156 193.289062 C 57.160156 192.003906 56.117188 190.960938 54.835938 190.960938 L 54.835938 195.621094 C 56.117188 195.621094 57.160156 194.578125 57.160156 193.289062 Z M 57.160156 193.289062 "/>
<path style=" stroke:none;fill-rule:nonzero;fill:rgb(79.998779%,81.959534%,85.099792%);fill-opacity:1;" d="M 57.160156 207.277344 C 57.160156 205.992188 56.117188 204.945312 54.835938 204.945312 L 54.835938 209.609375 C 56.117188 209.609375 57.160156 208.5625 57.160156 207.277344 Z M 57.160156 207.277344 "/>
<path style=" stroke:none;fill-rule:nonzero;fill:rgb(79.998779%,81.959534%,85.099792%);fill-opacity:1;" d="M 57.160156 137.347656 C 57.160156 136.058594 56.117188 135.015625 54.835938 135.015625 L 54.835938 139.675781 C 56.117188 139.675781 57.160156 138.632812 57.160156 137.347656 Z M 57.160156 137.347656 "/>
<path style=" stroke:none;fill-rule:nonzero;fill:rgb(79.998779%,81.959534%,85.099792%);fill-opacity:1;" d="M 57.160156 123.359375 C 57.160156 122.074219 56.117188 121.027344 54.835938 121.027344 L 54.835938 125.691406 C 56.117188 125.691406 57.160156 124.648438 57.160156 123.359375 Z M 57.160156 123.359375 "/>
<path style=" stroke:none;fill-rule:nonzero;fill:rgb(79.998779%,81.959534%,85.099792%);fill-opacity:1;" d="M 57.160156 109.375 C 57.160156 108.085938 56.117188 107.042969 54.835938 107.042969 L 54.835938 111.707031 C 56.117188 111.707031 57.160156 110.660156 57.160156 109.375 Z M 57.160156 109.375 "/>
<path style=" stroke:none;fill-rule:nonzero;fill:rgb(79.998779%,81.959534%,85.099792%);fill-opacity:1;" d="M 57.160156 95.386719 C 57.160156 94.101562 56.117188 93.058594 54.835938 93.058594 L 54.835938 97.71875 C 56.117188 97.71875 57.160156 96.675781 57.160156 95.386719 Z M 57.160156 95.386719 "/>
<path style=" stroke:none;fill-rule:nonzero;fill:rgb(79.998779%,81.959534%,85.099792%);fill-opacity:1;" d="M 57.160156 81.402344 C 57.160156 80.113281 56.117188 79.070312 54.835938 79.070312 L 54.835938 83.734375 C 56.117188 83.734375 57.160156 82.6875 57.160156 81.402344 Z M 57.160156 81.402344 "/>
</g>
</svg>
