<?xml version="1.0" encoding="UTF-8"?>
<svg xmlns="http://www.w3.org/2000/svg" xmlns:xlink="http://www.w3.org/1999/xlink" width="1296pt" height="1727.999927pt" viewBox="0 0 1296 1727.999927" version="1.2">
<defs>
<clipPath id="clip1">
  <path d="M 665 1269 L 973 1269 L 973 1322.394531 L 665 1322.394531 Z M 665 1269 "/>
</clipPath>
</defs>
<g id="surface1">
<path style=" stroke:none;fill-rule:nonzero;fill:rgb(82.749939%,82.348633%,82.348633%);fill-opacity:1;" d="M 630.394531 1184.277344 C 630.394531 1198.96875 561.550781 1210.878906 476.625 1210.878906 C 391.710938 1210.878906 322.859375 1198.96875 322.859375 1184.277344 C 322.859375 1169.597656 391.710938 1157.691406 476.625 1157.691406 C 561.550781 1157.691406 630.394531 1169.597656 630.394531 1184.277344 "/>
<g clip-path="url(#clip1)" clip-rule="nonzero">
<path style=" stroke:none;fill-rule:nonzero;fill:rgb(82.749939%,82.348633%,82.348633%);fill-opacity:1;" d="M 972.851562 1296.007812 C 972.851562 1310.6875 904.007812 1322.59375 819.074219 1322.59375 C 734.160156 1322.59375 665.304688 1310.6875 665.304688 1296.007812 C 665.304688 1281.316406 734.160156 1269.40625 819.074219 1269.40625 C 904.007812 1269.40625 972.851562 1281.316406 972.851562 1296.007812 "/>
</g>
<path style=" stroke:none;fill-rule:nonzero;fill:rgb(10.5896%,9.408569%,11.369324%);fill-opacity:1;" d="M 774.5625 1098.917969 C 774.5625 1105.183594 769.5 1110.261719 763.226562 1110.261719 L 190.011719 1110.261719 C 183.761719 1110.261719 178.675781 1105.183594 178.675781 1098.917969 L 178.675781 708.816406 C 178.675781 702.558594 183.761719 697.480469 190.011719 697.480469 L 763.226562 697.480469 C 769.5 697.480469 774.5625 702.558594 774.5625 708.816406 L 774.5625 1098.917969 "/>
<path style=" stroke:none;fill-rule:nonzero;fill:rgb(23.139954%,74.508667%,77.249146%);fill-opacity:1;" d="M 750.355469 1080.617188 C 750.355469 1082.667969 748.691406 1084.332031 746.640625 1084.332031 L 206.597656 1084.332031 C 204.558594 1084.332031 202.894531 1082.667969 202.894531 1080.617188 L 202.894531 727.105469 C 202.894531 725.0625 204.558594 723.398438 206.597656 723.398438 L 746.640625 723.398438 C 748.691406 723.398438 750.355469 725.0625 750.355469 727.105469 L 750.355469 1080.617188 "/>
<path style=" stroke:none;fill-rule:nonzero;fill:rgb(8.239746%,8.239746%,11.759949%);fill-opacity:1;" d="M 229.980469 1084.332031 L 723.269531 1084.332031 L 723.269531 750.972656 L 229.980469 750.972656 Z M 229.980469 1084.332031 "/>
<path style=" stroke:none;fill-rule:nonzero;fill:rgb(100%,100%,100%);fill-opacity:1;" d="M 259.691406 1084.332031 L 262.179688 1084.332031 L 262.179688 750.972656 L 259.691406 750.972656 Z M 259.691406 1084.332031 "/>
<path style=" stroke:none;fill-rule:nonzero;fill:rgb(19.999695%,21.179199%,31.369019%);fill-opacity:1;" d="M 229.980469 750.835938 L 723.269531 750.835938 L 723.269531 723.339844 L 229.980469 723.339844 Z M 229.980469 750.835938 "/>
<path style=" stroke:none;fill-rule:nonzero;fill:rgb(92.939758%,22.349548%,27.839661%);fill-opacity:1;" d="M 664.566406 737.089844 C 664.566406 742.246094 660.394531 746.429688 655.242188 746.429688 C 650.089844 746.429688 645.910156 742.246094 645.910156 737.089844 C 645.910156 731.933594 650.089844 727.75 655.242188 727.75 C 660.394531 727.75 664.566406 731.933594 664.566406 737.089844 "/>
<path style=" stroke:none;fill-rule:nonzero;fill:rgb(50.19989%,79.998779%,15.689087%);fill-opacity:1;" d="M 689.144531 737.089844 C 689.144531 742.246094 684.964844 746.429688 679.8125 746.429688 C 674.65625 746.429688 670.488281 742.246094 670.488281 737.089844 C 670.488281 731.933594 674.65625 727.75 679.8125 727.75 C 684.964844 727.75 689.144531 731.933594 689.144531 737.089844 "/>
<path style=" stroke:none;fill-rule:nonzero;fill:rgb(92.158508%,71.759033%,18.03894%);fill-opacity:1;" d="M 713.5 737.089844 C 713.5 742.246094 709.308594 746.429688 704.164062 746.429688 C 699.011719 746.429688 694.832031 742.246094 694.832031 737.089844 C 694.832031 731.933594 699.011719 727.75 704.164062 727.75 C 709.308594 727.75 713.5 731.933594 713.5 737.089844 "/>
<path style=" stroke:none;fill-rule:nonzero;fill:rgb(100%,100%,100%);fill-opacity:1;" d="M 237.261719 763.726562 L 253.644531 763.726562 L 253.644531 758.714844 L 237.261719 758.714844 Z M 237.261719 763.726562 "/>
<path style=" stroke:none;fill-rule:nonzero;fill:rgb(100%,100%,100%);fill-opacity:1;" d="M 237.261719 780.121094 L 253.644531 780.121094 L 253.644531 775.109375 L 237.261719 775.109375 Z M 237.261719 780.121094 "/>
<path style=" stroke:none;fill-rule:nonzero;fill:rgb(100%,100%,100%);fill-opacity:1;" d="M 237.261719 796.511719 L 253.644531 796.511719 L 253.644531 791.503906 L 237.261719 791.503906 Z M 237.261719 796.511719 "/>
<path style=" stroke:none;fill-rule:nonzero;fill:rgb(100%,100%,100%);fill-opacity:1;" d="M 237.261719 812.90625 L 253.644531 812.90625 L 253.644531 807.90625 L 237.261719 807.90625 Z M 237.261719 812.90625 "/>
<path style=" stroke:none;fill-rule:nonzero;fill:rgb(100%,100%,100%);fill-opacity:1;" d="M 237.261719 829.300781 L 253.644531 829.300781 L 253.644531 824.296875 L 237.261719 824.296875 Z M 237.261719 829.300781 "/>
<path style=" stroke:none;fill-rule:nonzero;fill:rgb(100%,100%,100%);fill-opacity:1;" d="M 237.261719 845.691406 L 253.644531 845.691406 L 253.644531 840.683594 L 237.261719 840.683594 Z M 237.261719 845.691406 "/>
<path style=" stroke:none;fill-rule:nonzero;fill:rgb(100%,100%,100%);fill-opacity:1;" d="M 237.261719 862.085938 L 253.644531 862.085938 L 253.644531 857.074219 L 237.261719 857.074219 Z M 237.261719 862.085938 "/>
<path style=" stroke:none;fill-rule:nonzero;fill:rgb(100%,100%,100%);fill-opacity:1;" d="M 237.261719 878.480469 L 253.644531 878.480469 L 253.644531 873.46875 L 237.261719 873.46875 Z M 237.261719 878.480469 "/>
<path style=" stroke:none;fill-rule:nonzero;fill:rgb(100%,100%,100%);fill-opacity:1;" d="M 237.261719 894.871094 L 253.644531 894.871094 L 253.644531 889.863281 L 237.261719 889.863281 Z M 237.261719 894.871094 "/>
<path style=" stroke:none;fill-rule:nonzero;fill:rgb(100%,100%,100%);fill-opacity:1;" d="M 237.261719 911.265625 L 253.644531 911.265625 L 253.644531 906.265625 L 237.261719 906.265625 Z M 237.261719 911.265625 "/>
<path style=" stroke:none;fill-rule:nonzero;fill:rgb(100%,100%,100%);fill-opacity:1;" d="M 237.261719 927.667969 L 253.644531 927.667969 L 253.644531 922.65625 L 237.261719 922.65625 Z M 237.261719 927.667969 "/>
<path style=" stroke:none;fill-rule:nonzero;fill:rgb(100%,100%,100%);fill-opacity:1;" d="M 237.261719 944.0625 L 253.644531 944.0625 L 253.644531 939.050781 L 237.261719 939.050781 Z M 237.261719 944.0625 "/>
<path style=" stroke:none;fill-rule:nonzero;fill:rgb(100%,100%,100%);fill-opacity:1;" d="M 237.261719 960.464844 L 253.644531 960.464844 L 253.644531 955.453125 L 237.261719 955.453125 Z M 237.261719 960.464844 "/>
<path style=" stroke:none;fill-rule:nonzero;fill:rgb(100%,100%,100%);fill-opacity:1;" d="M 237.261719 976.859375 L 253.644531 976.859375 L 253.644531 971.847656 L 237.261719 971.847656 Z M 237.261719 976.859375 "/>
<path style=" stroke:none;fill-rule:nonzero;fill:rgb(100%,100%,100%);fill-opacity:1;" d="M 237.261719 993.25 L 253.644531 993.25 L 253.644531 988.242188 L 237.261719 988.242188 Z M 237.261719 993.25 "/>
<path style=" stroke:none;fill-rule:nonzero;fill:rgb(100%,100%,100%);fill-opacity:1;" d="M 237.261719 1009.652344 L 253.644531 1009.652344 L 253.644531 1004.644531 L 237.261719 1004.644531 Z M 237.261719 1009.652344 "/>
<path style=" stroke:none;fill-rule:nonzero;fill:rgb(100%,100%,100%);fill-opacity:1;" d="M 237.261719 1026.039062 L 253.644531 1026.039062 L 253.644531 1021.035156 L 237.261719 1021.035156 Z M 237.261719 1026.039062 "/>
<path style=" stroke:none;fill-rule:nonzero;fill:rgb(100%,100%,100%);fill-opacity:1;" d="M 237.261719 1042.429688 L 253.644531 1042.429688 L 253.644531 1037.421875 L 237.261719 1037.421875 Z M 237.261719 1042.429688 "/>
<path style=" stroke:none;fill-rule:nonzero;fill:rgb(100%,100%,100%);fill-opacity:1;" d="M 237.261719 1058.832031 L 253.644531 1058.832031 L 253.644531 1053.8125 L 237.261719 1053.8125 Z M 237.261719 1058.832031 "/>
<path style=" stroke:none;fill-rule:nonzero;fill:rgb(100%,100%,100%);fill-opacity:1;" d="M 237.261719 1075.226562 L 253.644531 1075.226562 L 253.644531 1070.214844 L 237.261719 1070.214844 Z M 237.261719 1075.226562 "/>
<path style=" stroke:none;fill-rule:nonzero;fill:rgb(92.939758%,22.349548%,27.839661%);fill-opacity:1;" d="M 270.929688 763.726562 L 334.652344 763.726562 L 334.652344 758.714844 L 270.929688 758.714844 Z M 270.929688 763.726562 "/>
<path style=" stroke:none;fill-rule:nonzero;fill:rgb(92.939758%,22.349548%,27.839661%);fill-opacity:1;" d="M 337.179688 946.570312 L 400.878906 946.570312 L 400.878906 941.5625 L 337.179688 941.5625 Z M 337.179688 946.570312 "/>
<path style=" stroke:none;fill-rule:nonzero;fill:rgb(92.939758%,22.349548%,27.839661%);fill-opacity:1;" d="M 337.179688 927.667969 L 361.300781 927.667969 L 361.300781 922.65625 L 337.179688 922.65625 Z M 337.179688 927.667969 "/>
<path style=" stroke:none;fill-rule:nonzero;fill:rgb(23.139954%,74.508667%,77.249146%);fill-opacity:1;" d="M 270.929688 780.121094 L 295.0625 780.121094 L 295.0625 775.109375 L 270.929688 775.109375 Z M 270.929688 780.121094 "/>
<path style=" stroke:none;fill-rule:nonzero;fill:rgb(23.139954%,74.508667%,77.249146%);fill-opacity:1;" d="M 270.929688 796.511719 L 306.671875 796.511719 L 306.671875 791.503906 L 270.929688 791.503906 Z M 270.929688 796.511719 "/>
<path style=" stroke:none;fill-rule:nonzero;fill:rgb(100%,100%,100%);fill-opacity:1;" d="M 312.804688 812.90625 L 384.476562 812.90625 L 384.476562 807.90625 L 312.804688 807.90625 Z M 312.804688 812.90625 "/>
<path style=" stroke:none;fill-rule:nonzero;fill:rgb(100%,100%,100%);fill-opacity:1;" d="M 420.664062 812.90625 L 524.410156 812.90625 L 524.410156 807.90625 L 420.664062 807.90625 Z M 420.664062 812.90625 "/>
<path style=" stroke:none;fill-rule:nonzero;fill:rgb(100%,100%,100%);fill-opacity:1;" d="M 409.726562 812.90625 L 391.304688 812.90625 L 391.304688 807.90625 L 409.726562 807.90625 L 409.726562 812.90625 "/>
<path style=" stroke:none;fill-rule:nonzero;fill:rgb(100%,100%,100%);fill-opacity:1;" d="M 328.507812 843.191406 L 400.179688 843.191406 L 400.179688 838.179688 L 328.507812 838.179688 Z M 328.507812 843.191406 "/>
<path style=" stroke:none;fill-rule:nonzero;fill:rgb(100%,100%,100%);fill-opacity:1;" d="M 436.355469 843.191406 L 540.113281 843.191406 L 540.113281 838.179688 L 436.355469 838.179688 Z M 436.355469 843.191406 "/>
<path style=" stroke:none;fill-rule:nonzero;fill:rgb(100%,100%,100%);fill-opacity:1;" d="M 425.429688 843.191406 L 407.003906 843.191406 L 407.003906 838.179688 L 425.429688 838.179688 L 425.429688 843.191406 "/>
<path style=" stroke:none;fill-rule:nonzero;fill:rgb(100%,100%,100%);fill-opacity:1;" d="M 328.507812 826.796875 L 374.238281 826.796875 L 374.238281 821.789062 L 328.507812 821.789062 Z M 328.507812 826.796875 "/>
<path style=" stroke:none;fill-rule:nonzero;fill:rgb(100%,100%,100%);fill-opacity:1;" d="M 382.4375 821.789062 L 382.4375 826.796875 L 400.179688 826.796875 L 400.179688 821.789062 L 382.4375 821.789062 "/>
<path style=" stroke:none;fill-rule:nonzero;fill:rgb(100%,100%,100%);fill-opacity:1;" d="M 472.53125 826.796875 L 436.355469 826.796875 L 436.355469 821.789062 L 472.53125 821.789062 L 472.53125 826.796875 "/>
<path style=" stroke:none;fill-rule:nonzero;fill:rgb(100%,100%,100%);fill-opacity:1;" d="M 425.429688 826.796875 L 407.003906 826.796875 L 407.003906 821.789062 L 425.429688 821.789062 L 425.429688 826.796875 "/>
<path style=" stroke:none;fill-rule:nonzero;fill:rgb(100%,100%,100%);fill-opacity:1;" d="M 386.984375 1002.707031 L 432.71875 1002.707031 L 432.71875 997.695312 L 386.984375 997.695312 Z M 386.984375 1002.707031 "/>
<path style=" stroke:none;fill-rule:nonzero;fill:rgb(100%,100%,100%);fill-opacity:1;" d="M 440.90625 1002.707031 L 458.660156 1002.707031 L 458.660156 997.695312 L 440.90625 997.695312 Z M 440.90625 1002.707031 "/>
<path style=" stroke:none;fill-rule:nonzero;fill:rgb(100%,100%,100%);fill-opacity:1;" d="M 494.835938 1002.707031 L 531.011719 1002.707031 L 531.011719 997.695312 L 494.835938 997.695312 Z M 494.835938 1002.707031 "/>
<path style=" stroke:none;fill-rule:nonzero;fill:rgb(100%,100%,100%);fill-opacity:1;" d="M 465.484375 1002.707031 L 483.917969 1002.707031 L 483.917969 997.695312 L 465.484375 997.695312 Z M 465.484375 1002.707031 "/>
<path style=" stroke:none;fill-rule:nonzero;fill:rgb(0%,67.83905%,93.728638%);fill-opacity:1;" d="M 312.804688 796.511719 L 325.09375 796.511719 L 325.09375 791.503906 L 312.804688 791.503906 Z M 312.804688 796.511719 "/>
<path style=" stroke:none;fill-rule:nonzero;fill:rgb(23.139954%,74.508667%,77.249146%);fill-opacity:1;" d="M 337.636719 960.464844 L 361.757812 960.464844 L 361.757812 955.453125 L 337.636719 955.453125 Z M 337.636719 960.464844 "/>
<path style=" stroke:none;fill-rule:nonzero;fill:rgb(23.139954%,74.508667%,77.249146%);fill-opacity:1;" d="M 337.636719 976.859375 L 373.363281 976.859375 L 373.363281 971.847656 L 337.636719 971.847656 Z M 337.636719 976.859375 "/>
<path style=" stroke:none;fill-rule:nonzero;fill:rgb(0%,67.83905%,93.728638%);fill-opacity:1;" d="M 379.5 976.859375 L 391.789062 976.859375 L 391.789062 971.847656 L 379.5 971.847656 Z M 379.5 976.859375 "/>
<path style=" stroke:none;fill-rule:nonzero;fill:rgb(23.139954%,74.508667%,77.249146%);fill-opacity:1;" d="M 337.636719 1048.132812 L 361.757812 1048.132812 L 361.757812 1043.121094 L 337.636719 1043.121094 Z M 337.636719 1048.132812 "/>
<path style=" stroke:none;fill-rule:nonzero;fill:rgb(23.139954%,74.508667%,77.249146%);fill-opacity:1;" d="M 337.636719 1064.515625 L 373.363281 1064.515625 L 373.363281 1059.515625 L 337.636719 1059.515625 Z M 337.636719 1064.515625 "/>
<path style=" stroke:none;fill-rule:nonzero;fill:rgb(0%,67.83905%,93.728638%);fill-opacity:1;" d="M 379.5 1064.515625 L 391.789062 1064.515625 L 391.789062 1059.515625 L 379.5 1059.515625 Z M 379.5 1064.515625 "/>
<path style=" stroke:none;fill-rule:nonzero;fill:rgb(23.139954%,74.508667%,77.249146%);fill-opacity:1;" d="M 270.929688 878.480469 L 306.671875 878.480469 L 306.671875 873.46875 L 270.929688 873.46875 Z M 270.929688 878.480469 "/>
<path style=" stroke:none;fill-rule:nonzero;fill:rgb(0%,67.83905%,93.728638%);fill-opacity:1;" d="M 312.804688 878.480469 L 325.09375 878.480469 L 325.09375 873.46875 L 312.804688 873.46875 Z M 312.804688 878.480469 "/>
<path style=" stroke:none;fill-rule:nonzero;fill:rgb(50.19989%,79.998779%,15.689087%);fill-opacity:1;" d="M 360.132812 763.726562 L 343.742188 763.726562 L 343.742188 758.714844 L 360.132812 758.714844 L 360.132812 763.726562 "/>
<path style=" stroke:none;fill-rule:nonzero;fill:rgb(50.19989%,79.998779%,15.689087%);fill-opacity:1;" d="M 312.804688 899.890625 L 382.4375 899.890625 L 382.4375 894.882812 L 312.804688 894.882812 Z M 312.804688 899.890625 "/>
<path style=" stroke:none;fill-rule:nonzero;fill:rgb(100%,100%,100%);fill-opacity:1;" d="M 328.507812 862.085938 L 433.625 862.085938 L 433.625 857.074219 L 328.507812 857.074219 Z M 328.507812 862.085938 "/>
<path style=" stroke:none;fill-rule:nonzero;fill:rgb(100%,100%,100%);fill-opacity:1;" d="M 439.769531 862.085938 L 520.316406 862.085938 L 520.316406 857.074219 L 439.769531 857.074219 Z M 439.769531 862.085938 "/>
<path style=" stroke:none;fill-rule:nonzero;fill:rgb(100%,100%,100%);fill-opacity:1;" d="M 386.976562 1021.035156 L 447.964844 1021.035156 L 447.964844 1016.027344 L 386.976562 1016.027344 Z M 386.976562 1021.035156 "/>
<path style=" stroke:none;fill-rule:nonzero;fill:rgb(100%,100%,100%);fill-opacity:1;" d="M 454.332031 1021.035156 L 539.878906 1021.035156 L 539.878906 1016.027344 L 454.332031 1016.027344 Z M 454.332031 1021.035156 "/>
<path style=" stroke:none;fill-rule:nonzero;fill:rgb(100%,100%,100%);fill-opacity:1;" d="M 386.976562 1037.421875 L 413.382812 1037.421875 L 413.382812 1032.417969 L 386.976562 1032.417969 Z M 386.976562 1037.421875 "/>
<path style=" stroke:none;fill-rule:nonzero;fill:rgb(100%,100%,100%);fill-opacity:1;" d="M 421.109375 1037.421875 L 447.964844 1037.421875 L 447.964844 1032.417969 L 421.109375 1032.417969 Z M 421.109375 1037.421875 "/>
<path style=" stroke:none;fill-rule:nonzero;fill:rgb(100%,100%,100%);fill-opacity:1;" d="M 524.410156 1037.421875 L 539.878906 1037.421875 L 539.878906 1032.417969 L 524.410156 1032.417969 Z M 524.410156 1037.421875 "/>
<path style=" stroke:none;fill-rule:nonzero;fill:rgb(100%,100%,100%);fill-opacity:1;" d="M 454.332031 1037.421875 L 518.488281 1037.421875 L 518.488281 1032.417969 L 454.332031 1032.417969 Z M 454.332031 1037.421875 "/>
<path style=" stroke:none;fill-rule:nonzero;fill:rgb(20.779419%,18.429565%,21.958923%);fill-opacity:1;" d="M 521.132812 1110.261719 L 190.011719 1110.261719 C 183.761719 1110.261719 178.675781 1105.183594 178.675781 1098.917969 L 178.675781 708.816406 C 178.675781 708.804688 178.675781 708.796875 178.675781 708.777344 C 178.695312 705.664062 179.960938 702.84375 182 700.800781 L 214.871094 723.398438 L 206.597656 723.398438 C 204.558594 723.398438 202.894531 725.0625 202.894531 727.105469 L 202.894531 1080.617188 C 202.894531 1082.667969 204.558594 1084.332031 206.597656 1084.332031 L 521.132812 1084.332031 L 521.132812 1110.261719 "/>
<path style=" stroke:none;fill-rule:nonzero;fill:rgb(38.42926%,79.60968%,80.389404%);fill-opacity:1;" d="M 229.980469 1084.332031 L 206.597656 1084.332031 C 204.558594 1084.332031 202.894531 1082.667969 202.894531 1080.617188 L 202.894531 727.105469 C 202.894531 725.0625 204.558594 723.398438 206.597656 723.398438 L 214.871094 723.398438 L 229.980469 733.789062 L 229.980469 750.835938 L 254.753906 750.835938 L 254.957031 750.972656 L 229.980469 750.972656 L 229.980469 1084.332031 "/>
<path style=" stroke:none;fill-rule:nonzero;fill:rgb(18.429565%,17.649841%,23.139954%);fill-opacity:1;" d="M 521.132812 1084.332031 L 262.179688 1084.332031 L 262.179688 755.933594 L 270.929688 761.964844 L 270.929688 763.726562 L 273.507812 763.726562 L 290.066406 775.109375 L 270.929688 775.109375 L 270.929688 780.121094 L 295.0625 780.121094 L 295.0625 778.554688 L 313.894531 791.503906 L 312.804688 791.503906 L 312.804688 796.511719 L 321.175781 796.511719 L 337.742188 807.90625 L 312.804688 807.90625 L 312.804688 812.90625 L 345.015625 812.90625 L 357.925781 821.789062 L 328.507812 821.789062 L 328.507812 826.796875 L 365.21875 826.796875 L 381.765625 838.179688 L 328.507812 838.179688 L 328.507812 843.191406 L 389.046875 843.191406 L 409.242188 857.074219 L 328.507812 857.074219 L 328.507812 862.085938 L 416.523438 862.085938 L 521.132812 934.03125 L 521.132812 997.695312 L 494.835938 997.695312 L 494.835938 1002.707031 L 521.132812 1002.707031 L 521.132812 1016.027344 L 454.332031 1016.027344 L 454.332031 1021.035156 L 521.132812 1021.035156 L 521.132812 1084.332031 M 379.5 1059.515625 L 379.5 1064.515625 L 391.789062 1064.515625 L 391.789062 1059.515625 L 379.5 1059.515625 M 337.636719 1059.515625 L 337.636719 1064.515625 L 373.363281 1064.515625 L 373.363281 1059.515625 L 337.636719 1059.515625 M 337.636719 1043.121094 L 337.636719 1048.132812 L 361.757812 1048.132812 L 361.757812 1043.121094 L 337.636719 1043.121094 M 454.332031 1032.417969 L 454.332031 1037.421875 L 518.488281 1037.421875 L 518.488281 1032.417969 L 454.332031 1032.417969 M 421.109375 1032.417969 L 421.109375 1037.421875 L 447.964844 1037.421875 L 447.964844 1032.417969 L 421.109375 1032.417969 M 386.976562 1032.417969 L 386.976562 1037.421875 L 413.382812 1037.421875 L 413.382812 1032.417969 L 386.976562 1032.417969 M 386.976562 1016.027344 L 386.976562 1021.035156 L 447.964844 1021.035156 L 447.964844 1016.027344 L 386.976562 1016.027344 M 465.484375 997.695312 L 465.484375 1002.707031 L 483.917969 1002.707031 L 483.917969 997.695312 L 465.484375 997.695312 M 440.90625 997.695312 L 440.90625 1002.707031 L 458.660156 1002.707031 L 458.660156 997.695312 L 440.90625 997.695312 M 386.984375 997.695312 L 386.984375 1002.707031 L 432.710938 1002.707031 L 432.710938 997.695312 L 386.984375 997.695312 M 379.5 971.847656 L 379.5 976.859375 L 391.789062 976.859375 L 391.789062 971.847656 L 379.5 971.847656 M 337.636719 971.847656 L 337.636719 976.859375 L 373.363281 976.859375 L 373.363281 971.847656 L 337.636719 971.847656 M 337.636719 955.453125 L 337.636719 960.464844 L 361.757812 960.464844 L 361.757812 955.453125 L 337.636719 955.453125 M 337.179688 941.5625 L 337.179688 946.570312 L 400.878906 946.570312 L 400.878906 941.5625 L 337.179688 941.5625 M 337.179688 922.65625 L 337.179688 927.667969 L 361.300781 927.667969 L 361.300781 922.65625 L 337.179688 922.65625 M 312.804688 894.871094 L 312.804688 899.890625 L 382.4375 899.890625 L 382.4375 894.871094 L 312.804688 894.871094 M 312.804688 873.46875 L 312.804688 878.480469 L 325.09375 878.480469 L 325.09375 873.46875 L 312.804688 873.46875 M 270.929688 873.46875 L 270.929688 878.480469 L 306.671875 878.480469 L 306.671875 873.46875 L 270.929688 873.46875 M 270.929688 791.503906 L 270.929688 796.511719 L 306.671875 796.511719 L 306.671875 791.503906 L 270.929688 791.503906 M 259.691406 1084.332031 L 229.980469 1084.332031 L 229.980469 750.972656 L 254.957031 750.972656 L 259.691406 754.222656 L 259.691406 1084.332031 M 237.261719 1070.214844 L 237.261719 1075.226562 L 253.644531 1075.226562 L 253.644531 1070.214844 L 237.261719 1070.214844 M 237.261719 1053.8125 L 237.261719 1058.832031 L 253.644531 1058.832031 L 253.644531 1053.8125 L 237.261719 1053.8125 M 237.261719 1037.421875 L 237.261719 1042.429688 L 253.644531 1042.429688 L 253.644531 1037.421875 L 237.261719 1037.421875 M 237.261719 1021.035156 L 237.261719 1026.039062 L 253.644531 1026.039062 L 253.644531 1021.035156 L 237.261719 1021.035156 M 237.261719 1004.644531 L 237.261719 1009.652344 L 253.644531 1009.652344 L 253.644531 1004.644531 L 237.261719 1004.644531 M 237.261719 988.242188 L 237.261719 993.25 L 253.644531 993.25 L 253.644531 988.242188 L 237.261719 988.242188 M 237.261719 971.847656 L 237.261719 976.859375 L 253.644531 976.859375 L 253.644531 971.847656 L 237.261719 971.847656 M 237.261719 955.453125 L 237.261719 960.464844 L 253.644531 960.464844 L 253.644531 955.453125 L 237.261719 955.453125 M 237.261719 939.050781 L 237.261719 944.0625 L 253.644531 944.0625 L 253.644531 939.050781 L 237.261719 939.050781 M 237.261719 922.65625 L 237.261719 927.667969 L 253.644531 927.667969 L 253.644531 922.65625 L 237.261719 922.65625 M 237.261719 906.265625 L 237.261719 911.265625 L 253.644531 911.265625 L 253.644531 906.265625 L 237.261719 906.265625 M 237.261719 889.863281 L 237.261719 894.871094 L 253.644531 894.871094 L 253.644531 889.863281 L 237.261719 889.863281 M 237.261719 873.46875 L 237.261719 878.480469 L 253.644531 878.480469 L 253.644531 873.46875 L 237.261719 873.46875 M 237.261719 857.074219 L 237.261719 862.085938 L 253.644531 862.085938 L 253.644531 857.074219 L 237.261719 857.074219 M 237.261719 840.683594 L 237.261719 845.691406 L 253.644531 845.691406 L 253.644531 840.683594 L 237.261719 840.683594 M 237.261719 824.296875 L 237.261719 829.300781 L 253.644531 829.300781 L 253.644531 824.296875 L 237.261719 824.296875 M 237.261719 807.90625 L 237.261719 812.90625 L 253.644531 812.90625 L 253.644531 807.90625 L 237.261719 807.90625 M 237.261719 791.503906 L 237.261719 796.511719 L 253.644531 796.511719 L 253.644531 791.503906 L 237.261719 791.503906 M 237.261719 775.109375 L 237.261719 780.121094 L 253.644531 780.121094 L 253.644531 775.109375 L 237.261719 775.109375 M 237.261719 758.714844 L 237.261719 763.726562 L 253.644531 763.726562 L 253.644531 758.714844 L 237.261719 758.714844 "/>
<path style=" stroke:none;fill-rule:nonzero;fill:rgb(100%,100%,100%);fill-opacity:1;" d="M 262.179688 1084.332031 L 259.691406 1084.332031 L 259.691406 754.222656 L 262.179688 755.933594 L 262.179688 1084.332031 "/>
<path style=" stroke:none;fill-rule:nonzero;fill:rgb(30.589294%,30.198669%,40.388489%);fill-opacity:1;" d="M 254.753906 750.835938 L 229.980469 750.835938 L 229.980469 733.789062 L 254.753906 750.835938 "/>
<path style=" stroke:none;fill-rule:nonzero;fill:rgb(100%,100%,100%);fill-opacity:1;" d="M 237.261719 763.726562 L 253.644531 763.726562 L 253.644531 758.714844 L 237.261719 758.714844 Z M 237.261719 763.726562 "/>
<path style=" stroke:none;fill-rule:nonzero;fill:rgb(100%,100%,100%);fill-opacity:1;" d="M 237.261719 780.121094 L 253.644531 780.121094 L 253.644531 775.109375 L 237.261719 775.109375 Z M 237.261719 780.121094 "/>
<path style=" stroke:none;fill-rule:nonzero;fill:rgb(100%,100%,100%);fill-opacity:1;" d="M 237.261719 796.511719 L 253.644531 796.511719 L 253.644531 791.503906 L 237.261719 791.503906 Z M 237.261719 796.511719 "/>
<path style=" stroke:none;fill-rule:nonzero;fill:rgb(100%,100%,100%);fill-opacity:1;" d="M 237.261719 812.90625 L 253.644531 812.90625 L 253.644531 807.90625 L 237.261719 807.90625 Z M 237.261719 812.90625 "/>
<path style=" stroke:none;fill-rule:nonzero;fill:rgb(100%,100%,100%);fill-opacity:1;" d="M 237.261719 829.300781 L 253.644531 829.300781 L 253.644531 824.296875 L 237.261719 824.296875 Z M 237.261719 829.300781 "/>
<path style=" stroke:none;fill-rule:nonzero;fill:rgb(100%,100%,100%);fill-opacity:1;" d="M 237.261719 845.691406 L 253.644531 845.691406 L 253.644531 840.683594 L 237.261719 840.683594 Z M 237.261719 845.691406 "/>
<path style=" stroke:none;fill-rule:nonzero;fill:rgb(100%,100%,100%);fill-opacity:1;" d="M 237.261719 862.085938 L 253.644531 862.085938 L 253.644531 857.074219 L 237.261719 857.074219 Z M 237.261719 862.085938 "/>
<path style=" stroke:none;fill-rule:nonzero;fill:rgb(100%,100%,100%);fill-opacity:1;" d="M 237.261719 878.480469 L 253.644531 878.480469 L 253.644531 873.46875 L 237.261719 873.46875 Z M 237.261719 878.480469 "/>
<path style=" stroke:none;fill-rule:nonzero;fill:rgb(100%,100%,100%);fill-opacity:1;" d="M 237.261719 894.871094 L 253.644531 894.871094 L 253.644531 889.863281 L 237.261719 889.863281 Z M 237.261719 894.871094 "/>
<path style=" stroke:none;fill-rule:nonzero;fill:rgb(100%,100%,100%);fill-opacity:1;" d="M 237.261719 911.265625 L 253.644531 911.265625 L 253.644531 906.265625 L 237.261719 906.265625 Z M 237.261719 911.265625 "/>
<path style=" stroke:none;fill-rule:nonzero;fill:rgb(100%,100%,100%);fill-opacity:1;" d="M 237.261719 927.667969 L 253.644531 927.667969 L 253.644531 922.65625 L 237.261719 922.65625 Z M 237.261719 927.667969 "/>
<path style=" stroke:none;fill-rule:nonzero;fill:rgb(100%,100%,100%);fill-opacity:1;" d="M 237.261719 944.0625 L 253.644531 944.0625 L 253.644531 939.050781 L 237.261719 939.050781 Z M 237.261719 944.0625 "/>
<path style=" stroke:none;fill-rule:nonzero;fill:rgb(100%,100%,100%);fill-opacity:1;" d="M 237.261719 960.464844 L 253.644531 960.464844 L 253.644531 955.453125 L 237.261719 955.453125 Z M 237.261719 960.464844 "/>
<path style=" stroke:none;fill-rule:nonzero;fill:rgb(100%,100%,100%);fill-opacity:1;" d="M 237.261719 976.859375 L 253.644531 976.859375 L 253.644531 971.847656 L 237.261719 971.847656 Z M 237.261719 976.859375 "/>
<path style=" stroke:none;fill-rule:nonzero;fill:rgb(100%,100%,100%);fill-opacity:1;" d="M 237.261719 993.25 L 253.644531 993.25 L 253.644531 988.242188 L 237.261719 988.242188 Z M 237.261719 993.25 "/>
<path style=" stroke:none;fill-rule:nonzero;fill:rgb(100%,100%,100%);fill-opacity:1;" d="M 237.261719 1009.652344 L 253.644531 1009.652344 L 253.644531 1004.644531 L 237.261719 1004.644531 Z M 237.261719 1009.652344 "/>
<path style=" stroke:none;fill-rule:nonzero;fill:rgb(100%,100%,100%);fill-opacity:1;" d="M 237.261719 1026.039062 L 253.644531 1026.039062 L 253.644531 1021.035156 L 237.261719 1021.035156 Z M 237.261719 1026.039062 "/>
<path style=" stroke:none;fill-rule:nonzero;fill:rgb(100%,100%,100%);fill-opacity:1;" d="M 237.261719 1042.429688 L 253.644531 1042.429688 L 253.644531 1037.421875 L 237.261719 1037.421875 Z M 237.261719 1042.429688 "/>
<path style=" stroke:none;fill-rule:nonzero;fill:rgb(100%,100%,100%);fill-opacity:1;" d="M 237.261719 1058.832031 L 253.644531 1058.832031 L 253.644531 1053.8125 L 237.261719 1053.8125 Z M 237.261719 1058.832031 "/>
<path style=" stroke:none;fill-rule:nonzero;fill:rgb(100%,100%,100%);fill-opacity:1;" d="M 237.261719 1075.226562 L 253.644531 1075.226562 L 253.644531 1070.214844 L 237.261719 1070.214844 Z M 237.261719 1075.226562 "/>
<path style=" stroke:none;fill-rule:nonzero;fill:rgb(94.119263%,36.468506%,36.859131%);fill-opacity:1;" d="M 273.507812 763.726562 L 270.929688 763.726562 L 270.929688 761.964844 L 273.507812 763.726562 "/>
<path style=" stroke:none;fill-rule:nonzero;fill:rgb(94.119263%,36.468506%,36.859131%);fill-opacity:1;" d="M 337.179688 946.570312 L 400.878906 946.570312 L 400.878906 941.5625 L 337.179688 941.5625 Z M 337.179688 946.570312 "/>
<path style=" stroke:none;fill-rule:nonzero;fill:rgb(94.119263%,36.468506%,36.859131%);fill-opacity:1;" d="M 337.179688 927.667969 L 361.300781 927.667969 L 361.300781 922.65625 L 337.179688 922.65625 Z M 337.179688 927.667969 "/>
<path style=" stroke:none;fill-rule:nonzero;fill:rgb(38.42926%,79.60968%,80.389404%);fill-opacity:1;" d="M 295.0625 780.121094 L 270.929688 780.121094 L 270.929688 775.109375 L 290.066406 775.109375 L 295.0625 778.554688 L 295.0625 780.121094 "/>
<path style=" stroke:none;fill-rule:nonzero;fill:rgb(38.42926%,79.60968%,80.389404%);fill-opacity:1;" d="M 270.929688 796.511719 L 306.671875 796.511719 L 306.671875 791.503906 L 270.929688 791.503906 Z M 270.929688 796.511719 "/>
<path style=" stroke:none;fill-rule:nonzero;fill:rgb(100%,100%,100%);fill-opacity:1;" d="M 345.015625 812.90625 L 312.804688 812.90625 L 312.804688 807.90625 L 337.742188 807.90625 L 345.015625 812.90625 "/>
<path style=" stroke:none;fill-rule:nonzero;fill:rgb(100%,100%,100%);fill-opacity:1;" d="M 389.046875 843.191406 L 328.507812 843.191406 L 328.507812 838.179688 L 381.765625 838.179688 L 389.046875 843.191406 "/>
<path style=" stroke:none;fill-rule:nonzero;fill:rgb(100%,100%,100%);fill-opacity:1;" d="M 365.21875 826.796875 L 328.507812 826.796875 L 328.507812 821.789062 L 357.925781 821.789062 L 365.21875 826.796875 "/>
<path style=" stroke:none;fill-rule:nonzero;fill:rgb(100%,100%,100%);fill-opacity:1;" d="M 386.984375 1002.707031 L 432.71875 1002.707031 L 432.71875 997.695312 L 386.984375 997.695312 Z M 386.984375 1002.707031 "/>
<path style=" stroke:none;fill-rule:nonzero;fill:rgb(100%,100%,100%);fill-opacity:1;" d="M 440.90625 1002.707031 L 458.660156 1002.707031 L 458.660156 997.695312 L 440.90625 997.695312 Z M 440.90625 1002.707031 "/>
<path style=" stroke:none;fill-rule:nonzero;fill:rgb(100%,100%,100%);fill-opacity:1;" d="M 494.835938 1002.707031 L 521.132812 1002.707031 L 521.132812 997.695312 L 494.835938 997.695312 Z M 494.835938 1002.707031 "/>
<path style=" stroke:none;fill-rule:nonzero;fill:rgb(100%,100%,100%);fill-opacity:1;" d="M 465.484375 1002.707031 L 483.917969 1002.707031 L 483.917969 997.695312 L 465.484375 997.695312 Z M 465.484375 1002.707031 "/>
<path style=" stroke:none;fill-rule:nonzero;fill:rgb(19.999695%,74.119568%,94.898987%);fill-opacity:1;" d="M 321.175781 796.511719 L 312.804688 796.511719 L 312.804688 791.503906 L 313.894531 791.503906 L 321.175781 796.511719 "/>
<path style=" stroke:none;fill-rule:nonzero;fill:rgb(38.42926%,79.60968%,80.389404%);fill-opacity:1;" d="M 337.636719 960.464844 L 361.757812 960.464844 L 361.757812 955.453125 L 337.636719 955.453125 Z M 337.636719 960.464844 "/>
<path style=" stroke:none;fill-rule:nonzero;fill:rgb(38.42926%,79.60968%,80.389404%);fill-opacity:1;" d="M 337.636719 976.859375 L 373.363281 976.859375 L 373.363281 971.847656 L 337.636719 971.847656 Z M 337.636719 976.859375 "/>
<path style=" stroke:none;fill-rule:nonzero;fill:rgb(19.999695%,74.119568%,94.898987%);fill-opacity:1;" d="M 379.5 976.859375 L 391.789062 976.859375 L 391.789062 971.847656 L 379.5 971.847656 Z M 379.5 976.859375 "/>
<path style=" stroke:none;fill-rule:nonzero;fill:rgb(38.42926%,79.60968%,80.389404%);fill-opacity:1;" d="M 337.636719 1048.132812 L 361.757812 1048.132812 L 361.757812 1043.121094 L 337.636719 1043.121094 Z M 337.636719 1048.132812 "/>
<path style=" stroke:none;fill-rule:nonzero;fill:rgb(38.42926%,79.60968%,80.389404%);fill-opacity:1;" d="M 337.636719 1064.515625 L 373.363281 1064.515625 L 373.363281 1059.515625 L 337.636719 1059.515625 Z M 337.636719 1064.515625 "/>
<path style=" stroke:none;fill-rule:nonzero;fill:rgb(19.999695%,74.119568%,94.898987%);fill-opacity:1;" d="M 379.5 1064.515625 L 391.789062 1064.515625 L 391.789062 1059.515625 L 379.5 1059.515625 Z M 379.5 1064.515625 "/>
<path style=" stroke:none;fill-rule:nonzero;fill:rgb(38.42926%,79.60968%,80.389404%);fill-opacity:1;" d="M 270.929688 878.480469 L 306.671875 878.480469 L 306.671875 873.46875 L 270.929688 873.46875 Z M 270.929688 878.480469 "/>
<path style=" stroke:none;fill-rule:nonzero;fill:rgb(19.999695%,74.119568%,94.898987%);fill-opacity:1;" d="M 312.804688 878.480469 L 325.09375 878.480469 L 325.09375 873.46875 L 312.804688 873.46875 Z M 312.804688 878.480469 "/>
<path style=" stroke:none;fill-rule:nonzero;fill:rgb(59.999084%,83.918762%,29.40979%);fill-opacity:1;" d="M 312.804688 899.890625 L 382.4375 899.890625 L 382.4375 894.882812 L 312.804688 894.882812 Z M 312.804688 899.890625 "/>
<path style=" stroke:none;fill-rule:nonzero;fill:rgb(100%,100%,100%);fill-opacity:1;" d="M 416.523438 862.085938 L 328.507812 862.085938 L 328.507812 857.074219 L 409.242188 857.074219 L 416.523438 862.085938 "/>
<path style=" stroke:none;fill-rule:nonzero;fill:rgb(100%,100%,100%);fill-opacity:1;" d="M 386.976562 1021.035156 L 447.964844 1021.035156 L 447.964844 1016.027344 L 386.976562 1016.027344 Z M 386.976562 1021.035156 "/>
<path style=" stroke:none;fill-rule:nonzero;fill:rgb(100%,100%,100%);fill-opacity:1;" d="M 454.332031 1021.035156 L 521.132812 1021.035156 L 521.132812 1016.027344 L 454.332031 1016.027344 Z M 454.332031 1021.035156 "/>
<path style=" stroke:none;fill-rule:nonzero;fill:rgb(100%,100%,100%);fill-opacity:1;" d="M 386.976562 1037.421875 L 413.382812 1037.421875 L 413.382812 1032.417969 L 386.976562 1032.417969 Z M 386.976562 1037.421875 "/>
<path style=" stroke:none;fill-rule:nonzero;fill:rgb(100%,100%,100%);fill-opacity:1;" d="M 421.109375 1037.421875 L 447.964844 1037.421875 L 447.964844 1032.417969 L 421.109375 1032.417969 Z M 421.109375 1037.421875 "/>
<path style=" stroke:none;fill-rule:nonzero;fill:rgb(100%,100%,100%);fill-opacity:1;" d="M 454.332031 1037.421875 L 518.488281 1037.421875 L 518.488281 1032.417969 L 454.332031 1032.417969 Z M 454.332031 1037.421875 "/>
<path style=" stroke:none;fill-rule:nonzero;fill:rgb(56.858826%,56.079102%,56.079102%);fill-opacity:1;" d="M 402.707031 1158.867188 L 550.535156 1158.867188 L 550.535156 1110.261719 L 402.707031 1110.261719 Z M 402.707031 1158.867188 "/>
<path style=" stroke:none;fill-rule:nonzero;fill:rgb(43.139648%,41.958618%,42.349243%);fill-opacity:1;" d="M 380.199219 1184.296875 L 573.058594 1184.296875 L 573.058594 1158.867188 L 380.199219 1158.867188 Z M 380.199219 1184.296875 "/>
<path style=" stroke:none;fill-rule:nonzero;fill:rgb(10.5896%,9.408569%,11.369324%);fill-opacity:1;" d="M 1117.019531 1211.832031 C 1117.019531 1218.097656 1111.945312 1223.175781 1105.683594 1223.175781 L 532.46875 1223.175781 C 526.21875 1223.175781 521.132812 1218.097656 521.132812 1211.832031 L 521.132812 821.738281 C 521.132812 815.472656 526.21875 810.394531 532.46875 810.394531 L 1105.683594 810.394531 C 1111.945312 810.394531 1117.019531 815.472656 1117.019531 821.738281 L 1117.019531 1211.832031 "/>
<path style=" stroke:none;fill-rule:nonzero;fill:rgb(51.759338%,84.309387%,89.019775%);fill-opacity:1;" d="M 1092.8125 1193.539062 C 1092.8125 1195.582031 1091.148438 1197.246094 1089.097656 1197.246094 L 549.054688 1197.246094 C 547.015625 1197.246094 545.351562 1195.582031 545.351562 1193.539062 L 545.351562 840.03125 C 545.351562 837.976562 547.015625 836.324219 549.054688 836.324219 L 1089.097656 836.324219 C 1091.148438 836.324219 1092.8125 837.976562 1092.8125 840.03125 L 1092.8125 1193.539062 "/>
<path style=" stroke:none;fill-rule:nonzero;fill:rgb(100%,100%,100%);fill-opacity:1;" d="M 1105.722656 1223.175781 C 1105.722656 1223.175781 1105.734375 1223.175781 1105.734375 1223.175781 C 1105.734375 1223.175781 1105.722656 1223.175781 1105.722656 1223.175781 M 1105.761719 1223.175781 C 1105.773438 1223.175781 1105.773438 1223.175781 1105.78125 1223.175781 C 1105.773438 1223.175781 1105.773438 1223.175781 1105.761719 1223.175781 M 1105.800781 1223.175781 C 1105.800781 1223.175781 1105.8125 1223.175781 1105.820312 1223.175781 C 1105.8125 1223.175781 1105.800781 1223.175781 1105.800781 1223.175781 M 1105.839844 1223.175781 C 1105.839844 1223.175781 1105.851562 1223.175781 1105.859375 1223.175781 C 1105.851562 1223.175781 1105.839844 1223.175781 1105.839844 1223.175781 M 1105.878906 1223.175781 C 1105.878906 1223.175781 1105.890625 1223.175781 1105.898438 1223.175781 C 1105.890625 1223.175781 1105.878906 1223.175781 1105.878906 1223.175781 M 1105.910156 1223.175781 C 1105.917969 1223.175781 1105.929688 1223.175781 1105.9375 1223.175781 C 1105.929688 1223.175781 1105.917969 1223.175781 1105.910156 1223.175781 M 1105.949219 1223.175781 C 1105.957031 1223.175781 1105.96875 1223.175781 1105.96875 1223.175781 C 1105.96875 1223.175781 1105.957031 1223.175781 1105.949219 1223.175781 M 1105.984375 1223.175781 C 1105.996094 1223.175781 1106.003906 1223.175781 1106.015625 1223.175781 C 1106.003906 1223.175781 1105.996094 1223.175781 1105.984375 1223.175781 M 1106.023438 1223.175781 C 1106.035156 1223.164062 1106.042969 1223.164062 1106.042969 1223.164062 C 1106.042969 1223.164062 1106.035156 1223.164062 1106.023438 1223.175781 M 1106.054688 1223.164062 C 1106.0625 1223.164062 1106.082031 1223.164062 1106.082031 1223.164062 C 1106.082031 1223.164062 1106.0625 1223.164062 1106.054688 1223.164062 M 1106.082031 1223.164062 C 1106.152344 1223.164062 1106.210938 1223.164062 1106.269531 1223.164062 C 1106.210938 1223.164062 1106.152344 1223.164062 1106.082031 1223.164062 M 1106.269531 1223.164062 C 1108.398438 1223.046875 1110.359375 1222.359375 1112.015625 1221.238281 C 1110.359375 1222.359375 1108.398438 1223.046875 1106.269531 1223.164062 M 1112.023438 1221.238281 C 1112.035156 1221.230469 1112.035156 1221.230469 1112.042969 1221.21875 C 1112.035156 1221.230469 1112.035156 1221.230469 1112.023438 1221.238281 M 1112.054688 1221.210938 C 1112.0625 1221.210938 1112.0625 1221.210938 1112.0625 1221.210938 C 1112.0625 1221.210938 1112.0625 1221.210938 1112.054688 1221.210938 "/>
<path style=" stroke:none;fill-rule:nonzero;fill:rgb(18.429565%,17.649841%,23.139954%);fill-opacity:1;" d="M 521.132812 821.738281 C 521.132812 821.730469 521.132812 821.710938 521.132812 821.699219 C 521.132812 821.710938 521.132812 821.730469 521.132812 821.738281 M 524.03125 814.179688 C 524.167969 814.023438 524.3125 813.867188 524.457031 813.722656 C 524.3125 813.867188 524.167969 814.023438 524.03125 814.179688 "/>
<path style=" stroke:none;fill-rule:nonzero;fill:rgb(20.779419%,18.429565%,21.958923%);fill-opacity:1;" d="M 1105.683594 1223.175781 L 532.46875 1223.175781 C 526.21875 1223.175781 521.132812 1218.097656 521.132812 1211.832031 L 521.132812 821.738281 C 521.132812 821.730469 521.132812 821.710938 521.132812 821.699219 C 521.144531 818.8125 522.242188 816.175781 524.03125 814.179688 C 524.167969 814.023438 524.3125 813.867188 524.457031 813.722656 L 557.328125 836.324219 L 549.054688 836.324219 C 547.015625 836.324219 545.351562 837.976562 545.351562 840.03125 L 545.351562 1193.539062 C 545.351562 1195.582031 547.015625 1197.246094 549.054688 1197.246094 L 1082.136719 1197.246094 L 1114.210938 1219.304688 C 1113.589844 1220.011719 1112.878906 1220.65625 1112.09375 1221.191406 C 1112.082031 1221.199219 1112.074219 1221.199219 1112.0625 1221.210938 C 1112.0625 1221.210938 1112.0625 1221.210938 1112.054688 1221.210938 C 1112.054688 1221.21875 1112.042969 1221.21875 1112.042969 1221.21875 C 1112.035156 1221.230469 1112.035156 1221.230469 1112.023438 1221.238281 C 1112.023438 1221.238281 1112.023438 1221.238281 1112.015625 1221.238281 C 1110.359375 1222.359375 1108.398438 1223.046875 1106.269531 1223.164062 C 1106.210938 1223.164062 1106.152344 1223.164062 1106.082031 1223.164062 C 1106.082031 1223.164062 1106.0625 1223.164062 1106.054688 1223.164062 C 1106.054688 1223.164062 1106.054688 1223.164062 1106.042969 1223.164062 C 1106.042969 1223.164062 1106.035156 1223.164062 1106.023438 1223.175781 C 1106.015625 1223.175781 1106.015625 1223.175781 1106.015625 1223.175781 C 1106.003906 1223.175781 1105.996094 1223.175781 1105.984375 1223.175781 C 1105.984375 1223.175781 1105.976562 1223.175781 1105.96875 1223.175781 C 1105.96875 1223.175781 1105.957031 1223.175781 1105.949219 1223.175781 C 1105.949219 1223.175781 1105.9375 1223.175781 1105.9375 1223.175781 C 1105.929688 1223.175781 1105.917969 1223.175781 1105.910156 1223.175781 C 1105.910156 1223.175781 1105.898438 1223.175781 1105.898438 1223.175781 C 1105.890625 1223.175781 1105.878906 1223.175781 1105.878906 1223.175781 C 1105.871094 1223.175781 1105.859375 1223.175781 1105.859375 1223.175781 C 1105.851562 1223.175781 1105.839844 1223.175781 1105.839844 1223.175781 C 1105.832031 1223.175781 1105.820312 1223.175781 1105.820312 1223.175781 C 1105.8125 1223.175781 1105.800781 1223.175781 1105.800781 1223.175781 C 1105.792969 1223.175781 1105.78125 1223.175781 1105.78125 1223.175781 C 1105.773438 1223.175781 1105.773438 1223.175781 1105.761719 1223.175781 C 1105.753906 1223.175781 1105.742188 1223.175781 1105.734375 1223.175781 C 1105.734375 1223.175781 1105.722656 1223.175781 1105.722656 1223.175781 C 1105.714844 1223.175781 1105.695312 1223.175781 1105.683594 1223.175781 "/>
<path style=" stroke:none;fill-rule:nonzero;fill:rgb(61.569214%,87.449646%,90.979004%);fill-opacity:1;" d="M 1082.136719 1197.246094 L 549.054688 1197.246094 C 547.015625 1197.246094 545.351562 1195.582031 545.351562 1193.539062 L 545.351562 840.03125 C 545.351562 837.976562 547.015625 836.324219 549.054688 836.324219 L 557.328125 836.324219 L 668.039062 912.460938 L 668.039062 1168.34375 L 970.117188 1168.34375 L 970.117188 1120.203125 L 1082.136719 1197.246094 "/>
<path style=" stroke:none;fill-rule:nonzero;fill:rgb(56.858826%,56.079102%,56.079102%);fill-opacity:1;" d="M 892.992188 1271.789062 L 745.164062 1271.789062 L 745.164062 1223.175781 L 892.992188 1223.175781 L 892.992188 1271.789062 "/>
<path style=" stroke:none;fill-rule:nonzero;fill:rgb(43.139648%,41.958618%,42.349243%);fill-opacity:1;" d="M 915.515625 1297.210938 L 722.648438 1297.210938 L 722.648438 1271.789062 L 915.515625 1271.789062 L 915.515625 1297.210938 "/>
<path style=" stroke:none;fill-rule:nonzero;fill:rgb(51.759338%,83.918762%,89.019775%);fill-opacity:1;" d="M 970.117188 1120.203125 L 954.542969 1109.503906 L 954.542969 881.171875 L 668.039062 881.171875 L 668.039062 912.460938 L 668.039062 860.449219 L 970.117188 860.449219 L 970.117188 1120.203125 "/>
<path style=" stroke:none;fill-rule:nonzero;fill:rgb(61.569214%,87.449646%,90.979004%);fill-opacity:1;" d="M 970.117188 1168.34375 L 668.039062 1168.34375 L 668.039062 912.460938 L 668.039062 1151.539062 L 954.542969 1151.539062 L 954.542969 1109.503906 L 970.117188 1120.203125 L 970.117188 1168.34375 "/>
<path style=" stroke:none;fill-rule:nonzero;fill:rgb(78.42865%,87.059021%,90.589905%);fill-opacity:1;" d="M 668.039062 1151.539062 L 954.542969 1151.539062 L 954.542969 881.171875 L 668.039062 881.171875 Z M 668.039062 1151.539062 "/>
<path style=" stroke:none;fill-rule:nonzero;fill:rgb(61.178589%,78.42865%,85.488892%);fill-opacity:1;" d="M 668.039062 889.433594 L 954.542969 889.433594 L 954.542969 881.183594 L 668.039062 881.183594 Z M 668.039062 889.433594 "/>
<path style=" stroke:none;fill-rule:nonzero;fill:rgb(23.139954%,74.508667%,77.249146%);fill-opacity:1;" d="M 954.542969 881.171875 L 668.039062 881.171875 L 668.039062 860.449219 L 954.542969 860.449219 L 954.542969 881.171875 "/>
<path style=" stroke:none;fill-rule:nonzero;fill:rgb(57.249451%,67.83905%,72.938538%);fill-opacity:1;" d="M 873.671875 967.800781 C 873.671875 1003.40625 844.828125 1032.273438 809.242188 1032.273438 C 773.667969 1032.273438 744.824219 1003.40625 744.824219 967.800781 C 744.824219 932.191406 773.667969 903.328125 809.242188 903.328125 C 844.828125 903.328125 873.671875 932.191406 873.671875 967.800781 "/>
<path style=" stroke:none;fill-rule:nonzero;fill:rgb(100%,100%,100%);fill-opacity:1;" d="M 782.285156 960.628906 C 781.894531 960.6875 781.535156 960.796875 781.195312 960.941406 C 781.203125 960.941406 782.253906 960.269531 783.488281 960.660156 C 783.089844 960.589844 782.683594 960.582031 782.285156 960.628906 Z M 832.148438 960.621094 C 832.148438 960.621094 832.488281 960.550781 833.015625 960.628906 C 832.722656 960.601562 832.441406 960.601562 832.148438 960.621094 Z M 838.984375 1012.359375 L 816.105469 1006.84375 L 816.085938 1006.863281 L 813.277344 1006.152344 L 813.277344 994.417969 C 813.433594 994.242188 814.738281 993.289062 824.410156 987.957031 C 824.410156 987.957031 828.890625 986.324219 829.367188 979.855469 L 830.125 973.65625 C 830.488281 973.8125 830.867188 973.929688 831.273438 973.988281 C 834.132812 974.367188 836.855469 971.691406 837.339844 967.996094 C 837.71875 965.125 836.632812 962.496094 834.785156 961.292969 L 834.8125 961.3125 C 834.8125 961.3125 834.910156 960.894531 835.046875 960.152344 L 835.046875 960.144531 C 835.191406 959.335938 835.386719 958.121094 835.582031 956.601562 L 835.582031 956.582031 C 836.992188 945.5 837.828125 918.542969 813.277344 915.574219 C 813.277344 915.574219 792.335938 913.308594 790.382812 924.078125 C 790.382812 924.078125 778.003906 925.371094 780.726562 956.582031 L 780.746094 956.730469 C 780.835938 957.722656 780.933594 958.734375 781.058594 959.773438 L 781.066406 959.898438 C 781.105469 960.242188 781.144531 960.589844 781.195312 960.941406 C 778.949219 961.90625 777.546875 964.804688 777.976562 967.996094 C 778.453125 971.691406 781.175781 974.367188 784.035156 973.988281 C 784.433594 973.929688 784.800781 973.824219 785.152344 973.675781 L 785.949219 979.855469 C 786.425781 986.324219 790.898438 987.957031 790.898438 987.957031 C 802.875 994.546875 801.894531 994.449219 801.894531 994.449219 L 802.039062 994.546875 L 802.039062 1006.152344 L 798.792969 1007.046875 L 780.40625 1012.144531 C 780.40625 1012.144531 774.359375 1013.664062 771.957031 1020.367188 C 782.476562 1027.855469 795.351562 1032.273438 809.242188 1032.273438 C 823.242188 1032.273438 836.183594 1027.796875 846.742188 1020.210938 C 844.125 1013.390625 838.984375 1012.359375 838.984375 1012.359375 "/>
<path style=" stroke:none;fill-rule:nonzero;fill:rgb(92.939758%,22.349548%,27.839661%);fill-opacity:1;" d="M 921.070312 871.113281 C 921.070312 873.984375 918.746094 876.300781 915.878906 876.300781 C 913.019531 876.300781 910.695312 873.984375 910.695312 871.113281 C 910.695312 868.253906 913.019531 865.929688 915.878906 865.929688 C 918.746094 865.929688 921.070312 868.253906 921.070312 871.113281 "/>
<path style=" stroke:none;fill-rule:nonzero;fill:rgb(50.19989%,79.998779%,15.689087%);fill-opacity:1;" d="M 934.730469 871.113281 C 934.730469 873.984375 932.40625 876.300781 929.535156 876.300781 C 926.679688 876.300781 924.355469 873.984375 924.355469 871.113281 C 924.355469 868.253906 926.679688 865.929688 929.535156 865.929688 C 932.40625 865.929688 934.730469 868.253906 934.730469 871.113281 "/>
<path style=" stroke:none;fill-rule:nonzero;fill:rgb(92.158508%,71.759033%,18.03894%);fill-opacity:1;" d="M 948.261719 871.113281 C 948.261719 873.984375 945.9375 876.300781 943.078125 876.300781 C 940.210938 876.300781 937.898438 873.984375 937.898438 871.113281 C 937.898438 868.253906 940.210938 865.929688 943.078125 865.929688 C 945.9375 865.929688 948.261719 868.253906 948.261719 871.113281 "/>
<path style=" stroke:none;fill-rule:nonzero;fill:rgb(100%,100%,100%);fill-opacity:1;" d="M 925.675781 1076.0625 L 719.664062 1076.0625 L 719.664062 1051.90625 L 925.675781 1051.90625 L 925.675781 1076.0625 "/>
<path style=" stroke:none;fill-rule:nonzero;fill:rgb(100%,100%,100%);fill-opacity:1;" d="M 925.675781 1114.71875 L 719.664062 1114.71875 L 719.664062 1090.558594 L 925.675781 1090.558594 L 925.675781 1114.71875 "/>
<path style=" stroke:none;fill-rule:nonzero;fill:rgb(57.249451%,67.83905%,72.938538%);fill-opacity:1;" d="M 706.898438 1108.414062 L 703.726562 1108.414062 L 704.390625 1104.96875 C 703.980469 1104.675781 703.726562 1104.21875 703.726562 1103.683594 C 703.726562 1102.808594 704.4375 1102.097656 705.3125 1102.097656 C 706.1875 1102.097656 706.898438 1102.808594 706.898438 1103.683594 C 706.898438 1104.296875 706.558594 1104.8125 706.050781 1105.085938 Z M 710.679688 1097.867188 L 699.957031 1097.867188 C 698.835938 1097.867188 697.933594 1098.769531 697.933594 1099.890625 L 697.933594 1110.621094 C 697.933594 1111.730469 698.835938 1112.644531 699.957031 1112.644531 L 710.679688 1112.644531 C 711.789062 1112.644531 712.691406 1111.730469 712.691406 1110.621094 L 712.691406 1099.890625 C 712.691406 1098.769531 711.789062 1097.867188 710.679688 1097.867188 "/>
<path style=" stroke:none;fill-rule:nonzero;fill:rgb(57.249451%,67.83905%,72.938538%);fill-opacity:1;" d="M 710.289062 1097.867188 L 708.21875 1097.867188 L 708.21875 1093.226562 C 708.21875 1092.90625 707.957031 1092.640625 707.625 1092.640625 L 703 1092.640625 C 702.675781 1092.640625 702.414062 1092.90625 702.414062 1093.226562 L 702.414062 1097.867188 L 700.335938 1097.867188 L 700.335938 1093.226562 C 700.335938 1091.757812 701.519531 1090.558594 703 1090.558594 L 707.625 1090.558594 C 709.105469 1090.558594 710.289062 1091.757812 710.289062 1093.226562 L 710.289062 1097.867188 "/>
<path style=" stroke:none;fill-rule:nonzero;fill:rgb(57.249451%,67.83905%,72.938538%);fill-opacity:1;" d="M 710.476562 1059.691406 C 710.476562 1062.53125 708.160156 1064.847656 705.3125 1064.847656 C 702.472656 1064.847656 700.160156 1062.53125 700.160156 1059.691406 C 700.160156 1056.839844 702.472656 1054.523438 705.3125 1054.523438 C 708.160156 1054.523438 710.476562 1056.839844 710.476562 1059.691406 "/>
<path style=" stroke:none;fill-rule:nonzero;fill:rgb(57.249451%,67.83905%,72.938538%);fill-opacity:1;" d="M 710.476562 1066.761719 L 700.160156 1066.761719 C 696.804688 1067.328125 696.914062 1070.101562 696.914062 1070.101562 L 696.914062 1073.445312 L 713.710938 1073.445312 L 713.710938 1070.101562 C 713.710938 1070.101562 713.828125 1067.328125 710.476562 1066.761719 "/>
<path style=" stroke:none;fill-rule:nonzero;fill:rgb(51.759338%,84.309387%,89.019775%);fill-opacity:1;" d="M 739.203125 498.3125 C 738.824219 548.804688 697.640625 589.421875 647.191406 589.0625 C 596.734375 588.691406 556.132812 547.472656 556.503906 496.988281 C 556.871094 446.503906 598.066406 405.875 648.503906 406.234375 C 698.964844 406.605469 739.5625 447.828125 739.203125 498.3125 "/>
<path style=" stroke:none;fill-rule:nonzero;fill:rgb(10.198975%,14.509583%,13.729858%);fill-opacity:1;" d="M 647.640625 527.371094 L 647.660156 523.636719 C 633.386719 523.527344 621.875 511.910156 621.875 497.648438 L 621.875 497.570312 L 619.960938 497.5625 L 621.867188 497.6875 L 621.875 497.570312 L 619.960938 497.5625 L 621.867188 497.6875 L 621.875 497.550781 L 621.875 497.464844 C 621.984375 483.171875 633.589844 471.664062 647.84375 471.664062 L 648.039062 471.664062 C 662.3125 471.769531 673.820312 483.386719 673.8125 497.648438 L 673.8125 497.929688 L 677.546875 497.863281 L 673.8125 497.835938 C 673.714844 512.125 662.097656 523.636719 647.855469 523.636719 L 647.640625 523.636719 L 647.660156 523.636719 L 647.640625 527.371094 L 647.628906 531.105469 L 647.855469 531.105469 C 666.210938 531.105469 681.144531 516.289062 681.277344 497.890625 L 681.277344 497.648438 C 681.277344 479.28125 666.480469 464.328125 648.085938 464.191406 L 648.105469 464.191406 L 647.84375 464.191406 C 629.488281 464.191406 614.554688 479.007812 614.410156 497.40625 L 618.144531 497.433594 L 614.417969 497.183594 C 614.398438 497.464844 614.410156 497.621094 614.410156 497.648438 C 614.410156 516.015625 629.226562 530.972656 647.609375 531.105469 L 647.628906 531.105469 Z M 705.339844 502.464844 L 709.066406 502.757812 C 709.183594 501.25 709.269531 499.703125 709.289062 498.105469 L 709.289062 497.765625 C 709.289062 496.269531 709.222656 494.828125 709.132812 493.425781 L 708.988281 491.285156 L 707.070312 490.324219 C 704.078125 488.84375 702.054688 487.367188 700.945312 486.089844 C 700.382812 485.449219 700.035156 484.875 699.808594 484.320312 C 699.597656 483.765625 699.488281 483.230469 699.488281 482.589844 C 699.488281 481.742188 699.683594 480.683594 700.226562 479.347656 C 700.773438 478.027344 701.648438 476.449219 702.882812 474.679688 L 704.125 472.890625 L 703.183594 470.925781 C 701.890625 468.25 700.421875 465.699219 698.777344 463.265625 L 697.554688 461.457031 L 695.367188 461.640625 C 694.363281 461.730469 693.433594 461.769531 692.585938 461.769531 C 690.757812 461.769531 689.320312 461.574219 688.269531 461.253906 C 687.480469 461.011719 686.917969 460.71875 686.480469 460.386719 C 685.828125 459.890625 685.390625 459.328125 684.992188 458.296875 C 684.605469 457.273438 684.339844 455.765625 684.339844 453.773438 C 684.339844 452.816406 684.398438 451.777344 684.515625 450.628906 L 684.738281 448.441406 L 682.933594 447.183594 C 680.53125 445.503906 678.003906 443.996094 675.359375 442.671875 L 673.402344 441.6875 L 671.59375 442.914062 C 669.835938 444.109375 668.269531 444.957031 666.949219 445.484375 C 665.625 446.007812 664.566406 446.203125 663.71875 446.203125 C 663.058594 446.203125 662.523438 446.09375 661.96875 445.871094 C 661.144531 445.53125 660.238281 444.898438 659.21875 443.703125 C 658.207031 442.515625 657.109375 440.785156 656.019531 438.496094 L 655.097656 436.570312 L 652.957031 436.394531 C 651.449219 436.269531 649.894531 436.183594 648.300781 436.171875 L 647.960938 436.164062 C 646.484375 436.164062 645.035156 436.230469 643.625 436.328125 L 641.484375 436.472656 L 640.53125 438.390625 C 639.054688 441.378906 637.578125 443.402344 636.292969 444.519531 C 635.652344 445.082031 635.078125 445.425781 634.535156 445.648438 C 633.980469 445.871094 633.445312 445.980469 632.792969 445.980469 C 631.957031 445.980469 630.886719 445.773438 629.566406 445.230469 C 628.234375 444.695312 626.667969 443.820312 624.898438 442.574219 L 623.101562 441.328125 L 621.136719 442.28125 C 618.472656 443.566406 615.925781 445.035156 613.496094 446.679688 L 611.675781 447.90625 L 611.863281 450.09375 C 611.949219 451.097656 611.988281 452.03125 611.988281 452.886719 C 611.988281 454.714844 611.792969 456.15625 611.472656 457.195312 C 611.230469 457.984375 610.9375 458.546875 610.609375 458.988281 C 610.113281 459.636719 609.546875 460.085938 608.519531 460.476562 C 607.496094 460.863281 605.988281 461.125 603.996094 461.125 C 603.054688 461.125 602.003906 461.070312 600.847656 460.953125 L 598.667969 460.738281 L 597.425781 462.539062 C 595.742188 464.949219 594.234375 467.480469 592.914062 470.117188 L 591.929688 472.070312 L 593.15625 473.882812 C 594.34375 475.652344 595.1875 477.207031 595.714844 478.53125 C 596.238281 479.855469 596.433594 480.914062 596.433594 481.761719 C 596.433594 482.421875 596.324219 482.96875 596.101562 483.511719 C 595.773438 484.339844 595.140625 485.246094 593.933594 486.265625 C 592.75 487.289062 591.015625 488.378906 588.742188 489.476562 L 586.816406 490.402344 L 586.640625 492.523438 C 586.515625 494.050781 586.429688 495.605469 586.410156 497.203125 L 590.140625 497.230469 L 586.410156 497.171875 L 586.410156 497.660156 C 586.410156 499.109375 586.46875 500.507812 586.566406 501.882812 L 586.710938 504.011719 L 588.625 504.964844 C 591.621094 506.453125 593.640625 507.933594 594.75 509.207031 C 595.316406 509.847656 595.664062 510.433594 595.886719 510.976562 C 596.101562 511.53125 596.210938 512.066406 596.210938 512.710938 C 596.210938 513.554688 596.003906 514.617188 595.46875 515.949219 C 594.925781 517.273438 594.050781 518.847656 592.816406 520.621094 L 591.5625 522.417969 L 592.515625 524.382812 C 593.808594 527.039062 595.277344 529.589844 596.917969 532.03125 L 598.144531 533.839844 L 600.332031 533.65625 C 601.332031 533.570312 602.265625 533.53125 603.113281 533.53125 C 604.941406 533.53125 606.378906 533.734375 607.417969 534.046875 C 608.207031 534.289062 608.769531 534.589844 609.207031 534.910156 C 609.859375 535.40625 610.304688 535.972656 610.703125 537.003906 C 611.085938 538.023438 611.347656 539.523438 611.347656 541.527344 C 611.347656 542.46875 611.289062 543.53125 611.179688 544.6875 L 610.96875 546.867188 L 612.757812 548.113281 C 615.167969 549.785156 617.695312 551.304688 620.339844 552.628906 L 622.285156 553.609375 L 624.101562 552.382812 C 625.863281 551.1875 627.425781 550.339844 628.75 549.816406 C 630.070312 549.289062 631.132812 549.097656 631.976562 549.097656 C 632.636719 549.097656 633.171875 549.203125 633.726562 549.425781 C 634.542969 549.757812 635.449219 550.398438 636.480469 551.597656 C 637.488281 552.78125 638.578125 554.515625 639.675781 556.800781 L 640.601562 558.726562 L 642.730469 558.902344 C 644.246094 559.027344 645.800781 559.117188 647.40625 559.125 L 647.796875 559.125 C 649.261719 559.125 650.683594 559.066406 652.082031 558.972656 L 654.210938 558.824219 L 655.164062 556.910156 C 656.652344 553.921875 658.121094 551.898438 659.402344 550.777344 C 660.046875 550.214844 660.621094 549.875 661.164062 549.652344 C 661.71875 549.425781 662.253906 549.320312 662.894531 549.320312 C 663.738281 549.320312 664.800781 549.523438 666.132812 550.070312 C 667.453125 550.605469 669.027344 551.480469 670.808594 552.726562 L 672.597656 553.96875 L 674.5625 553.015625 C 677.226562 551.734375 679.773438 550.261719 682.203125 548.621094 L 684.019531 547.394531 L 683.835938 545.203125 C 683.75 544.191406 683.699219 543.257812 683.699219 542.421875 C 683.699219 540.582031 683.902344 539.152344 684.226562 538.101562 C 684.457031 537.3125 684.757812 536.75 685.082031 536.3125 C 685.578125 535.660156 686.140625 535.222656 687.171875 534.824219 C 688.203125 534.433594 689.699219 534.171875 691.691406 534.171875 C 692.644531 534.171875 693.695312 534.230469 694.839844 534.347656 L 697.019531 534.5625 L 698.273438 532.761719 C 699.957031 530.359375 701.460938 527.820312 702.785156 525.183594 L 703.765625 523.226562 L 702.542969 521.417969 C 701.355469 519.644531 700.507812 518.089844 699.984375 516.765625 C 699.460938 515.445312 699.253906 514.382812 699.253906 513.535156 C 699.265625 512.875 699.371094 512.332031 699.597656 511.777344 C 699.925781 510.957031 700.558594 510.054688 701.753906 509.03125 C 702.941406 508.011719 704.679688 506.921875 706.957031 505.832031 L 708.890625 504.898438 L 709.066406 502.757812 L 705.339844 502.464844 L 703.726562 499.097656 C 700.167969 500.8125 697.3125 502.667969 695.171875 505.023438 C 694.121094 506.210938 693.257812 507.523438 692.671875 508.972656 C 692.082031 510.421875 691.789062 511.980469 691.789062 513.535156 C 691.789062 515.550781 692.253906 517.546875 693.042969 519.519531 C 693.832031 521.515625 694.949219 523.507812 696.359375 525.589844 L 699.449219 523.507812 L 696.113281 521.835938 C 694.949219 524.152344 693.625 526.367188 692.148438 528.488281 L 695.21875 530.621094 L 695.582031 526.914062 C 694.230469 526.769531 692.9375 526.699219 691.691406 526.699219 C 689.367188 526.699219 687.25 526.953125 685.273438 527.574219 C 683.808594 528.03125 682.425781 528.722656 681.230469 529.667969 C 679.414062 531.066406 678.089844 533.035156 677.320312 535.203125 C 676.542969 537.382812 676.242188 539.777344 676.234375 542.421875 C 676.234375 543.511719 676.292969 544.648438 676.390625 545.835938 L 680.113281 545.523438 L 678.023438 542.429688 C 675.894531 543.871094 673.648438 545.164062 671.3125 546.292969 L 672.9375 549.660156 L 675.066406 546.585938 C 672.964844 545.125 670.964844 543.96875 668.949219 543.152344 C 666.957031 542.335938 664.9375 541.847656 662.894531 541.847656 C 661.359375 541.847656 659.8125 542.140625 658.382812 542.714844 C 656.234375 543.578125 654.378906 545.046875 652.78125 546.878906 C 651.179688 548.726562 649.796875 550.945312 648.484375 553.582031 L 651.820312 555.246094 L 651.566406 551.519531 C 650.292969 551.605469 649.03125 551.65625 647.796875 551.65625 L 647.457031 551.65625 C 646.105469 551.644531 644.742188 551.578125 643.351562 551.460938 L 643.042969 555.175781 L 646.40625 553.5625 C 644.683594 550 642.835938 547.140625 640.476562 545.007812 C 639.296875 543.949219 637.976562 543.09375 636.539062 542.5 C 635.089844 541.914062 633.53125 541.625 631.976562 541.625 C 629.964844 541.625 627.972656 542.089844 625.988281 542.878906 C 624.003906 543.667969 622.011719 544.785156 619.921875 546.1875 L 622.011719 549.289062 L 623.683594 545.945312 C 621.359375 544.785156 619.144531 543.460938 617.035156 541.984375 L 614.894531 545.046875 L 618.609375 545.410156 C 618.746094 544.054688 618.8125 542.761719 618.8125 541.527344 C 618.8125 539.203125 618.5625 537.082031 617.949219 535.105469 C 617.480469 533.636719 616.792969 532.253906 615.847656 531.058594 C 614.449219 529.238281 612.492188 527.90625 610.324219 527.148438 C 608.148438 526.359375 605.757812 526.058594 603.113281 526.058594 C 602.023438 526.058594 600.886719 526.117188 599.691406 526.214844 L 600.011719 529.941406 L 603.101562 527.847656 C 601.664062 525.707031 600.371094 523.460938 599.234375 521.125 L 595.878906 522.757812 L 598.941406 524.890625 C 600.398438 522.789062 601.554688 520.785156 602.375 518.769531 C 603.191406 516.777344 603.675781 514.753906 603.675781 512.710938 C 603.6875 511.164062 603.394531 509.625 602.8125 508.195312 C 601.945312 506.035156 600.488281 504.1875 598.648438 502.582031 C 596.8125 500.984375 594.585938 499.59375 591.960938 498.28125 L 590.296875 501.628906 L 594.023438 501.367188 C 593.933594 500.109375 593.875 498.886719 593.875 497.660156 L 593.875 497.261719 C 593.886719 495.898438 593.964844 494.535156 594.078125 493.15625 L 590.367188 492.84375 L 591.980469 496.210938 C 595.527344 494.488281 598.386719 492.628906 600.515625 490.273438 C 601.574219 489.085938 602.441406 487.765625 603.023438 486.324219 C 603.609375 484.886719 603.898438 483.328125 603.898438 481.761719 C 603.898438 479.757812 603.441406 477.761719 602.65625 475.777344 C 601.867188 473.792969 600.75 471.800781 599.339844 469.707031 L 596.25 471.800781 L 599.582031 473.472656 C 600.75 471.148438 602.070312 468.917969 603.539062 466.808594 L 600.476562 464.679688 L 600.117188 468.394531 C 601.46875 468.53125 602.761719 468.597656 603.996094 468.597656 C 606.3125 468.597656 608.441406 468.34375 610.414062 467.722656 C 611.882812 467.265625 613.261719 466.574219 614.46875 465.632812 C 616.277344 464.230469 617.609375 462.273438 618.375 460.105469 C 619.152344 457.917969 619.457031 455.53125 619.457031 452.886719 C 619.457031 451.796875 619.40625 450.648438 619.308594 449.460938 L 615.585938 449.773438 L 617.675781 452.867188 C 619.804688 451.425781 622.050781 450.132812 624.382812 449.003906 L 622.761719 445.648438 L 620.621094 448.703125 C 622.722656 450.171875 624.734375 451.328125 626.738281 452.148438 C 628.738281 452.964844 630.753906 453.449219 632.792969 453.449219 C 634.339844 453.449219 635.886719 453.160156 637.316406 452.585938 C 639.464844 451.71875 641.320312 450.25 642.914062 448.421875 C 644.519531 446.582031 645.910156 444.355469 647.222656 441.726562 L 643.878906 440.054688 L 644.128906 443.78125 C 645.421875 443.691406 646.695312 443.632812 647.960938 443.632812 L 648.242188 443.644531 C 649.59375 443.652344 650.964844 443.730469 652.34375 443.839844 L 652.65625 440.121094 L 649.292969 441.738281 C 651.003906 445.296875 652.859375 448.15625 655.222656 450.289062 C 656.398438 451.339844 657.722656 452.207031 659.160156 452.789062 C 660.609375 453.382812 662.164062 453.675781 663.71875 453.675781 C 665.734375 453.675781 667.726562 453.207031 669.710938 452.417969 C 671.691406 451.632812 673.6875 450.511719 675.777344 449.113281 L 673.6875 446.007812 L 672.011719 449.355469 C 674.335938 450.511719 676.554688 451.835938 678.664062 453.316406 L 680.800781 450.25 L 677.089844 449.859375 C 676.941406 451.234375 676.875 452.535156 676.875 453.773438 C 676.875 456.085938 677.128906 458.21875 677.75 460.191406 C 678.214844 461.660156 678.898438 463.042969 679.839844 464.25 C 681.238281 466.058594 683.203125 467.390625 685.371094 468.160156 C 687.550781 468.9375 689.941406 469.242188 692.585938 469.242188 C 693.675781 469.242188 694.8125 469.183594 696 469.085938 L 695.6875 465.367188 L 692.597656 467.460938 C 694.035156 469.589844 695.328125 471.839844 696.457031 474.164062 L 699.820312 472.546875 L 696.757812 470.410156 C 695.296875 472.507812 694.132812 474.523438 693.316406 476.527344 C 692.5 478.523438 692.023438 480.546875 692.023438 482.589844 C 692.011719 484.125 692.304688 485.671875 692.878906 487.101562 C 693.742188 489.261719 695.210938 491.121094 697.046875 492.714844 C 698.886719 494.3125 701.113281 495.703125 703.738281 497.015625 L 705.410156 493.671875 L 701.675781 493.914062 C 701.765625 495.21875 701.820312 496.5 701.820312 497.765625 L 701.820312 498.066406 L 701.820312 498.027344 C 701.8125 499.390625 701.734375 500.761719 701.617188 502.164062 L 705.339844 502.464844 L 703.726562 499.097656 L 705.339844 502.464844 "/>
<path style=" stroke:none;fill-rule:nonzero;fill:rgb(92.939758%,22.349548%,27.839661%);fill-opacity:1;" d="M 994.832031 536.039062 C 994.832031 586.523438 953.921875 627.441406 903.480469 627.441406 C 853.023438 627.441406 812.132812 586.523438 812.132812 536.039062 C 812.132812 485.546875 853.023438 444.617188 903.480469 444.617188 C 953.921875 444.617188 994.832031 485.546875 994.832031 536.039062 "/>
<path style=" stroke:none;fill-rule:nonzero;fill:rgb(10.198975%,14.509583%,13.729858%);fill-opacity:1;" d="M 886.691406 555.625 L 846.683594 531.757812 L 886.691406 507.894531 L 882.871094 501.472656 L 832.101562 531.757812 L 882.871094 562.046875 L 886.691406 555.625 "/>
<path style=" stroke:none;fill-rule:nonzero;fill:rgb(10.198975%,14.509583%,13.729858%);fill-opacity:1;" d="M 924.082031 562.046875 L 974.84375 531.757812 L 924.082031 501.472656 L 920.261719 507.894531 L 960.257812 531.757812 L 920.261719 555.625 L 924.082031 562.046875 "/>
<path style=" stroke:none;fill-rule:nonzero;fill:rgb(10.198975%,14.509583%,13.729858%);fill-opacity:1;" d="M 915.292969 467.410156 L 884.398438 594.335938 L 891.648438 596.105469 L 922.546875 469.171875 "/>
<path style=" stroke:none;fill-rule:nonzero;fill:rgb(97.648621%,65.489197%,16.859436%);fill-opacity:1;" d="M 483.578125 536.039062 C 483.578125 586.523438 442.675781 627.441406 392.226562 627.441406 C 341.777344 627.441406 300.875 586.523438 300.875 536.039062 C 300.875 485.546875 341.777344 444.617188 392.226562 444.617188 C 442.675781 444.617188 483.578125 485.546875 483.578125 536.039062 "/>
<path style=" stroke:none;fill-rule:nonzero;fill:rgb(10.198975%,14.509583%,13.729858%);fill-opacity:1;" d="M 423.261719 503.359375 L 419.527344 503.359375 C 419.527344 510.917969 416.472656 517.71875 411.523438 522.683594 C 406.578125 527.632812 399.78125 530.679688 392.226562 530.679688 C 384.671875 530.679688 377.875 527.632812 372.917969 522.683594 C 367.96875 517.71875 364.925781 510.910156 364.917969 503.359375 C 364.925781 495.800781 367.96875 489 372.917969 484.039062 C 377.875 479.097656 384.671875 476.042969 392.226562 476.042969 C 399.78125 476.042969 406.578125 479.097656 411.523438 484.039062 C 416.472656 489 419.527344 495.800781 419.527344 503.359375 L 426.992188 503.359375 C 426.992188 484.136719 411.429688 468.570312 392.226562 468.570312 C 373.023438 468.570312 357.460938 484.136719 357.449219 503.359375 C 357.460938 522.574219 373.023438 538.152344 392.226562 538.152344 C 411.429688 538.152344 426.992188 522.574219 426.992188 503.359375 L 423.261719 503.359375 "/>
<path style=" stroke:none;fill-rule:nonzero;fill:rgb(10.198975%,14.509583%,13.729858%);fill-opacity:1;" d="M 405.574219 491.949219 C 408.414062 495.285156 409.640625 499.089844 409.648438 502.933594 C 409.660156 507.484375 407.839844 512.058594 404.75 515.414062 C 401.648438 518.769531 397.398438 520.921875 392.226562 520.929688 L 392.226562 528.402344 C 399.566406 528.414062 405.90625 525.222656 410.242188 520.472656 C 414.597656 515.726562 417.105469 509.441406 417.117188 502.933594 C 417.125 497.453125 415.277344 491.800781 411.242188 487.09375 L 405.574219 491.949219 "/>
<path style=" stroke:none;fill-rule:nonzero;fill:rgb(10.198975%,14.509583%,13.729858%);fill-opacity:1;" d="M 392.226562 485.789062 C 394.890625 485.789062 397.5625 486.402344 399.945312 487.578125 L 403.230469 480.867188 C 399.800781 479.183594 396.027344 478.316406 392.226562 478.316406 L 392.226562 485.789062 "/>
<path style=" stroke:none;fill-rule:nonzero;fill:rgb(10.198975%,14.509583%,13.729858%);fill-opacity:1;" d="M 434.253906 503.359375 L 430.523438 503.359375 C 430.523438 513.953125 426.246094 523.507812 419.304688 530.457031 C 412.359375 537.402344 402.8125 541.683594 392.226562 541.683594 C 381.640625 541.683594 372.089844 537.402344 365.148438 530.457031 C 358.207031 523.507812 353.929688 513.953125 353.929688 503.359375 C 353.929688 492.765625 358.207031 483.210938 365.148438 476.265625 C 372.089844 469.320312 381.640625 465.039062 392.226562 465.039062 C 402.8125 465.039062 412.359375 469.320312 419.304688 476.265625 C 426.246094 483.210938 430.523438 492.765625 430.523438 503.359375 L 437.988281 503.359375 C 437.988281 478.066406 417.503906 457.566406 392.226562 457.566406 C 366.949219 457.566406 346.464844 478.066406 346.464844 503.359375 C 346.464844 528.644531 366.949219 549.152344 392.226562 549.152344 C 417.503906 549.152344 437.988281 528.644531 437.988281 503.359375 L 434.253906 503.359375 "/>
<path style=" stroke:none;fill-rule:nonzero;fill:rgb(10.198975%,14.509583%,13.729858%);fill-opacity:1;" d="M 396.660156 559.984375 L 396.660156 556.246094 L 391.527344 556.246094 L 391.527344 548.910156 L 392.917969 548.910156 L 392.925781 559.984375 L 396.660156 559.984375 L 396.660156 556.246094 L 396.660156 559.984375 L 400.382812 559.984375 L 400.382812 541.4375 L 384.058594 541.4375 L 384.058594 563.71875 L 400.382812 563.71875 L 400.382812 559.984375 L 396.660156 559.984375 "/>
<path style=" stroke:none;fill-rule:nonzero;fill:rgb(10.198975%,14.509583%,13.729858%);fill-opacity:1;" d="M 402.8125 610.769531 L 402.8125 607.03125 L 385.371094 607.03125 L 385.371094 563.71875 L 399.082031 563.71875 L 399.082031 610.769531 L 402.8125 610.769531 L 402.8125 607.03125 L 402.8125 610.769531 L 406.546875 610.769531 L 406.546875 556.246094 L 377.894531 556.246094 L 377.894531 614.503906 L 406.546875 614.503906 L 406.546875 610.769531 L 402.8125 610.769531 "/>
<path style=" stroke:none;fill-rule:nonzero;fill:rgb(95.689392%,43.528748%,24.708557%);fill-opacity:1;" d="M 334.671875 713.535156 C 334.671875 764.019531 293.769531 804.949219 243.320312 804.949219 C 192.863281 804.949219 151.960938 764.019531 151.960938 713.535156 C 151.960938 663.050781 192.863281 622.121094 243.320312 622.121094 C 293.769531 622.121094 334.671875 663.050781 334.671875 713.535156 "/>
<path style=" stroke:none;fill-rule:nonzero;fill:rgb(10.198975%,14.509583%,13.729858%);fill-opacity:1;" d="M 243.320312 663.097656 L 243.320312 659.363281 C 226.597656 659.375 211.382812 664.636719 200.210938 673.34375 C 194.632812 677.703125 190.050781 682.9375 186.863281 688.824219 C 183.664062 694.707031 181.875 701.265625 181.875 708.136719 C 181.875 721.132812 188.292969 732.855469 198.382812 741.417969 L 200.804688 738.566406 L 197.21875 737.527344 L 187.875 769.671875 L 231.742188 755.601562 L 230.605469 752.042969 L 229.953125 755.730469 C 234.257812 756.476562 238.722656 756.894531 243.320312 756.894531 C 260.042969 756.886719 275.25 751.625 286.417969 742.914062 C 292 738.558594 296.578125 733.332031 299.769531 727.4375 C 302.964844 721.550781 304.753906 714.992188 304.753906 708.136719 C 304.753906 701.265625 302.964844 694.707031 299.769531 688.824219 C 294.976562 679.988281 287.089844 672.644531 277.320312 667.488281 C 267.546875 662.339844 255.863281 659.375 243.320312 659.363281 L 243.320312 666.835938 C 258.46875 666.835938 272.117188 671.652344 281.832031 679.238281 C 286.679688 683.035156 290.5625 687.5 293.207031 692.382812 C 295.851562 697.277344 297.289062 702.558594 297.289062 708.136719 C 297.289062 713.699219 295.851562 718.984375 293.207031 723.875 C 289.238281 731.203125 282.492188 737.605469 273.839844 742.167969 C 265.195312 746.71875 254.675781 749.425781 243.320312 749.425781 C 239.167969 749.425781 235.132812 749.046875 231.246094 748.363281 L 230.339844 748.207031 L 198.96875 758.269531 L 205.0625 737.292969 L 203.214844 735.726562 C 194.457031 728.253906 189.34375 718.601562 189.34375 708.136719 C 189.34375 702.558594 190.78125 697.277344 193.425781 692.382812 C 197.390625 685.058594 204.140625 678.65625 212.792969 674.101562 C 221.433594 669.539062 231.953125 666.835938 243.320312 666.835938 L 243.320312 663.097656 "/>
<path style=" stroke:none;fill-rule:nonzero;fill:rgb(10.198975%,14.509583%,13.729858%);fill-opacity:1;" d="M 210.441406 696.664062 L 276.191406 696.664062 L 276.191406 689.191406 L 210.441406 689.191406 Z M 210.441406 696.664062 "/>
<path style=" stroke:none;fill-rule:nonzero;fill:rgb(10.198975%,14.509583%,13.729858%);fill-opacity:1;" d="M 210.441406 712.96875 L 276.191406 712.96875 L 276.191406 705.5 L 210.441406 705.5 Z M 210.441406 712.96875 "/>
<path style=" stroke:none;fill-rule:nonzero;fill:rgb(10.198975%,14.509583%,13.729858%);fill-opacity:1;" d="M 210.441406 729.277344 L 276.191406 729.277344 L 276.191406 721.804688 L 210.441406 721.804688 Z M 210.441406 729.277344 "/>
<path style=" stroke:none;fill-rule:nonzero;fill:rgb(23.139954%,74.508667%,77.249146%);fill-opacity:1;" d="M 1143.738281 713.535156 C 1143.738281 764.019531 1102.828125 804.949219 1052.386719 804.949219 C 1001.929688 804.949219 961.035156 764.019531 961.035156 713.535156 C 961.035156 663.050781 1001.929688 622.121094 1052.386719 622.121094 C 1102.828125 622.121094 1143.738281 663.050781 1143.738281 713.535156 "/>
<path style=" stroke:none;fill-rule:nonzero;fill:rgb(10.198975%,14.509583%,13.729858%);fill-opacity:1;" d="M 1111.082031 713.535156 L 1107.335938 713.535156 C 1107.335938 728.730469 1101.191406 742.457031 1091.246094 752.429688 C 1081.28125 762.382812 1067.574219 768.53125 1052.386719 768.53125 C 1037.191406 768.53125 1023.472656 762.382812 1013.519531 752.429688 C 1003.5625 742.457031 997.417969 728.730469 997.417969 713.535156 C 997.417969 698.335938 1003.5625 684.609375 1013.519531 674.648438 C 1023.472656 664.683594 1037.191406 658.535156 1052.386719 658.535156 C 1067.574219 658.535156 1081.28125 664.683594 1091.246094 674.648438 C 1101.191406 684.609375 1107.335938 698.335938 1107.335938 713.535156 L 1114.8125 713.535156 C 1114.804688 679.035156 1086.863281 651.066406 1052.386719 651.066406 C 1017.902344 651.066406 989.949219 679.035156 989.949219 713.535156 C 989.949219 748.042969 1017.902344 776.003906 1052.386719 776.003906 C 1086.863281 776.003906 1114.804688 748.042969 1114.8125 713.535156 L 1111.082031 713.535156 "/>
<path style=" stroke:none;fill-rule:nonzero;fill:rgb(10.198975%,14.509583%,13.729858%);fill-opacity:1;" d="M 1074.808594 713.535156 L 1071.074219 713.535156 C 1071.082031 729.363281 1068.59375 743.695312 1064.753906 753.734375 C 1062.839844 758.753906 1060.582031 762.683594 1058.335938 765.144531 C 1057.21875 766.390625 1056.128906 767.257812 1055.140625 767.78125 C 1054.136719 768.316406 1053.261719 768.53125 1052.386719 768.53125 C 1051.503906 768.53125 1050.628906 768.316406 1049.625 767.78125 C 1047.886719 766.867188 1045.84375 764.863281 1043.910156 761.78125 C 1041.003906 757.167969 1038.386719 750.28125 1036.578125 741.972656 C 1034.75 733.664062 1033.691406 723.925781 1033.691406 713.535156 C 1033.683594 697.707031 1036.171875 683.382812 1040.011719 673.335938 C 1041.925781 668.3125 1044.191406 664.382812 1046.425781 661.921875 C 1047.535156 660.6875 1048.632812 659.820312 1049.625 659.285156 C 1050.628906 658.761719 1051.503906 658.535156 1052.386719 658.535156 C 1053.261719 658.535156 1054.136719 658.761719 1055.140625 659.285156 C 1056.878906 660.199219 1058.921875 662.203125 1060.847656 665.289062 C 1063.753906 669.898438 1066.378906 676.796875 1068.1875 685.105469 C 1070.015625 693.414062 1071.074219 703.144531 1071.074219 713.535156 L 1078.539062 713.535156 C 1078.53125 696.925781 1075.992188 681.886719 1071.726562 670.667969 C 1069.578125 665.066406 1067.007812 660.394531 1063.878906 656.910156 C 1062.3125 655.179688 1060.59375 653.742188 1058.667969 652.699219 C 1056.742188 651.667969 1054.59375 651.066406 1052.386719 651.066406 C 1050.171875 651.066406 1048.023438 651.667969 1046.097656 652.699219 C 1042.734375 654.527344 1039.980469 657.535156 1037.589844 661.320312 C 1034.03125 667.011719 1031.25 674.589844 1029.289062 683.5 C 1027.324219 692.402344 1026.226562 702.636719 1026.226562 713.535156 C 1026.234375 730.152344 1028.773438 745.191406 1033.039062 756.398438 C 1035.1875 762.015625 1037.753906 766.683594 1040.886719 770.15625 C 1042.453125 771.886719 1044.171875 773.339844 1046.097656 774.371094 C 1048.023438 775.402344 1050.171875 776.011719 1052.386719 776.003906 C 1054.59375 776.011719 1056.742188 775.402344 1058.660156 774.371094 C 1062.03125 772.550781 1064.785156 769.542969 1067.164062 765.757812 C 1070.734375 760.066406 1073.515625 752.480469 1075.476562 743.566406 C 1077.433594 734.664062 1078.539062 724.429688 1078.539062 713.535156 L 1074.808594 713.535156 "/>
<path style=" stroke:none;fill-rule:nonzero;fill:rgb(10.198975%,14.509583%,13.729858%);fill-opacity:1;" d="M 993.683594 717.269531 L 1114.949219 717.269531 L 1114.949219 709.796875 L 993.683594 709.796875 Z M 993.683594 717.269531 "/>
<path style=" stroke:none;fill-rule:nonzero;fill:rgb(10.198975%,14.509583%,13.729858%);fill-opacity:1;" d="M 1088.921875 668.519531 C 1081.679688 681.234375 1068.039062 689.804688 1052.386719 689.804688 C 1036.714844 689.804688 1023.085938 681.234375 1015.839844 668.519531 L 1009.355469 672.214844 C 1017.855469 687.167969 1033.945312 697.277344 1052.386719 697.277344 C 1070.820312 697.277344 1086.910156 687.179688 1095.410156 672.214844 L 1088.921875 668.519531 "/>
<path style=" stroke:none;fill-rule:nonzero;fill:rgb(10.198975%,14.509583%,13.729858%);fill-opacity:1;" d="M 1015.839844 758.558594 C 1023.085938 745.835938 1036.714844 737.261719 1052.386719 737.261719 C 1068.039062 737.261719 1081.679688 745.835938 1088.921875 758.558594 L 1095.417969 754.851562 C 1086.910156 739.898438 1070.820312 729.792969 1052.386719 729.792969 C 1033.945312 729.792969 1017.855469 739.898438 1009.355469 754.851562 L 1015.839844 758.558594 "/>
</g>
</svg>
