<?xml version="1.0" encoding="UTF-8"?>
<svg xmlns="http://www.w3.org/2000/svg" xmlns:xlink="http://www.w3.org/1999/xlink" width="375pt" height="374.999991pt" viewBox="0 0 375 374.999991" version="1.2">
<defs>
<clipPath id="clip1">
  <path d="M 71 49.632812 L 305.0625 49.632812 L 305.0625 325.632812 L 71 325.632812 Z M 71 49.632812 "/>
</clipPath>
</defs>
<g id="surface1">
<g clip-path="url(#clip1)" clip-rule="nonzero">
<path style=" stroke:none;fill-rule:nonzero;fill:rgb(100%,100%,100%);fill-opacity:1;" d="M 151.335938 49.671875 C 142.765625 49.671875 133.722656 52.375 127.648438 54.648438 C 121.113281 57.097656 116.71875 63.460938 116.71875 70.476562 C 116.71875 79.824219 124.3125 87.410156 133.644531 87.410156 L 134.878906 87.410156 C 145.507812 87.410156 157.371094 102.898438 166.625 128.835938 C 169.816406 137.785156 169.269531 147.941406 165.128906 156.699219 L 94.679688 305.710938 C 92.640625 310.023438 92.949219 314.992188 95.5 319.015625 C 98.046875 323.046875 102.414062 325.445312 107.179688 325.445312 L 119.738281 325.445312 C 126.921875 325.445312 133.503906 321.230469 136.5 314.707031 L 189.3125 199.757812 L 190.503906 203.339844 L 216.039062 283.441406 C 226.507812 313.726562 242.496094 325.445312 273.113281 325.445312 C 281.710938 325.445312 289.605469 322.820312 294.714844 320.609375 C 300.988281 317.90625 305.046875 311.730469 305.046875 304.875 C 305.046875 295.398438 297.34375 287.707031 287.886719 287.707031 L 286.742188 287.707031 C 277.082031 287.707031 274.902344 287.308594 271.042969 275.878906 L 223.398438 124.398438 C 223.359375 124.261719 223.304688 124.128906 223.253906 123.992188 C 203.152344 69.140625 189.265625 49.671875 151.335938 49.671875 Z M 151.335938 58.882812 C 183.011719 58.882812 194.699219 72.882812 214.589844 127.164062 L 262.296875 278.832031 C 267.425781 294.007812 273.085938 296.925781 286.742188 296.925781 L 287.886719 296.925781 C 292.269531 296.925781 295.8125 300.46875 295.8125 304.847656 L 295.8125 304.875 L 295.824219 304.875 C 295.824219 308.035156 293.957031 310.894531 291.058594 312.148438 C 286.800781 313.988281 280.164062 316.226562 273.113281 316.226562 C 246.40625 316.226562 233.914062 306.902344 224.832031 280.640625 L 199.25 200.421875 L 198.0625 196.847656 C 196.671875 192.6875 192.992188 190.539062 189.296875 190.539062 C 185.949219 190.539062 182.589844 192.300781 180.929688 195.914062 L 128.125 310.863281 C 126.621094 314.132812 123.347656 316.226562 119.746094 316.226562 L 107.179688 316.226562 C 103.796875 316.226562 101.570312 312.703125 103.019531 309.644531 L 173.46875 160.632812 C 178.644531 149.691406 179.378906 137.140625 175.316406 125.742188 C 168.304688 106.09375 154.835938 78.183594 134.878906 78.183594 L 133.644531 78.183594 C 129.394531 78.183594 125.945312 74.734375 125.945312 70.484375 L 125.945312 70.46875 C 125.945312 67.28125 127.898438 64.402344 130.878906 63.285156 C 135.917969 61.398438 144.007812 58.882812 151.335938 58.882812 Z M 196.59375 113.363281 C 195.996094 113.304688 195.375 113.359375 194.765625 113.550781 C 192.332031 114.316406 190.984375 116.90625 191.746094 119.332031 L 196.078125 133.09375 C 196.703125 135.0625 198.511719 136.316406 200.476562 136.316406 C 200.929688 136.316406 201.402344 136.253906 201.863281 136.109375 C 204.292969 135.347656 205.640625 132.757812 204.878906 130.332031 L 200.546875 116.566406 C 199.972656 114.753906 198.382812 113.535156 196.59375 113.363281 Z M 144.03125 137.027344 C 142.234375 136.964844 140.5 137.964844 139.699219 139.695312 C 138.625 142.003906 139.613281 144.746094 141.925781 145.816406 L 150.285156 149.703125 C 150.914062 149.996094 151.578125 150.136719 152.230469 150.136719 C 153.96875 150.136719 155.628906 149.148438 156.410156 147.472656 C 157.484375 145.164062 156.484375 142.417969 154.175781 141.351562 L 145.816406 137.460938 C 145.234375 137.191406 144.632812 137.050781 144.03125 137.027344 Z M 207.421875 147.796875 C 206.824219 147.738281 206.210938 147.800781 205.601562 147.992188 C 203.167969 148.757812 201.820312 151.347656 202.582031 153.773438 L 230.894531 243.796875 C 231.515625 245.761719 233.335938 247.019531 235.300781 247.019531 C 235.753906 247.019531 236.214844 246.953125 236.675781 246.8125 C 239.109375 246.046875 240.457031 243.457031 239.695312 241.03125 L 211.382812 151.007812 C 210.808594 149.195312 209.210938 147.96875 207.421875 147.796875 Z M 134.304688 157.921875 C 132.503906 157.859375 130.765625 158.859375 129.960938 160.589844 C 128.886719 162.898438 129.886719 165.640625 132.195312 166.710938 L 140.554688 170.597656 C 141.1875 170.890625 141.851562 171.03125 142.5 171.03125 C 144.238281 171.03125 145.902344 170.042969 146.679688 168.367188 C 147.753906 166.058594 146.757812 163.3125 144.445312 162.246094 L 136.085938 158.355469 C 135.507812 158.085938 134.902344 157.945312 134.304688 157.921875 Z M 124.566406 178.816406 C 122.769531 178.753906 121.035156 179.757812 120.226562 181.492188 C 119.15625 183.800781 120.160156 186.539062 122.46875 187.613281 L 130.828125 191.5 C 131.457031 191.792969 132.121094 191.925781 132.773438 191.925781 C 134.511719 191.925781 136.167969 190.9375 136.953125 189.261719 C 138.023438 186.949219 137.023438 184.210938 134.71875 183.136719 L 126.359375 179.25 C 125.777344 178.980469 125.164062 178.839844 124.566406 178.816406 Z M 114.847656 199.71875 C 113.046875 199.65625 111.304688 200.65625 110.503906 202.386719 C 109.425781 204.695312 110.429688 207.4375 112.738281 208.507812 L 121.097656 212.394531 C 121.730469 212.6875 122.394531 212.828125 123.042969 212.828125 C 124.78125 212.828125 126.445312 211.839844 127.222656 210.164062 C 128.296875 207.855469 127.300781 205.109375 124.988281 204.042969 L 116.628906 200.152344 C 116.050781 199.882812 115.445312 199.742188 114.847656 199.71875 Z M 105.128906 220.613281 C 103.332031 220.550781 101.589844 221.542969 100.785156 223.269531 C 99.707031 225.578125 100.710938 228.324219 103.019531 229.390625 L 111.371094 233.289062 C 112 233.578125 112.664062 233.722656 113.316406 233.722656 C 115.054688 233.722656 116.714844 232.734375 117.496094 231.058594 C 118.570312 228.746094 117.570312 226.003906 115.261719 224.9375 L 106.910156 221.046875 C 106.332031 220.777344 105.726562 220.636719 105.128906 220.613281 Z M 95.390625 241.507812 C 93.589844 241.445312 91.847656 242.4375 91.046875 244.164062 C 89.972656 246.472656 90.972656 249.214844 93.28125 250.285156 L 101.652344 254.175781 C 102.28125 254.464844 102.9375 254.617188 103.585938 254.617188 C 105.324219 254.617188 106.988281 253.628906 107.765625 251.949219 C 108.839844 249.640625 107.851562 246.898438 105.542969 245.828125 L 97.171875 241.941406 C 96.59375 241.671875 95.988281 241.53125 95.390625 241.507812 Z M 85.671875 262.402344 C 83.871094 262.339844 82.132812 263.328125 81.328125 265.058594 C 80.253906 267.367188 81.253906 270.109375 83.5625 271.179688 L 91.921875 275.070312 C 92.554688 275.359375 93.21875 275.5 93.867188 275.5 C 95.601562 275.5 97.269531 274.523438 98.046875 272.84375 C 99.121094 270.535156 98.125 267.792969 95.8125 266.722656 L 87.453125 262.824219 C 86.875 262.558594 86.269531 262.421875 85.671875 262.402344 Z M 75.933594 283.296875 C 74.132812 283.234375 72.398438 284.234375 71.589844 285.960938 C 70.523438 288.269531 71.527344 291.007812 73.835938 292.082031 L 82.195312 295.972656 C 82.824219 296.261719 83.480469 296.394531 84.128906 296.394531 C 85.871094 296.394531 87.535156 295.40625 88.320312 293.730469 C 89.394531 291.421875 88.390625 288.683594 86.085938 287.609375 L 77.726562 283.71875 C 77.144531 283.453125 76.53125 283.316406 75.933594 283.296875 Z M 75.933594 283.296875 "/>
</g>
</g>
</svg>
