<?xml version="1.0" encoding="UTF-8"?>
<svg xmlns="http://www.w3.org/2000/svg" xmlns:xlink="http://www.w3.org/1999/xlink" width="375pt" height="374.999991pt" viewBox="0 0 375 374.999991" version="1.2">
<defs>
<clipPath id="clip1">
  <path d="M 71 49.632812 L 305.0625 49.632812 L 305.0625 325.632812 L 71 325.632812 Z M 71 49.632812 "/>
</clipPath>
</defs>
<g id="surface1">
<g clip-path="url(#clip1)" clip-rule="nonzero">
<path style=" stroke:none;fill-rule:nonzero;fill:rgb(0%,0%,0%);fill-opacity:1;" d="M 151.46875 49.671875 C 142.878906 49.671875 133.824219 52.375 127.738281 54.65625 C 121.191406 57.105469 116.792969 63.472656 116.792969 70.496094 C 116.792969 79.851562 124.398438 87.445312 133.746094 87.445312 L 134.984375 87.445312 C 145.625 87.445312 157.511719 102.949219 166.777344 128.914062 C 169.972656 137.871094 169.429688 148.039062 165.28125 156.804688 L 94.71875 305.960938 C 92.675781 310.277344 92.984375 315.253906 95.539062 319.28125 C 98.09375 323.3125 102.464844 325.714844 107.242188 325.714844 L 119.816406 325.714844 C 127.015625 325.714844 133.605469 321.496094 136.609375 314.964844 L 189.503906 199.902344 L 190.695312 203.488281 L 216.273438 283.667969 C 226.757812 313.984375 242.769531 325.714844 273.4375 325.714844 C 282.046875 325.714844 289.957031 323.085938 295.074219 320.875 C 301.355469 318.167969 305.421875 311.984375 305.421875 305.125 C 305.421875 295.640625 297.707031 287.941406 288.234375 287.941406 L 287.089844 287.941406 C 277.410156 287.941406 275.230469 287.542969 271.363281 276.101562 L 223.644531 124.472656 C 223.601562 124.332031 223.550781 124.199219 223.5 124.066406 C 203.363281 69.160156 189.457031 49.671875 151.46875 49.671875 Z M 151.46875 58.890625 C 183.191406 58.890625 194.898438 72.902344 214.820312 127.238281 L 262.601562 279.054688 C 267.738281 294.25 273.410156 297.167969 287.089844 297.167969 L 288.234375 297.167969 C 292.621094 297.167969 296.175781 300.714844 296.175781 305.097656 L 296.175781 305.125 L 296.183594 305.125 C 296.183594 308.289062 294.316406 311.152344 291.410156 312.40625 C 287.148438 314.246094 280.5 316.488281 273.4375 316.488281 C 246.6875 316.488281 234.175781 307.15625 225.078125 280.867188 L 199.457031 200.570312 L 198.265625 196.992188 C 196.875 192.828125 193.1875 190.675781 189.488281 190.675781 C 186.132812 190.675781 182.769531 192.4375 181.105469 196.054688 L 128.21875 311.117188 C 126.710938 314.390625 123.433594 316.488281 119.828125 316.488281 L 107.242188 316.488281 C 103.851562 316.488281 101.621094 312.960938 103.070312 309.898438 L 173.632812 160.742188 C 178.816406 149.789062 179.554688 137.222656 175.484375 125.816406 C 168.460938 106.148438 154.972656 78.210938 134.984375 78.210938 L 133.746094 78.210938 C 129.488281 78.210938 126.035156 74.757812 126.035156 70.503906 L 126.035156 70.488281 C 126.035156 67.300781 127.988281 64.417969 130.976562 63.296875 C 136.023438 61.410156 144.128906 58.890625 151.46875 58.890625 Z M 196.792969 113.425781 C 196.195312 113.367188 195.574219 113.421875 194.964844 113.613281 C 192.527344 114.378906 191.179688 116.972656 191.941406 119.398438 L 196.28125 133.175781 C 196.902344 135.148438 198.714844 136.402344 200.683594 136.402344 C 201.140625 136.402344 201.609375 136.339844 202.074219 136.195312 C 204.507812 135.429688 205.855469 132.835938 205.09375 130.410156 L 200.753906 116.632812 C 200.179688 114.816406 198.585938 113.597656 196.792969 113.425781 Z M 144.148438 137.113281 C 142.347656 137.050781 140.613281 138.050781 139.808594 139.78125 C 138.734375 142.09375 139.726562 144.839844 142.039062 145.910156 L 150.410156 149.800781 C 151.042969 150.09375 151.710938 150.234375 152.359375 150.234375 C 154.101562 150.234375 155.765625 149.246094 156.546875 147.566406 C 157.621094 145.257812 156.625 142.511719 154.308594 141.441406 L 145.9375 137.546875 C 145.355469 137.277344 144.75 137.136719 144.148438 137.113281 Z M 207.640625 147.890625 C 207.042969 147.835938 206.425781 147.898438 205.816406 148.089844 C 203.382812 148.855469 202.03125 151.449219 202.792969 153.875 L 231.152344 243.984375 C 231.773438 245.953125 233.59375 247.210938 235.5625 247.210938 C 236.019531 247.210938 236.480469 247.148438 236.945312 247.003906 C 239.378906 246.238281 240.726562 243.644531 239.964844 241.21875 L 211.609375 151.109375 C 211.035156 149.292969 209.433594 148.0625 207.640625 147.890625 Z M 134.40625 158.027344 C 132.605469 157.964844 130.859375 158.964844 130.058594 160.695312 C 128.980469 163.007812 129.980469 165.753906 132.296875 166.824219 L 140.667969 170.714844 C 141.300781 171.007812 141.964844 171.148438 142.617188 171.148438 C 144.359375 171.148438 146.023438 170.160156 146.800781 168.480469 C 147.878906 166.171875 146.878906 163.425781 144.566406 162.355469 L 136.191406 158.460938 C 135.609375 158.191406 135.007812 158.050781 134.40625 158.027344 Z M 124.652344 178.945312 C 122.851562 178.878906 121.113281 179.886719 120.304688 181.621094 C 119.234375 183.929688 120.242188 186.671875 122.550781 187.746094 L 130.921875 191.640625 C 131.554688 191.929688 132.222656 192.0625 132.871094 192.0625 C 134.613281 192.0625 136.273438 191.074219 137.058594 189.394531 C 138.128906 187.085938 137.132812 184.34375 134.820312 183.269531 L 126.449219 179.375 C 125.867188 179.105469 125.253906 178.964844 124.652344 178.945312 Z M 114.917969 199.867188 C 113.117188 199.804688 111.371094 200.804688 110.570312 202.535156 C 109.488281 204.847656 110.492188 207.589844 112.808594 208.660156 L 121.179688 212.554688 C 121.8125 212.84375 122.476562 212.988281 123.128906 212.988281 C 124.871094 212.988281 126.535156 212 127.316406 210.320312 C 128.390625 208.007812 127.390625 205.261719 125.078125 204.191406 L 116.703125 200.300781 C 116.125 200.03125 115.519531 199.886719 114.917969 199.867188 Z M 105.183594 220.78125 C 103.382812 220.71875 101.636719 221.710938 100.835938 223.441406 C 99.753906 225.75 100.757812 228.496094 103.070312 229.566406 L 111.4375 233.46875 C 112.070312 233.761719 112.734375 233.902344 113.382812 233.902344 C 115.125 233.902344 116.789062 232.914062 117.570312 231.234375 C 118.648438 228.921875 117.648438 226.175781 115.332031 225.105469 L 106.96875 221.214844 C 106.390625 220.945312 105.785156 220.804688 105.183594 220.78125 Z M 95.429688 241.695312 C 93.628906 241.632812 91.882812 242.625 91.082031 244.355469 C 90.003906 246.664062 91.003906 249.410156 93.320312 250.480469 L 101.699219 254.375 C 102.332031 254.664062 102.988281 254.816406 103.640625 254.816406 C 105.382812 254.816406 107.046875 253.828125 107.828125 252.148438 C 108.902344 249.835938 107.914062 247.09375 105.597656 246.019531 L 97.214844 242.128906 C 96.636719 241.859375 96.03125 241.71875 95.429688 241.695312 Z M 85.695312 262.609375 C 83.894531 262.546875 82.152344 263.539062 81.347656 265.269531 C 80.269531 267.582031 81.269531 270.324219 83.585938 271.394531 L 91.957031 275.289062 C 92.589844 275.578125 93.253906 275.722656 93.90625 275.722656 C 95.640625 275.722656 97.3125 274.742188 98.09375 273.0625 C 99.167969 270.753906 98.167969 268.007812 95.855469 266.9375 L 87.480469 263.035156 C 86.902344 262.765625 86.296875 262.632812 85.695312 262.609375 Z M 75.941406 283.523438 C 74.140625 283.460938 72.402344 284.460938 71.59375 286.191406 C 70.523438 288.503906 71.53125 291.246094 73.839844 292.320312 L 82.210938 296.210938 C 82.84375 296.503906 83.5 296.636719 84.152344 296.636719 C 85.894531 296.636719 87.5625 295.648438 88.347656 293.96875 C 89.425781 291.65625 88.421875 288.917969 86.109375 287.839844 L 77.738281 283.949219 C 77.15625 283.679688 76.542969 283.546875 75.941406 283.523438 Z M 75.941406 283.523438 "/>
</g>
</g>
</svg>
