<?xml version="1.0" encoding="UTF-8"?>
<svg xmlns="http://www.w3.org/2000/svg" xmlns:xlink="http://www.w3.org/1999/xlink" width="375pt" height="374.999991pt" viewBox="0 0 375 374.999991" version="1.2">
<defs>
<clipPath id="clip1">
  <path d="M 81 241 L 103 241 L 103 283.875 L 81 283.875 Z M 81 241 "/>
</clipPath>
<clipPath id="clip2">
  <path d="M 38 91.125 L 337 91.125 L 337 201 L 38 201 Z M 38 91.125 "/>
</clipPath>
</defs>
<g id="surface1">
<path style=" stroke:none;fill-rule:nonzero;fill:rgb(100%,100%,100%);fill-opacity:1;" d="M 96.585938 242.785156 C 96.585938 242.785156 99.449219 244.582031 97.589844 256.109375 C 95.730469 267.636719 101.28125 281.058594 101.28125 281.058594 C 101.28125 281.058594 96.585938 282.75 91.78125 282.75 C 86.972656 282.75 82.28125 281.058594 82.28125 281.058594 C 82.28125 281.058594 87.828125 267.636719 85.96875 256.109375 C 84.109375 244.582031 86.972656 242.785156 86.972656 242.785156 L 96.585938 242.785156 "/>
<g clip-path="url(#clip1)" clip-rule="nonzero">
<path style=" stroke:none;fill-rule:nonzero;fill:rgb(13.729858%,12.159729%,12.548828%);fill-opacity:1;" d="M 96.585938 242.785156 L 95.996094 243.726562 L 96.277344 243.277344 L 95.929688 243.679688 L 95.996094 243.726562 L 96.277344 243.277344 L 95.929688 243.679688 C 95.929688 243.683594 96.210938 243.914062 96.511719 244.738281 C 96.804688 245.5625 97.109375 246.976562 97.109375 249.269531 C 97.109375 250.972656 96.945312 253.15625 96.492188 255.933594 C 96.214844 257.652344 96.097656 259.40625 96.097656 261.140625 C 96.097656 266.324219 97.140625 271.382812 98.171875 275.167969 C 99.207031 278.953125 100.238281 281.453125 100.253906 281.484375 L 101.28125 281.058594 L 100.90625 280.015625 L 100.894531 280.019531 C 100.785156 280.058594 99.613281 280.464844 97.914062 280.863281 C 96.210938 281.261719 93.980469 281.640625 91.78125 281.640625 C 89.503906 281.640625 87.203125 281.234375 85.484375 280.824219 C 84.625 280.621094 83.910156 280.414062 83.414062 280.261719 C 83.167969 280.1875 82.976562 280.121094 82.84375 280.078125 L 82.699219 280.03125 L 82.664062 280.019531 L 82.65625 280.015625 L 82.28125 281.058594 L 83.304688 281.484375 C 83.320312 281.453125 84.351562 278.953125 85.382812 275.167969 C 86.417969 271.386719 87.457031 266.328125 87.460938 261.144531 C 87.460938 259.410156 87.339844 257.65625 87.0625 255.933594 C 86.617188 253.15625 86.449219 250.972656 86.449219 249.273438 C 86.449219 246.652344 86.84375 245.179688 87.171875 244.421875 C 87.339844 244.042969 87.484375 243.839844 87.566406 243.746094 L 87.628906 243.679688 L 87.28125 243.277344 L 87.5625 243.726562 L 87.628906 243.679688 L 87.28125 243.277344 L 87.5625 243.726562 L 86.972656 242.785156 L 86.972656 243.894531 L 96.585938 243.894531 L 96.585938 242.785156 L 95.996094 243.726562 L 96.585938 242.785156 L 96.585938 241.675781 L 86.972656 241.675781 C 86.761719 241.675781 86.5625 241.734375 86.382812 241.84375 C 86.191406 241.960938 85.621094 242.417969 85.136719 243.539062 C 84.652344 244.660156 84.230469 246.429688 84.230469 249.273438 C 84.230469 251.117188 84.410156 253.414062 84.871094 256.285156 C 85.125 257.871094 85.238281 259.507812 85.238281 261.144531 C 85.238281 266.03125 84.246094 270.925781 83.242188 274.585938 C 82.742188 276.414062 82.242188 277.933594 81.867188 278.996094 C 81.683594 279.523438 81.527344 279.9375 81.417969 280.21875 C 81.363281 280.355469 81.320312 280.464844 81.296875 280.53125 L 81.261719 280.613281 L 81.253906 280.632812 C 81.136719 280.917969 81.140625 281.230469 81.261719 281.507812 C 81.386719 281.789062 81.617188 282 81.902344 282.101562 C 81.929688 282.113281 83.140625 282.546875 84.96875 282.984375 C 86.800781 283.421875 89.246094 283.859375 91.78125 283.859375 C 94.3125 283.859375 96.757812 283.421875 98.589844 282.984375 C 100.417969 282.546875 101.628906 282.113281 101.65625 282.101562 C 101.941406 282 102.171875 281.789062 102.296875 281.507812 C 102.421875 281.230469 102.421875 280.917969 102.308594 280.632812 L 102.296875 280.613281 C 102.1875 280.351562 101.191406 277.855469 100.222656 274.234375 C 99.253906 270.617188 98.316406 265.875 98.320312 261.140625 C 98.320312 259.503906 98.429688 257.871094 98.6875 256.285156 C 99.148438 253.414062 99.328125 251.117188 99.328125 249.269531 C 99.328125 246.429688 98.90625 244.660156 98.417969 243.539062 C 97.933594 242.414062 97.367188 241.960938 97.175781 241.84375 C 96.996094 241.730469 96.796875 241.675781 96.585938 241.675781 L 96.585938 242.785156 "/>
</g>
<path style=" stroke:none;fill-rule:nonzero;fill:rgb(100%,100%,100%);fill-opacity:1;" d="M 91.703125 211.160156 C 89.78125 211.160156 88.222656 210.714844 88.222656 210.164062 L 88.222656 227.636719 C 88.222656 228.191406 89.78125 228.632812 91.703125 228.632812 C 93.621094 228.632812 95.175781 228.191406 95.175781 227.636719 L 95.175781 210.164062 C 95.175781 210.714844 93.621094 211.160156 91.703125 211.160156 "/>
<path style=" stroke:none;fill-rule:nonzero;fill:rgb(13.729858%,12.159729%,12.548828%);fill-opacity:1;" d="M 91.703125 211.160156 L 91.703125 210.050781 C 90.828125 210.050781 90.039062 209.945312 89.546875 209.800781 C 89.308594 209.734375 89.144531 209.648438 89.121094 209.632812 L 88.839844 209.992188 L 89.21875 209.753906 C 89.164062 209.667969 89.125 209.636719 89.121094 209.632812 L 88.839844 209.992188 L 89.21875 209.753906 L 88.5625 210.164062 L 89.332031 210.164062 C 89.335938 209.992188 89.277344 209.835938 89.21875 209.753906 L 88.5625 210.164062 L 89.332031 210.164062 C 89.332031 209.871094 89.21875 209.585938 89.007812 209.378906 C 88.804688 209.171875 88.519531 209.054688 88.222656 209.054688 C 87.929688 209.054688 87.648438 209.171875 87.441406 209.378906 C 87.234375 209.585938 87.113281 209.871094 87.113281 210.164062 L 87.113281 227.636719 C 87.113281 227.972656 87.238281 228.277344 87.390625 228.484375 C 87.660156 228.847656 87.957031 229.011719 88.253906 229.160156 C 88.707031 229.367188 89.210938 229.503906 89.789062 229.597656 C 90.367188 229.691406 91.015625 229.742188 91.703125 229.742188 C 92.75 229.742188 93.695312 229.628906 94.460938 229.410156 C 94.851562 229.296875 95.195312 229.167969 95.527344 228.945312 C 95.691406 228.832031 95.859375 228.695312 96.011719 228.484375 C 96.164062 228.277344 96.289062 227.972656 96.289062 227.636719 L 96.289062 210.164062 C 96.289062 209.871094 96.167969 209.585938 95.964844 209.378906 C 95.753906 209.171875 95.46875 209.054688 95.175781 209.054688 C 94.886719 209.054688 94.597656 209.171875 94.394531 209.378906 C 94.183594 209.585938 94.066406 209.871094 94.066406 210.164062 L 94.828125 210.164062 L 94.203125 209.71875 C 94.148438 209.792969 94.066406 209.964844 94.066406 210.164062 L 94.828125 210.164062 L 94.203125 209.71875 L 94.503906 209.933594 L 94.285156 209.628906 C 94.285156 209.632812 94.253906 209.648438 94.203125 209.71875 L 94.503906 209.933594 L 94.285156 209.628906 C 94.285156 209.636719 94.191406 209.6875 94.046875 209.738281 C 93.601562 209.902344 92.699219 210.054688 91.703125 210.050781 L 91.703125 212.273438 C 92.75 212.269531 93.695312 212.152344 94.464844 211.9375 C 94.851562 211.824219 95.199219 211.691406 95.527344 211.472656 C 95.691406 211.359375 95.859375 211.21875 96.011719 211.011719 C 96.160156 210.804688 96.289062 210.503906 96.289062 210.164062 C 96.289062 209.871094 96.167969 209.585938 95.964844 209.378906 C 95.753906 209.171875 95.46875 209.054688 95.175781 209.054688 C 94.886719 209.054688 94.597656 209.171875 94.394531 209.378906 C 94.183594 209.585938 94.066406 209.871094 94.066406 210.164062 L 94.066406 227.636719 L 94.824219 227.636719 L 94.203125 227.195312 C 94.144531 227.269531 94.066406 227.441406 94.066406 227.636719 L 94.824219 227.636719 L 94.203125 227.195312 L 94.503906 227.410156 L 94.285156 227.105469 C 94.285156 227.109375 94.253906 227.125 94.203125 227.195312 L 94.503906 227.410156 L 94.285156 227.105469 C 94.285156 227.109375 94.195312 227.164062 94.046875 227.214844 C 93.605469 227.375 92.703125 227.527344 91.703125 227.523438 C 90.828125 227.523438 90.035156 227.417969 89.546875 227.277344 C 89.308594 227.210938 89.140625 227.125 89.121094 227.109375 L 88.839844 227.464844 L 89.222656 227.230469 C 89.167969 227.144531 89.128906 227.113281 89.121094 227.109375 L 88.839844 227.464844 L 89.222656 227.230469 L 88.5625 227.636719 L 89.332031 227.636719 C 89.335938 227.464844 89.277344 227.308594 89.222656 227.230469 L 88.5625 227.636719 L 89.332031 227.636719 L 89.332031 210.164062 C 89.332031 209.871094 89.21875 209.585938 89.007812 209.378906 C 88.804688 209.171875 88.519531 209.054688 88.222656 209.054688 C 87.929688 209.054688 87.648438 209.171875 87.441406 209.378906 C 87.234375 209.585938 87.113281 209.871094 87.113281 210.164062 C 87.113281 210.503906 87.242188 210.804688 87.394531 211.011719 C 87.664062 211.371094 87.957031 211.539062 88.253906 211.683594 C 88.707031 211.894531 89.210938 212.027344 89.789062 212.125 C 90.367188 212.21875 91.011719 212.273438 91.703125 212.273438 L 91.703125 211.160156 "/>
<path style=" stroke:none;fill-rule:nonzero;fill:rgb(100%,100%,100%);fill-opacity:1;" d="M 95.175781 230.453125 C 95.175781 231.003906 93.621094 231.449219 91.703125 231.449219 C 89.78125 231.449219 88.222656 231.003906 88.222656 230.453125 C 88.222656 230.453125 82.449219 235.320312 86.972656 239.972656 C 86.972656 239.972656 89.699219 240.484375 91.761719 240.484375 C 93.699219 240.484375 96.585938 239.972656 96.585938 239.972656 C 101.109375 235.320312 95.175781 230.453125 95.175781 230.453125 "/>
<path style=" stroke:none;fill-rule:nonzero;fill:rgb(13.729858%,12.159729%,12.548828%);fill-opacity:1;" d="M 95.175781 230.453125 L 94.066406 230.453125 L 94.828125 230.453125 L 94.203125 230.007812 C 94.148438 230.082031 94.066406 230.253906 94.066406 230.453125 L 94.828125 230.453125 L 94.203125 230.007812 L 94.503906 230.222656 L 94.285156 229.921875 C 94.285156 229.921875 94.253906 229.9375 94.203125 230.007812 L 94.503906 230.222656 L 94.285156 229.921875 C 94.285156 229.925781 94.191406 229.976562 94.046875 230.027344 C 93.601562 230.191406 92.699219 230.34375 91.703125 230.339844 C 90.828125 230.339844 90.039062 230.234375 89.546875 230.09375 C 89.308594 230.023438 89.144531 229.9375 89.121094 229.921875 L 88.839844 230.28125 L 89.21875 230.042969 C 89.164062 229.957031 89.125 229.925781 89.121094 229.921875 L 88.839844 230.28125 L 89.21875 230.042969 L 88.5625 230.453125 L 89.332031 230.453125 C 89.335938 230.28125 89.277344 230.125 89.21875 230.042969 L 88.5625 230.453125 L 89.332031 230.453125 C 89.332031 230.023438 89.085938 229.628906 88.691406 229.445312 C 88.300781 229.265625 87.839844 229.324219 87.507812 229.601562 C 87.464844 229.644531 86.660156 230.320312 85.835938 231.449219 C 85.425781 232.011719 85.003906 232.691406 84.679688 233.476562 C 84.359375 234.253906 84.132812 235.144531 84.132812 236.105469 C 84.132812 236.859375 84.273438 237.652344 84.605469 238.441406 C 84.9375 239.230469 85.457031 240.003906 86.175781 240.746094 C 86.335938 240.910156 86.542969 241.023438 86.769531 241.0625 C 86.78125 241.066406 87.476562 241.195312 88.441406 241.328125 C 89.410156 241.457031 90.644531 241.59375 91.761719 241.59375 C 92.824219 241.59375 94.054688 241.457031 95.046875 241.328125 C 96.03125 241.199219 96.765625 241.066406 96.777344 241.066406 C 97.007812 241.023438 97.21875 240.910156 97.378906 240.746094 C 98.089844 240.019531 98.597656 239.253906 98.925781 238.476562 C 99.253906 237.703125 99.394531 236.917969 99.394531 236.175781 C 99.394531 235.199219 99.160156 234.300781 98.824219 233.507812 C 98.3125 232.320312 97.589844 231.367188 96.992188 230.691406 C 96.390625 230.015625 95.914062 229.625 95.882812 229.59375 C 95.550781 229.324219 95.089844 229.269531 94.703125 229.449219 C 94.316406 229.632812 94.066406 230.027344 94.066406 230.453125 L 95.175781 230.453125 L 94.472656 231.3125 C 94.519531 231.351562 95.238281 231.960938 95.910156 232.878906 C 96.242188 233.335938 96.566406 233.871094 96.800781 234.433594 C 97.035156 234.996094 97.175781 235.585938 97.175781 236.175781 C 97.175781 236.644531 97.089844 237.117188 96.878906 237.617188 C 96.667969 238.113281 96.332031 238.640625 95.789062 239.195312 L 96.585938 239.972656 L 96.390625 238.878906 C 96.390625 238.878906 96.351562 238.886719 96.269531 238.898438 C 95.992188 238.945312 95.257812 239.066406 94.390625 239.175781 C 93.527344 239.28125 92.527344 239.375 91.761719 239.375 C 90.820312 239.375 89.65625 239.253906 88.742188 239.128906 C 88.285156 239.066406 87.894531 239.003906 87.613281 238.957031 C 87.472656 238.933594 87.363281 238.914062 87.289062 238.898438 C 87.214844 238.886719 87.179688 238.882812 87.179688 238.882812 L 86.972656 239.972656 L 87.769531 239.195312 C 87.21875 238.628906 86.867188 238.085938 86.652344 237.578125 C 86.4375 237.070312 86.351562 236.582031 86.351562 236.105469 C 86.351562 235.5 86.496094 234.894531 86.734375 234.320312 C 87.085938 233.464844 87.648438 232.6875 88.121094 232.140625 C 88.355469 231.867188 88.570312 231.652344 88.71875 231.507812 C 88.796875 231.433594 88.851562 231.378906 88.890625 231.34375 L 88.933594 231.308594 L 88.941406 231.300781 L 88.78125 231.117188 L 88.941406 231.304688 L 88.941406 231.300781 L 88.78125 231.117188 L 88.941406 231.304688 L 88.222656 230.453125 L 87.113281 230.453125 C 87.113281 230.792969 87.242188 231.09375 87.394531 231.300781 C 87.664062 231.660156 87.957031 231.828125 88.253906 231.972656 C 88.707031 232.183594 89.210938 232.316406 89.789062 232.414062 C 90.367188 232.507812 91.011719 232.5625 91.703125 232.5625 C 92.75 232.558594 93.695312 232.441406 94.464844 232.226562 C 94.851562 232.109375 95.199219 231.980469 95.527344 231.761719 C 95.691406 231.648438 95.859375 231.507812 96.011719 231.300781 C 96.160156 231.09375 96.289062 230.792969 96.289062 230.453125 L 95.175781 230.453125 L 94.472656 231.3125 L 95.175781 230.453125 "/>
<path style=" stroke:none;fill-rule:nonzero;fill:rgb(100%,100%,100%);fill-opacity:1;" d="M 171.292969 142.214844 C 171.015625 142.027344 170.816406 141.734375 170.816406 141.300781 L 170.816406 140.933594 C 170.785156 140.789062 170.738281 140.648438 170.71875 140.5 C 170.691406 140.292969 170.71875 140.105469 170.773438 139.933594 L 99.21875 165.246094 C 95.339844 166.433594 88.183594 171.382812 88.183594 181.945312 L 88.222656 208.757812 C 88.222656 209.308594 89.78125 209.753906 91.703125 209.753906 C 93.621094 209.753906 95.175781 209.308594 95.175781 208.757812 L 95.21875 181.945312 C 95.21875 174.144531 100.710938 172.15625 101.296875 171.96875 L 101.484375 171.910156 L 175.703125 145.652344 C 173.824219 144.921875 172.160156 143.804688 171.292969 142.214844 "/>
<path style=" stroke:none;fill-rule:nonzero;fill:rgb(13.729858%,12.159729%,12.548828%);fill-opacity:1;" d="M 171.292969 142.214844 L 171.914062 141.292969 L 171.90625 141.289062 L 171.882812 141.316406 L 171.910156 141.292969 L 171.90625 141.289062 L 171.882812 141.316406 L 171.910156 141.292969 L 171.824219 141.359375 L 171.929688 141.324219 L 171.910156 141.292969 L 171.824219 141.359375 L 171.929688 141.324219 L 171.882812 141.34375 L 171.929688 141.332031 L 171.929688 141.324219 L 171.882812 141.34375 L 171.929688 141.332031 L 171.925781 141.300781 L 171.925781 140.933594 C 171.925781 140.851562 171.914062 140.757812 171.898438 140.679688 C 171.847656 140.476562 171.816406 140.371094 171.816406 140.335938 L 170.71875 140.5 L 171.816406 140.351562 L 171.816406 140.339844 L 171.828125 140.285156 C 171.960938 139.878906 171.855469 139.441406 171.550781 139.140625 C 171.246094 138.84375 170.804688 138.746094 170.402344 138.886719 L 98.847656 164.199219 L 99.21875 165.246094 L 98.890625 164.183594 C 96.734375 164.851562 93.828125 166.480469 91.394531 169.367188 C 88.964844 172.25 87.066406 176.414062 87.074219 181.945312 L 87.074219 181.949219 L 87.113281 208.757812 C 87.113281 209.09375 87.242188 209.402344 87.394531 209.605469 C 87.664062 209.96875 87.957031 210.132812 88.253906 210.277344 C 88.707031 210.488281 89.210938 210.621094 89.789062 210.714844 C 90.367188 210.8125 91.011719 210.863281 91.703125 210.863281 C 92.75 210.859375 93.695312 210.75 94.464844 210.527344 C 94.851562 210.414062 95.195312 210.285156 95.527344 210.066406 C 95.691406 209.953125 95.859375 209.8125 96.011719 209.605469 C 96.160156 209.402344 96.289062 209.09375 96.289062 208.757812 L 96.332031 181.949219 L 96.332031 181.945312 C 96.332031 180.125 96.648438 178.6875 97.113281 177.539062 C 97.816406 175.824219 98.859375 174.734375 99.78125 174.039062 C 100.703125 173.347656 101.503906 173.066406 101.632812 173.027344 L 101.625 173.03125 L 101.8125 172.972656 L 101.851562 172.957031 L 176.078125 146.699219 C 176.511719 146.546875 176.808594 146.132812 176.8125 145.671875 C 176.824219 145.207031 176.539062 144.785156 176.109375 144.617188 C 175.242188 144.28125 174.441406 143.859375 173.785156 143.371094 C 173.125 142.875 172.609375 142.3125 172.269531 141.6875 C 172.183594 141.527344 172.066406 141.394531 171.914062 141.292969 L 171.292969 142.214844 L 170.320312 142.746094 C 170.84375 143.710938 171.59375 144.5 172.453125 145.144531 C 173.3125 145.789062 174.285156 146.292969 175.300781 146.6875 L 175.703125 145.652344 L 175.332031 144.605469 L 101.132812 170.859375 L 100.96875 170.910156 L 100.960938 170.914062 C 100.550781 171.046875 98.871094 171.648438 97.238281 173.332031 C 96.429688 174.167969 95.640625 175.277344 95.058594 176.703125 C 94.476562 178.128906 94.109375 179.863281 94.109375 181.945312 L 94.066406 208.757812 L 94.828125 208.757812 L 94.207031 208.3125 C 94.148438 208.390625 94.066406 208.558594 94.066406 208.757812 L 94.828125 208.757812 L 94.207031 208.3125 L 94.503906 208.527344 L 94.285156 208.222656 C 94.285156 208.222656 94.253906 208.242188 94.207031 208.3125 L 94.503906 208.527344 L 94.285156 208.222656 C 94.285156 208.226562 94.191406 208.28125 94.046875 208.332031 C 93.601562 208.5 92.699219 208.648438 91.703125 208.644531 C 90.828125 208.644531 90.039062 208.535156 89.546875 208.394531 C 89.308594 208.328125 89.140625 208.246094 89.121094 208.226562 L 88.839844 208.585938 L 89.21875 208.34375 C 89.164062 208.257812 89.125 208.230469 89.121094 208.226562 L 88.839844 208.585938 L 89.21875 208.34375 L 88.5625 208.757812 L 89.332031 208.757812 C 89.335938 208.585938 89.277344 208.429688 89.21875 208.34375 L 88.5625 208.757812 L 89.332031 208.757812 L 89.292969 181.945312 C 89.296875 176.917969 90.976562 173.328125 93.09375 170.792969 C 95.207031 168.269531 97.820312 166.832031 99.542969 166.308594 L 99.589844 166.292969 L 171.144531 140.980469 L 170.773438 139.933594 L 169.722656 139.585938 C 169.648438 139.796875 169.597656 140.054688 169.597656 140.339844 C 169.597656 140.441406 169.601562 140.546875 169.617188 140.652344 L 169.621094 140.667969 C 169.660156 140.929688 169.71875 141.097656 169.734375 141.179688 L 170.816406 140.933594 L 169.707031 140.933594 L 169.707031 141.300781 C 169.707031 141.6875 169.800781 142.070312 169.984375 142.390625 C 170.164062 142.714844 170.414062 142.964844 170.675781 143.136719 L 171.292969 142.214844 L 170.320312 142.746094 L 171.292969 142.214844 "/>
<path style=" stroke:none;fill-rule:nonzero;fill:rgb(100%,100%,100%);fill-opacity:1;" d="M 193.292969 217.433594 C 190.113281 218.582031 184.960938 218.582031 181.78125 217.433594 L 98.097656 187.550781 L 98.097656 223.757812 C 98.097656 234.941406 116.320312 244.683594 143.335938 249.851562 L 142.964844 249.851562 C 179.953125 255.753906 187.539062 271.0625 187.539062 271.0625 C 187.539062 271.0625 195.121094 255.753906 232.109375 249.851562 L 231.738281 249.851562 C 258.757812 244.683594 276.980469 234.941406 276.980469 223.757812 L 276.980469 187.570312 L 193.292969 217.433594 "/>
<path style=" stroke:none;fill-rule:nonzero;fill:rgb(13.729858%,12.159729%,12.548828%);fill-opacity:1;" d="M 193.292969 217.433594 L 192.917969 216.390625 C 191.503906 216.902344 189.515625 217.183594 187.535156 217.183594 C 185.558594 217.183594 183.570312 216.902344 182.160156 216.390625 L 182.15625 216.386719 L 98.46875 186.503906 C 98.128906 186.382812 97.75 186.433594 97.457031 186.640625 C 97.164062 186.851562 96.988281 187.1875 96.988281 187.550781 L 96.988281 223.757812 C 96.984375 226.863281 98.261719 229.832031 100.511719 232.535156 C 103.890625 236.597656 109.457031 240.1875 116.714844 243.292969 C 123.972656 246.394531 132.9375 248.992188 143.128906 250.941406 L 143.335938 249.851562 L 143.335938 248.742188 L 142.964844 248.742188 C 142.386719 248.742188 141.90625 249.183594 141.859375 249.761719 C 141.8125 250.339844 142.21875 250.855469 142.789062 250.949219 C 161.152344 253.875 172.121094 259.125 178.484375 263.578125 C 181.664062 265.808594 183.695312 267.835938 184.925781 269.292969 C 185.539062 270.019531 185.953125 270.605469 186.207031 270.996094 C 186.335938 271.191406 186.425781 271.339844 186.476562 271.433594 L 186.53125 271.539062 L 186.542969 271.554688 L 187.132812 271.261719 L 186.542969 271.550781 L 186.542969 271.554688 L 187.132812 271.261719 L 186.542969 271.550781 C 186.730469 271.929688 187.117188 272.171875 187.539062 272.171875 C 187.957031 272.171875 188.34375 271.929688 188.53125 271.550781 L 187.9375 271.257812 L 188.53125 271.554688 L 188.53125 271.550781 L 187.9375 271.257812 L 188.53125 271.554688 L 188.550781 271.519531 C 188.773438 271.109375 190.890625 267.390625 197.351562 263.058594 C 203.8125 258.71875 214.640625 253.765625 232.285156 250.949219 C 232.859375 250.855469 233.261719 250.339844 233.21875 249.761719 C 233.171875 249.183594 232.691406 248.742188 232.109375 248.742188 L 231.738281 248.742188 L 231.738281 249.851562 L 231.949219 250.941406 C 245.539062 248.339844 256.941406 244.59375 265.039062 240.027344 C 269.082031 237.738281 272.3125 235.246094 274.566406 232.535156 C 276.8125 229.832031 278.089844 226.863281 278.089844 223.757812 L 278.089844 187.570312 C 278.089844 187.210938 277.914062 186.871094 277.617188 186.664062 C 277.324219 186.457031 276.945312 186.40625 276.605469 186.527344 L 192.917969 216.386719 L 192.917969 216.390625 L 193.292969 217.433594 L 193.664062 218.476562 L 275.867188 189.144531 L 275.867188 223.757812 C 275.867188 226.242188 274.867188 228.6875 272.855469 231.117188 C 269.847656 234.753906 264.554688 238.238281 257.492188 241.253906 C 250.425781 244.273438 241.601562 246.835938 231.53125 248.757812 C 230.96875 248.867188 230.582031 249.382812 230.636719 249.957031 C 230.691406 250.527344 231.167969 250.960938 231.738281 250.960938 L 232.109375 250.960938 L 232.109375 249.851562 L 231.9375 248.753906 C 213.304688 251.726562 201.992188 257.082031 195.316406 261.757812 C 188.640625 266.429688 186.613281 270.417969 186.542969 270.566406 L 187.539062 271.0625 L 188.53125 270.566406 C 188.460938 270.417969 186.4375 266.429688 179.757812 261.757812 C 173.082031 257.082031 161.769531 251.726562 143.140625 248.753906 L 142.964844 249.851562 L 142.964844 250.960938 L 143.335938 250.960938 C 143.910156 250.960938 144.390625 250.527344 144.441406 249.957031 C 144.496094 249.382812 144.109375 248.867188 143.546875 248.757812 C 130.121094 246.199219 118.902344 242.484375 111.132812 238.09375 C 107.246094 235.902344 104.226562 233.539062 102.21875 231.117188 C 100.207031 228.6875 99.207031 226.242188 99.207031 223.757812 L 99.207031 189.125 L 181.410156 218.476562 L 181.40625 218.476562 C 183.171875 219.109375 185.347656 219.398438 187.535156 219.402344 C 189.722656 219.398438 191.902344 219.109375 193.667969 218.476562 L 193.664062 218.476562 L 193.292969 217.433594 "/>
<path style=" stroke:none;fill-rule:nonzero;fill:rgb(100%,100%,100%);fill-opacity:1;" d="M 87.804688 167.632812 L 41.613281 151.136719 C 40.027344 150.578125 39.226562 149.835938 39.226562 149.089844 L 39.226562 158.332031 L 39.238281 158.332031 C 39.265625 159.058594 40.050781 159.785156 41.613281 160.34375 L 83.578125 175.328125 C 84.53125 172.207031 86.050781 169.65625 87.804688 167.632812 "/>
<path style=" stroke:none;fill-rule:nonzero;fill:rgb(13.729858%,12.159729%,12.548828%);fill-opacity:1;" d="M 87.804688 167.632812 L 88.175781 166.589844 L 41.984375 150.089844 L 41.980469 150.089844 C 41.277344 149.84375 40.796875 149.5625 40.558594 149.347656 C 40.4375 149.242188 40.375 149.15625 40.351562 149.117188 L 40.339844 149.082031 L 40.304688 149.089844 L 40.339844 149.089844 L 40.339844 149.082031 L 40.304688 149.089844 L 40.339844 149.089844 C 40.339844 148.800781 40.21875 148.511719 40.015625 148.304688 C 39.804688 148.097656 39.519531 147.980469 39.226562 147.980469 C 38.9375 147.980469 38.648438 148.097656 38.445312 148.304688 C 38.234375 148.511719 38.117188 148.800781 38.117188 149.089844 L 38.117188 158.332031 C 38.117188 158.625 38.234375 158.910156 38.445312 159.117188 C 38.648438 159.324219 38.9375 159.441406 39.226562 159.441406 L 39.238281 159.441406 L 39.238281 158.332031 L 38.128906 158.375 C 38.144531 158.75 38.257812 159.113281 38.433594 159.425781 C 38.707031 159.894531 39.097656 160.261719 39.5625 160.574219 C 40.035156 160.886719 40.589844 161.15625 41.242188 161.386719 L 41.238281 161.386719 L 83.207031 176.371094 C 83.496094 176.476562 83.808594 176.457031 84.078125 176.320312 C 84.351562 176.179688 84.554688 175.941406 84.644531 175.648438 C 85.546875 172.683594 86.984375 170.277344 88.640625 168.359375 C 88.886719 168.082031 88.972656 167.707031 88.875 167.355469 C 88.785156 166.996094 88.523438 166.710938 88.175781 166.589844 L 87.804688 167.632812 L 86.964844 166.910156 C 85.117188 169.035156 83.511719 171.726562 82.519531 175.003906 L 83.578125 175.328125 L 83.957031 174.28125 L 41.984375 159.296875 C 41.292969 159.050781 40.820312 158.773438 40.578125 158.5625 C 40.457031 158.457031 40.394531 158.371094 40.367188 158.324219 L 40.347656 158.28125 L 40.304688 158.289062 L 40.347656 158.285156 L 40.347656 158.28125 L 40.304688 158.289062 L 40.347656 158.285156 C 40.324219 157.691406 39.832031 157.222656 39.238281 157.222656 L 39.226562 157.222656 L 39.226562 158.332031 L 40.339844 158.332031 L 40.339844 149.089844 C 40.339844 148.800781 40.21875 148.511719 40.015625 148.304688 C 39.804688 148.097656 39.519531 147.980469 39.226562 147.980469 C 38.9375 147.980469 38.648438 148.097656 38.445312 148.304688 C 38.234375 148.511719 38.117188 148.800781 38.117188 149.089844 C 38.117188 149.476562 38.222656 149.855469 38.402344 150.175781 C 38.667969 150.664062 39.066406 151.039062 39.539062 151.359375 C 40.015625 151.683594 40.582031 151.949219 41.246094 152.183594 L 41.238281 152.183594 L 87.429688 168.679688 L 87.804688 167.632812 L 86.964844 166.910156 L 87.804688 167.632812 "/>
<path style=" stroke:none;fill-rule:nonzero;fill:rgb(100%,100%,100%);fill-opacity:1;" d="M 333.460938 151.179688 L 193.292969 201.199219 C 190.113281 202.34375 184.960938 202.34375 181.78125 201.199219 L 106.925781 174.402344 L 101.484375 176.324219 C 101.308594 176.390625 101.179688 176.429688 101.050781 176.464844 C 100.863281 176.53125 98.796875 177.34375 98.199219 180.550781 L 181.78125 210.402344 C 184.960938 211.542969 190.113281 211.542969 193.292969 210.402344 L 333.460938 160.378906 C 335.011719 159.8125 335.792969 159.074219 335.832031 158.332031 L 335.84375 158.332031 L 335.84375 149.078125 C 335.84375 149.835938 335.050781 150.59375 333.460938 151.179688 "/>
<path style=" stroke:none;fill-rule:nonzero;fill:rgb(13.729858%,12.159729%,12.548828%);fill-opacity:1;" d="M 333.460938 151.179688 L 333.085938 150.136719 L 192.917969 200.152344 C 191.503906 200.664062 189.511719 200.949219 187.53125 200.945312 C 185.554688 200.949219 183.566406 200.664062 182.15625 200.15625 L 107.300781 173.355469 C 107.058594 173.273438 106.796875 173.269531 106.554688 173.355469 L 101.113281 175.277344 L 101.109375 175.28125 C 100.953125 175.335938 100.855469 175.367188 100.75 175.398438 L 100.683594 175.417969 C 100.46875 175.496094 99.761719 175.785156 98.992188 176.542969 C 98.230469 177.296875 97.441406 178.53125 97.109375 180.347656 C 97.007812 180.882812 97.3125 181.410156 97.824219 181.59375 L 181.410156 211.449219 L 181.40625 211.445312 C 183.171875 212.078125 185.347656 212.363281 187.535156 212.367188 C 189.722656 212.363281 191.898438 212.078125 193.667969 211.445312 L 193.664062 211.449219 L 333.832031 161.425781 L 333.84375 161.421875 C 334.707031 161.105469 335.40625 160.730469 335.949219 160.253906 C 336.222656 160.011719 336.453125 159.742188 336.628906 159.429688 C 336.804688 159.117188 336.921875 158.757812 336.9375 158.386719 L 335.832031 158.332031 L 335.832031 159.441406 L 335.84375 159.441406 C 336.136719 159.441406 336.425781 159.324219 336.632812 159.117188 C 336.835938 158.910156 336.957031 158.625 336.957031 158.332031 L 336.957031 149.078125 C 336.957031 148.464844 336.460938 147.964844 335.847656 147.964844 C 335.234375 147.964844 334.738281 148.460938 334.734375 149.074219 L 334.734375 149.078125 C 334.734375 149.09375 334.671875 149.246094 334.402344 149.457031 C 334.140625 149.664062 333.695312 149.914062 333.078125 150.136719 L 333.460938 151.179688 L 333.085938 150.136719 L 333.460938 151.179688 L 333.84375 152.222656 C 334.730469 151.894531 335.4375 151.511719 335.988281 151.019531 C 336.265625 150.769531 336.503906 150.492188 336.675781 150.164062 C 336.847656 149.839844 336.957031 149.464844 336.957031 149.082031 C 336.957031 148.785156 336.84375 148.503906 336.632812 148.292969 C 336.425781 148.085938 336.144531 147.964844 335.847656 147.964844 C 335.550781 147.964844 335.269531 148.082031 335.0625 148.289062 C 334.851562 148.5 334.734375 148.777344 334.734375 149.078125 L 334.734375 158.332031 L 335.84375 158.332031 L 335.84375 157.222656 L 335.832031 157.222656 C 335.238281 157.222656 334.75 157.683594 334.722656 158.273438 L 334.695312 158.339844 C 334.65625 158.417969 334.519531 158.582031 334.253906 158.761719 C 333.988281 158.949219 333.59375 159.152344 333.082031 159.339844 L 333.085938 159.335938 L 192.917969 209.359375 C 191.503906 209.867188 189.515625 210.148438 187.535156 210.148438 C 185.558594 210.148438 183.566406 209.867188 182.15625 209.359375 L 98.570312 179.503906 L 98.199219 180.550781 L 99.292969 180.753906 C 99.554688 179.363281 100.09375 178.585938 100.5625 178.117188 C 100.796875 177.882812 101.015625 177.730469 101.175781 177.636719 C 101.253906 177.589844 101.320312 177.558594 101.363281 177.539062 L 101.410156 177.515625 L 101.421875 177.511719 L 101.40625 177.472656 L 101.421875 177.511719 L 101.40625 177.472656 L 101.421875 177.511719 L 101.050781 176.464844 L 101.355469 177.535156 C 101.503906 177.492188 101.660156 177.441406 101.855469 177.371094 L 101.851562 177.371094 L 106.921875 175.578125 L 181.410156 202.246094 L 181.40625 202.246094 C 183.171875 202.875 185.347656 203.164062 187.53125 203.167969 C 189.71875 203.164062 191.898438 202.875 193.667969 202.242188 L 193.664062 202.242188 L 333.832031 152.226562 L 333.84375 152.222656 L 333.460938 151.179688 "/>
<path style=" stroke:none;fill-rule:nonzero;fill:rgb(100%,100%,100%);fill-opacity:1;" d="M 202.300781 133.574219 C 202.300781 136.3125 195.6875 138.523438 187.539062 138.523438 C 179.382812 138.523438 172.773438 136.3125 172.773438 133.574219 C 172.773438 130.835938 179.382812 128.621094 187.539062 128.621094 C 195.6875 128.621094 202.300781 130.835938 202.300781 133.574219 "/>
<path style=" stroke:none;fill-rule:nonzero;fill:rgb(13.729858%,12.159729%,12.548828%);fill-opacity:1;" d="M 202.300781 133.574219 L 201.1875 133.574219 C 201.1875 133.6875 201.160156 133.8125 201.050781 133.992188 C 200.867188 134.308594 200.386719 134.753906 199.625 135.167969 C 198.484375 135.800781 196.757812 136.378906 194.675781 136.78125 C 192.589844 137.179688 190.144531 137.414062 187.539062 137.414062 C 183.5625 137.414062 179.960938 136.867188 177.453125 136.023438 C 176.199219 135.601562 175.21875 135.105469 174.625 134.632812 C 174.332031 134.398438 174.128906 134.171875 174.023438 133.996094 C 173.914062 133.8125 173.886719 133.6875 173.886719 133.574219 C 173.886719 133.457031 173.914062 133.335938 174.023438 133.152344 C 174.207031 132.839844 174.6875 132.394531 175.449219 131.976562 C 176.589844 131.347656 178.316406 130.769531 180.398438 130.371094 C 182.484375 129.96875 184.925781 129.734375 187.539062 129.734375 C 191.511719 129.730469 195.109375 130.28125 197.621094 131.125 C 198.878906 131.542969 199.855469 132.042969 200.449219 132.515625 C 200.746094 132.75 200.941406 132.972656 201.050781 133.152344 C 201.160156 133.335938 201.1875 133.457031 201.1875 133.574219 L 203.410156 133.574219 C 203.414062 133.007812 203.234375 132.460938 202.945312 131.996094 C 202.445312 131.183594 201.664062 130.570312 200.695312 130.035156 C 199.25 129.234375 197.339844 128.621094 195.09375 128.1875 C 192.851562 127.753906 190.277344 127.511719 187.539062 127.511719 C 183.355469 127.515625 179.574219 128.074219 176.746094 129.019531 C 175.332031 129.496094 174.148438 130.066406 173.246094 130.777344 C 172.792969 131.132812 172.414062 131.53125 172.125 131.996094 C 171.84375 132.460938 171.664062 133.007812 171.664062 133.574219 C 171.664062 134.144531 171.84375 134.6875 172.125 135.148438 C 172.632812 135.964844 173.414062 136.578125 174.375 137.113281 C 175.824219 137.910156 177.734375 138.523438 179.980469 138.960938 C 182.222656 139.390625 184.792969 139.632812 187.539062 139.632812 C 191.714844 139.632812 195.5 139.074219 198.328125 138.128906 C 199.746094 137.648438 200.925781 137.082031 201.828125 136.371094 C 202.277344 136.011719 202.660156 135.617188 202.945312 135.152344 C 203.234375 134.6875 203.414062 134.144531 203.410156 133.574219 L 202.300781 133.574219 "/>
<path style=" stroke:none;fill-rule:nonzero;fill:rgb(100%,100%,100%);fill-opacity:1;" d="M 187.539062 141.34375 C 179.382812 141.34375 172.773438 139.121094 172.773438 136.390625 L 172.773438 140.949219 C 172.773438 143.683594 179.382812 145.898438 187.539062 145.898438 C 195.6875 145.898438 202.300781 143.683594 202.300781 140.949219 L 202.300781 136.390625 C 202.300781 139.121094 195.6875 141.34375 187.539062 141.34375 "/>
<path style=" stroke:none;fill-rule:nonzero;fill:rgb(13.729858%,12.159729%,12.548828%);fill-opacity:1;" d="M 187.539062 141.34375 L 187.539062 140.230469 C 183.5625 140.230469 179.964844 139.683594 177.453125 138.839844 C 176.199219 138.417969 175.21875 137.917969 174.625 137.449219 C 174.328125 137.210938 174.128906 136.988281 174.023438 136.808594 C 173.914062 136.625 173.886719 136.503906 173.886719 136.390625 C 173.886719 136.097656 173.765625 135.8125 173.5625 135.605469 C 173.355469 135.398438 173.070312 135.277344 172.773438 135.277344 C 172.484375 135.277344 172.199219 135.398438 171.992188 135.605469 C 171.78125 135.8125 171.664062 136.097656 171.664062 136.390625 L 171.664062 140.949219 C 171.664062 141.515625 171.84375 142.0625 172.125 142.523438 C 172.632812 143.335938 173.414062 143.949219 174.375 144.488281 C 175.824219 145.285156 177.734375 145.898438 179.980469 146.332031 C 182.222656 146.765625 184.792969 147.007812 187.539062 147.007812 C 191.714844 147.007812 195.5 146.449219 198.328125 145.503906 C 199.746094 145.027344 200.925781 144.457031 201.828125 143.746094 C 202.277344 143.390625 202.660156 142.992188 202.945312 142.523438 C 203.234375 142.0625 203.414062 141.515625 203.410156 140.949219 L 203.410156 136.390625 C 203.410156 136.097656 203.289062 135.8125 203.085938 135.605469 C 202.878906 135.398438 202.589844 135.277344 202.300781 135.277344 C 202.007812 135.277344 201.71875 135.398438 201.511719 135.605469 C 201.308594 135.8125 201.1875 136.097656 201.1875 136.390625 C 201.1875 136.503906 201.160156 136.625 201.050781 136.808594 C 200.867188 137.125 200.386719 137.570312 199.625 137.984375 C 198.484375 138.617188 196.757812 139.195312 194.675781 139.597656 C 192.589844 139.996094 190.144531 140.230469 187.539062 140.230469 L 187.539062 142.453125 C 191.714844 142.449219 195.5 141.890625 198.328125 140.941406 C 199.746094 140.464844 200.925781 139.898438 201.828125 139.183594 C 202.277344 138.828125 202.660156 138.429688 202.945312 137.964844 C 203.230469 137.503906 203.414062 136.957031 203.410156 136.390625 C 203.410156 136.097656 203.289062 135.8125 203.085938 135.605469 C 202.878906 135.398438 202.589844 135.277344 202.300781 135.277344 C 202.007812 135.277344 201.71875 135.398438 201.511719 135.605469 C 201.308594 135.8125 201.1875 136.097656 201.1875 136.390625 L 201.1875 140.949219 C 201.1875 141.066406 201.160156 141.1875 201.050781 141.367188 C 200.867188 141.683594 200.386719 142.128906 199.625 142.546875 C 198.484375 143.175781 196.757812 143.753906 194.675781 144.152344 C 192.589844 144.558594 190.144531 144.789062 187.539062 144.789062 C 183.5625 144.792969 179.960938 144.242188 177.453125 143.398438 C 176.199219 142.980469 175.21875 142.480469 174.625 142.007812 C 174.332031 141.769531 174.128906 141.546875 174.023438 141.367188 C 173.914062 141.1875 173.886719 141.066406 173.886719 140.949219 L 173.886719 136.390625 C 173.886719 136.097656 173.765625 135.8125 173.5625 135.605469 C 173.355469 135.398438 173.070312 135.277344 172.773438 135.277344 C 172.484375 135.277344 172.199219 135.398438 171.992188 135.605469 C 171.78125 135.8125 171.664062 136.097656 171.664062 136.390625 C 171.664062 136.957031 171.84375 137.503906 172.125 137.964844 C 172.632812 138.777344 173.414062 139.390625 174.375 139.929688 C 175.824219 140.726562 177.734375 141.339844 179.976562 141.777344 C 182.222656 142.207031 184.792969 142.449219 187.539062 142.453125 L 187.539062 141.34375 "/>
<path style=" stroke:none;fill-rule:nonzero;fill:rgb(100%,100%,100%);fill-opacity:1;" d="M 333.460938 144.175781 L 193.292969 93.066406 C 190.113281 91.945312 184.960938 91.984375 181.78125 93.152344 L 41.613281 144.210938 C 38.433594 145.359375 38.433594 147.199219 41.613281 148.320312 L 89.871094 165.558594 C 92.234375 163.488281 94.722656 162.214844 96.578125 161.648438 L 169.257812 135.933594 L 169.257812 133.449219 C 169.257812 127.199219 179.105469 124.976562 187.539062 124.976562 C 195.96875 124.976562 205.816406 127.199219 205.816406 133.449219 L 205.816406 140.949219 C 205.816406 147.199219 195.96875 149.417969 187.539062 149.417969 C 184.898438 149.417969 182.121094 149.199219 179.550781 148.710938 L 110.800781 173.03125 L 181.78125 198.382812 C 184.960938 199.53125 190.113281 199.53125 193.292969 198.382812 L 333.460938 148.363281 C 336.640625 147.199219 336.640625 145.316406 333.460938 144.175781 "/>
<g clip-path="url(#clip2)" clip-rule="nonzero">
<path style=" stroke:none;fill-rule:nonzero;fill:rgb(13.729858%,12.159729%,12.548828%);fill-opacity:1;" d="M 333.460938 144.175781 L 333.84375 143.132812 L 193.671875 92.023438 L 193.660156 92.015625 C 191.9375 91.414062 189.828125 91.140625 187.703125 91.136719 C 185.460938 91.140625 183.210938 91.449219 181.398438 92.109375 L 181.402344 92.105469 L 41.234375 143.167969 L 41.238281 143.167969 C 40.351562 143.488281 39.644531 143.863281 39.089844 144.347656 C 38.8125 144.59375 38.578125 144.867188 38.402344 145.191406 C 38.226562 145.515625 38.117188 145.890625 38.121094 146.273438 C 38.117188 146.660156 38.226562 147.039062 38.402344 147.359375 C 38.667969 147.84375 39.066406 148.222656 39.539062 148.542969 C 40.015625 148.867188 40.578125 149.132812 41.242188 149.367188 L 41.238281 149.367188 L 89.5 166.605469 C 89.878906 166.742188 90.300781 166.660156 90.601562 166.394531 C 92.839844 164.429688 95.21875 163.222656 96.902344 162.710938 L 96.949219 162.695312 L 169.628906 136.980469 C 170.070312 136.824219 170.367188 136.402344 170.367188 135.933594 L 170.367188 133.449219 C 170.367188 132.8125 170.492188 132.253906 170.714844 131.730469 C 171.109375 130.824219 171.847656 130.003906 172.917969 129.277344 C 174.507812 128.1875 176.816406 127.363281 179.398438 126.84375 C 181.980469 126.320312 184.835938 126.085938 187.539062 126.085938 C 191.652344 126.082031 196.128906 126.640625 199.441406 127.90625 C 201.101562 128.535156 202.457031 129.335938 203.347656 130.261719 C 203.796875 130.722656 204.132812 131.210938 204.359375 131.730469 C 204.582031 132.253906 204.703125 132.8125 204.703125 133.449219 L 204.703125 140.949219 C 204.703125 141.582031 204.582031 142.144531 204.359375 142.664062 C 203.964844 143.574219 203.226562 144.394531 202.160156 145.117188 C 200.5625 146.207031 198.257812 147.027344 195.675781 147.546875 C 193.09375 148.074219 190.238281 148.308594 187.539062 148.308594 C 184.960938 148.308594 182.246094 148.089844 179.757812 147.621094 C 179.566406 147.585938 179.363281 147.597656 179.179688 147.664062 L 110.429688 171.984375 C 109.988281 172.140625 109.691406 172.5625 109.691406 173.03125 C 109.6875 173.5 109.984375 173.921875 110.425781 174.078125 L 181.410156 199.429688 L 181.40625 199.429688 C 183.171875 200.0625 185.347656 200.355469 187.535156 200.355469 C 189.722656 200.355469 191.902344 200.0625 193.667969 199.429688 L 193.664062 199.429688 L 333.832031 149.410156 L 333.84375 149.40625 C 334.730469 149.078125 335.441406 148.699219 335.992188 148.203125 C 336.269531 147.953125 336.503906 147.675781 336.679688 147.347656 C 336.851562 147.023438 336.957031 146.644531 336.957031 146.261719 C 336.957031 145.875 336.851562 145.496094 336.675781 145.171875 C 336.414062 144.683594 336.015625 144.300781 335.546875 143.972656 C 335.066406 143.644531 334.5 143.371094 333.835938 143.132812 L 333.84375 143.132812 L 333.460938 144.175781 L 333.085938 145.21875 C 333.789062 145.472656 334.269531 145.757812 334.511719 145.976562 C 334.632812 146.085938 334.691406 146.171875 334.71875 146.21875 L 334.734375 146.261719 L 334.75 146.261719 L 334.734375 146.257812 L 334.734375 146.261719 L 334.75 146.261719 L 334.734375 146.257812 L 334.699219 146.339844 C 334.644531 146.425781 334.5 146.585938 334.230469 146.765625 C 333.960938 146.945312 333.574219 147.140625 333.078125 147.320312 L 333.085938 147.316406 L 192.917969 197.335938 C 191.503906 197.851562 189.515625 198.136719 187.535156 198.132812 C 185.558594 198.136719 183.570312 197.851562 182.160156 197.335938 L 182.15625 197.335938 L 114.117188 173.039062 L 179.921875 149.757812 L 179.550781 148.710938 L 179.34375 149.800781 C 182 150.304688 184.835938 150.527344 187.539062 150.527344 C 191.851562 150.523438 196.515625 149.96875 200.230469 148.566406 C 202.089844 147.855469 203.722656 146.929688 204.941406 145.683594 C 205.550781 145.054688 206.050781 144.34375 206.394531 143.546875 C 206.738281 142.753906 206.929688 141.875 206.925781 140.949219 L 206.925781 133.449219 C 206.929688 132.519531 206.738281 131.644531 206.394531 130.847656 C 205.789062 129.453125 204.71875 128.332031 203.40625 127.441406 C 201.429688 126.101562 198.882812 125.234375 196.117188 124.671875 C 193.351562 124.109375 190.367188 123.867188 187.539062 123.867188 C 183.222656 123.871094 178.558594 124.421875 174.839844 125.828125 C 172.984375 126.539062 171.347656 127.464844 170.132812 128.714844 C 169.523438 129.339844 169.023438 130.050781 168.679688 130.847656 C 168.332031 131.644531 168.148438 132.519531 168.148438 133.449219 L 168.148438 135.152344 L 96.207031 160.601562 L 96.578125 161.648438 L 96.253906 160.585938 C 94.226562 161.210938 91.625 162.546875 89.140625 164.726562 L 89.871094 165.558594 L 90.246094 164.515625 L 41.984375 147.277344 C 41.277344 147.03125 40.796875 146.746094 40.558594 146.53125 C 40.4375 146.425781 40.375 146.339844 40.355469 146.300781 L 40.339844 146.265625 L 40.304688 146.273438 L 40.339844 146.273438 L 40.339844 146.265625 L 40.304688 146.273438 L 40.339844 146.273438 L 40.304688 146.273438 L 40.339844 146.285156 L 40.339844 146.273438 L 40.304688 146.273438 L 40.339844 146.285156 L 40.398438 146.183594 C 40.46875 146.085938 40.628906 145.933594 40.894531 145.765625 C 41.160156 145.601562 41.527344 145.421875 41.988281 145.253906 L 41.992188 145.253906 L 182.164062 94.195312 C 183.613281 93.65625 185.671875 93.355469 187.703125 93.359375 C 189.628906 93.355469 191.546875 93.625 192.925781 94.113281 L 193.292969 93.066406 L 192.910156 94.109375 L 333.082031 145.21875 L 333.085938 145.21875 L 333.460938 144.175781 "/>
</g>
</g>
</svg>
