<?xml version="1.0" encoding="UTF-8"?>
<svg xmlns="http://www.w3.org/2000/svg" xmlns:xlink="http://www.w3.org/1999/xlink" width="375pt" height="374.999991pt" viewBox="0 0 375 374.999991" version="1.2">
<defs>
<clipPath id="clip1">
  <path d="M 43.355469 43.355469 L 331.078125 43.355469 L 331.078125 331.078125 L 43.355469 331.078125 Z M 43.355469 43.355469 "/>
</clipPath>
<clipPath id="clip2">
  <path d="M 312 80 L 331.078125 80 L 331.078125 97 L 312 97 Z M 312 80 "/>
</clipPath>
<clipPath id="clip3">
  <path d="M 251 43.355469 L 285 43.355469 L 285 275 L 251 275 Z M 251 43.355469 "/>
</clipPath>
<clipPath id="clip4">
  <path d="M 209 142 L 331.078125 142 L 331.078125 299 L 209 299 Z M 209 142 "/>
</clipPath>
<clipPath id="clip5">
  <path d="M 123 289 L 188 289 L 188 331.078125 L 123 331.078125 Z M 123 289 "/>
</clipPath>
</defs>
<g id="surface1">
<g clip-path="url(#clip1)" clip-rule="nonzero">
<path style=" stroke:none;fill-rule:nonzero;fill:rgb(94.898987%,94.898987%,94.898987%);fill-opacity:1;" d="M 331.078125 187.214844 C 331.078125 189.570312 331.019531 191.925781 330.902344 194.277344 C 330.789062 196.628906 330.613281 198.972656 330.382812 201.316406 C 330.152344 203.660156 329.863281 205.996094 329.519531 208.324219 C 329.171875 210.652344 328.769531 212.972656 328.3125 215.28125 C 327.851562 217.589844 327.335938 219.886719 326.765625 222.171875 C 326.191406 224.457031 325.566406 226.722656 324.882812 228.976562 C 324.199219 231.230469 323.460938 233.464844 322.667969 235.679688 C 321.875 237.898438 321.027344 240.09375 320.125 242.269531 C 319.222656 244.445312 318.269531 246.597656 317.265625 248.722656 C 316.257812 250.851562 315.199219 252.957031 314.089844 255.03125 C 312.980469 257.109375 311.820312 259.15625 310.609375 261.175781 C 309.398438 263.195312 308.140625 265.183594 306.832031 267.140625 C 305.523438 269.097656 304.167969 271.023438 302.765625 272.914062 C 301.363281 274.804688 299.914062 276.660156 298.421875 278.480469 C 296.929688 280.300781 295.390625 282.082031 293.808594 283.828125 C 292.226562 285.570312 290.605469 287.277344 288.941406 288.941406 C 287.277344 290.605469 285.570312 292.226562 283.828125 293.808594 C 282.082031 295.390625 280.300781 296.929688 278.480469 298.421875 C 276.660156 299.914062 274.804688 301.363281 272.914062 302.765625 C 271.023438 304.167969 269.097656 305.523438 267.140625 306.832031 C 265.183594 308.140625 263.195312 309.398438 261.175781 310.609375 C 259.15625 311.820312 257.109375 312.980469 255.03125 314.089844 C 252.957031 315.199219 250.851562 316.257812 248.722656 317.265625 C 246.597656 318.269531 244.445312 319.222656 242.269531 320.125 C 240.09375 321.027344 237.898438 321.875 235.679688 322.667969 C 233.464844 323.460938 231.230469 324.199219 228.976562 324.882812 C 226.722656 325.566406 224.457031 326.191406 222.171875 326.765625 C 219.886719 327.335938 217.589844 327.851562 215.28125 328.3125 C 212.972656 328.769531 210.652344 329.171875 208.324219 329.519531 C 205.996094 329.863281 203.660156 330.152344 201.316406 330.382812 C 198.972656 330.613281 196.628906 330.789062 194.277344 330.902344 C 191.925781 331.019531 189.570312 331.078125 187.214844 331.078125 C 184.863281 331.078125 182.507812 331.019531 180.15625 330.902344 C 177.804688 330.789062 175.460938 330.613281 173.117188 330.382812 C 170.773438 330.152344 168.4375 329.863281 166.109375 329.519531 C 163.777344 329.171875 161.460938 328.769531 159.152344 328.3125 C 156.84375 327.851562 154.546875 327.335938 152.261719 326.765625 C 149.976562 326.191406 147.710938 325.566406 145.457031 324.882812 C 143.203125 324.199219 140.96875 323.460938 138.75 322.667969 C 136.535156 321.875 134.339844 321.027344 132.164062 320.125 C 129.988281 319.222656 127.835938 318.269531 125.707031 317.265625 C 123.582031 316.257812 121.476562 315.199219 119.402344 314.089844 C 117.324219 312.980469 115.277344 311.820312 113.257812 310.609375 C 111.238281 309.398438 109.25 308.140625 107.292969 306.832031 C 105.335938 305.523438 103.410156 304.167969 101.519531 302.765625 C 99.628906 301.363281 97.773438 299.914062 95.953125 298.421875 C 94.132812 296.929688 92.351562 295.390625 90.605469 293.808594 C 88.863281 292.226562 87.15625 290.605469 85.492188 288.941406 C 83.828125 287.277344 82.203125 285.570312 80.625 283.828125 C 79.042969 282.082031 77.503906 280.300781 76.011719 278.480469 C 74.519531 276.660156 73.070312 274.804688 71.667969 272.914062 C 70.265625 271.023438 68.910156 269.097656 67.601562 267.140625 C 66.292969 265.183594 65.035156 263.195312 63.824219 261.175781 C 62.613281 259.15625 61.453125 257.109375 60.34375 255.03125 C 59.234375 252.957031 58.175781 250.851562 57.167969 248.722656 C 56.164062 246.597656 55.207031 244.445312 54.308594 242.269531 C 53.40625 240.09375 52.558594 237.898438 51.765625 235.679688 C 50.972656 233.464844 50.234375 231.230469 49.550781 228.976562 C 48.867188 226.722656 48.242188 224.457031 47.667969 222.171875 C 47.097656 219.886719 46.582031 217.589844 46.121094 215.28125 C 45.664062 212.972656 45.257812 210.652344 44.914062 208.324219 C 44.570312 205.996094 44.28125 203.660156 44.050781 201.316406 C 43.820312 198.972656 43.644531 196.628906 43.53125 194.277344 C 43.414062 191.925781 43.355469 189.570312 43.355469 187.214844 C 43.355469 184.863281 43.414062 182.507812 43.53125 180.15625 C 43.644531 177.804688 43.820312 175.460938 44.050781 173.117188 C 44.28125 170.773438 44.570312 168.4375 44.914062 166.109375 C 45.257812 163.777344 45.664062 161.460938 46.121094 159.152344 C 46.582031 156.84375 47.097656 154.546875 47.667969 152.261719 C 48.242188 149.976562 48.867188 147.710938 49.550781 145.457031 C 50.234375 143.203125 50.972656 140.96875 51.765625 138.75 C 52.558594 136.535156 53.40625 134.339844 54.308594 132.164062 C 55.207031 129.988281 56.164062 127.835938 57.167969 125.707031 C 58.175781 123.582031 59.234375 121.476562 60.34375 119.402344 C 61.453125 117.324219 62.613281 115.277344 63.824219 113.257812 C 65.035156 111.238281 66.292969 109.25 67.601562 107.292969 C 68.910156 105.335938 70.265625 103.410156 71.667969 101.519531 C 73.070312 99.628906 74.519531 97.773438 76.011719 95.953125 C 77.503906 94.132812 79.042969 92.351562 80.625 90.605469 C 82.203125 88.863281 83.828125 87.15625 85.492188 85.492188 C 87.15625 83.828125 88.863281 82.203125 90.605469 80.625 C 92.351562 79.042969 94.132812 77.503906 95.953125 76.011719 C 97.773438 74.519531 99.628906 73.070312 101.519531 71.667969 C 103.410156 70.265625 105.335938 68.910156 107.292969 67.601562 C 109.25 66.292969 111.238281 65.035156 113.257812 63.824219 C 115.277344 62.613281 117.324219 61.453125 119.402344 60.34375 C 121.476562 59.234375 123.582031 58.175781 125.707031 57.167969 C 127.835938 56.164062 129.988281 55.207031 132.164062 54.308594 C 134.339844 53.40625 136.535156 52.558594 138.75 51.765625 C 140.96875 50.972656 143.203125 50.234375 145.457031 49.550781 C 147.710938 48.867188 149.976562 48.242188 152.261719 47.667969 C 154.546875 47.097656 156.84375 46.582031 159.152344 46.121094 C 161.460938 45.664062 163.777344 45.257812 166.109375 44.914062 C 168.4375 44.570312 170.773438 44.28125 173.117188 44.050781 C 175.460938 43.820312 177.804688 43.644531 180.15625 43.53125 C 182.507812 43.414062 184.863281 43.355469 187.214844 43.355469 C 189.570312 43.355469 191.925781 43.414062 194.277344 43.53125 C 196.628906 43.644531 198.972656 43.820312 201.316406 44.050781 C 203.660156 44.28125 205.996094 44.570312 208.324219 44.914062 C 210.652344 45.257812 212.972656 45.664062 215.28125 46.121094 C 217.589844 46.582031 219.886719 47.097656 222.171875 47.667969 C 224.457031 48.242188 226.722656 48.867188 228.976562 49.550781 C 231.230469 50.234375 233.464844 50.972656 235.679688 51.765625 C 237.898438 52.558594 240.09375 53.40625 242.269531 54.308594 C 244.445312 55.207031 246.597656 56.164062 248.722656 57.167969 C 250.851562 58.175781 252.957031 59.234375 255.03125 60.34375 C 257.109375 61.453125 259.15625 62.613281 261.175781 63.824219 C 263.195312 65.035156 265.183594 66.292969 267.140625 67.601562 C 269.097656 68.910156 271.023438 70.265625 272.914062 71.667969 C 274.804688 73.070312 276.660156 74.519531 278.480469 76.011719 C 280.300781 77.503906 282.082031 79.042969 283.828125 80.625 C 285.570312 82.203125 287.277344 83.828125 288.941406 85.492188 C 290.605469 87.15625 292.226562 88.863281 293.808594 90.605469 C 295.390625 92.351562 296.929688 94.132812 298.421875 95.953125 C 299.914062 97.773438 301.363281 99.628906 302.765625 101.519531 C 304.167969 103.410156 305.523438 105.335938 306.832031 107.292969 C 308.140625 109.25 309.398438 111.238281 310.609375 113.257812 C 311.820312 115.277344 312.980469 117.324219 314.089844 119.402344 C 315.199219 121.476562 316.257812 123.582031 317.265625 125.707031 C 318.269531 127.835938 319.222656 129.988281 320.125 132.164062 C 321.027344 134.339844 321.875 136.535156 322.667969 138.75 C 323.460938 140.96875 324.199219 143.203125 324.882812 145.457031 C 325.566406 147.710938 326.191406 149.976562 326.765625 152.261719 C 327.335938 154.546875 327.851562 156.84375 328.3125 159.152344 C 328.769531 161.460938 329.171875 163.777344 329.519531 166.109375 C 329.863281 168.4375 330.152344 170.773438 330.382812 173.117188 C 330.613281 175.460938 330.789062 177.804688 330.902344 180.15625 C 331.019531 182.507812 331.078125 184.863281 331.078125 187.214844 Z M 331.078125 187.214844 "/>
</g>
<path style=" stroke:none;fill-rule:nonzero;fill:rgb(94.898987%,94.898987%,94.898987%);fill-opacity:1;" d="M 91.722656 96.960938 L 63.988281 88.523438 L 91.722656 80.082031 Z M 91.722656 96.960938 "/>
<path style=" stroke:none;fill-rule:nonzero;fill:rgb(79.998779%,79.60968%,79.219055%);fill-opacity:1;" d="M 63.988281 88.523438 L 91.722656 96.960938 L 91.722656 91.65625 Z M 63.988281 88.523438 "/>
<path style=" stroke:none;fill-rule:nonzero;fill:rgb(27.839661%,30.979919%,34.899902%);fill-opacity:1;" d="M 91.722656 80.082031 L 302.289062 80.082031 L 302.289062 96.964844 L 91.722656 96.964844 Z M 91.722656 80.082031 "/>
<path style=" stroke:none;fill-rule:nonzero;fill:rgb(13.729858%,18.03894%,21.958923%);fill-opacity:1;" d="M 91.722656 91.65625 L 302.289062 91.65625 L 302.289062 96.964844 L 91.722656 96.964844 Z M 91.722656 91.65625 "/>
<path style=" stroke:none;fill-rule:nonzero;fill:rgb(20.779419%,24.708557%,28.62854%);fill-opacity:1;" d="M 74.84375 91.820312 L 63.988281 88.523438 L 74.84375 85.203125 Z M 74.84375 91.820312 "/>
<path style=" stroke:none;fill-rule:nonzero;fill:rgb(13.729858%,18.03894%,21.958923%);fill-opacity:1;" d="M 74.84375 91.820312 L 63.988281 88.523438 L 74.84375 89.75 Z M 74.84375 91.820312 "/>
<path style=" stroke:none;fill-rule:nonzero;fill:rgb(94.898987%,94.898987%,94.898987%);fill-opacity:1;" d="M 302.289062 80.082031 L 312.085938 80.082031 L 312.085938 96.964844 L 302.289062 96.964844 Z M 302.289062 80.082031 "/>
<path style=" stroke:none;fill-rule:nonzero;fill:rgb(79.998779%,79.60968%,79.219055%);fill-opacity:1;" d="M 302.289062 91.65625 L 312.085938 91.65625 L 312.085938 96.964844 L 302.289062 96.964844 Z M 302.289062 91.65625 "/>
<g clip-path="url(#clip2)" clip-rule="nonzero">
<path style=" stroke:none;fill-rule:nonzero;fill:rgb(96.469116%,51.368713%,37.649536%);fill-opacity:1;" d="M 322.636719 96.960938 C 324.792969 96.960938 326.957031 96.136719 328.605469 94.492188 C 330.253906 92.84375 331.078125 90.683594 331.078125 88.519531 C 331.078125 86.363281 330.253906 84.203125 328.605469 82.554688 C 326.957031 80.90625 324.796875 80.082031 322.636719 80.082031 L 312.085938 80.082031 L 312.085938 96.964844 L 322.636719 96.964844 Z M 322.636719 96.960938 "/>
<path style=" stroke:none;fill-rule:nonzero;fill:rgb(92.939758%,42.749023%,27.839661%);fill-opacity:1;" d="M 328.605469 82.554688 C 327.644531 81.59375 326.507812 80.949219 325.304688 80.546875 C 325.589844 81.410156 325.769531 82.308594 325.769531 83.210938 C 325.769531 85.371094 324.945312 87.53125 323.296875 89.179688 C 321.652344 90.828125 319.488281 91.652344 317.328125 91.652344 L 312.085938 91.652344 L 312.085938 96.960938 L 322.636719 96.960938 C 324.796875 96.960938 326.957031 96.136719 328.609375 94.488281 C 330.257812 92.839844 331.078125 90.683594 331.078125 88.519531 C 331.078125 86.359375 330.253906 84.199219 328.605469 82.554688 Z M 328.605469 82.554688 "/>
</g>
<g clip-path="url(#clip3)" clip-rule="nonzero">
<path style=" stroke:none;fill-rule:nonzero;fill:rgb(56.858826%,82.749939%,85.099792%);fill-opacity:1;" d="M 251.339844 43.355469 L 284.761719 43.355469 L 284.761719 274.441406 L 251.339844 274.441406 Z M 251.339844 43.355469 "/>
</g>
<path style=" stroke:none;fill-rule:nonzero;fill:rgb(100%,100%,100%);fill-opacity:1;" d="M 251.339844 265.90625 L 260.152344 265.90625 L 260.152344 267.566406 L 251.339844 267.566406 Z M 251.339844 265.90625 "/>
<path style=" stroke:none;fill-rule:nonzero;fill:rgb(100%,100%,100%);fill-opacity:1;" d="M 251.339844 250.503906 L 260.152344 250.503906 L 260.152344 252.164062 L 251.339844 252.164062 Z M 251.339844 250.503906 "/>
<path style=" stroke:none;fill-rule:nonzero;fill:rgb(100%,100%,100%);fill-opacity:1;" d="M 251.339844 235.09375 L 260.152344 235.09375 L 260.152344 236.753906 L 251.339844 236.753906 Z M 251.339844 235.09375 "/>
<path style=" stroke:none;fill-rule:nonzero;fill:rgb(100%,100%,100%);fill-opacity:1;" d="M 251.339844 219.691406 L 260.152344 219.691406 L 260.152344 221.351562 L 251.339844 221.351562 Z M 251.339844 219.691406 "/>
<path style=" stroke:none;fill-rule:nonzero;fill:rgb(100%,100%,100%);fill-opacity:1;" d="M 251.339844 204.285156 L 260.152344 204.285156 L 260.152344 205.945312 L 251.339844 205.945312 Z M 251.339844 204.285156 "/>
<path style=" stroke:none;fill-rule:nonzero;fill:rgb(100%,100%,100%);fill-opacity:1;" d="M 251.339844 188.878906 L 260.152344 188.878906 L 260.152344 190.539062 L 251.339844 190.539062 Z M 251.339844 188.878906 "/>
<path style=" stroke:none;fill-rule:nonzero;fill:rgb(100%,100%,100%);fill-opacity:1;" d="M 251.339844 173.476562 L 260.152344 173.476562 L 260.152344 175.132812 L 251.339844 175.132812 Z M 251.339844 173.476562 "/>
<path style=" stroke:none;fill-rule:nonzero;fill:rgb(100%,100%,100%);fill-opacity:1;" d="M 251.339844 158.070312 L 260.152344 158.070312 L 260.152344 159.730469 L 251.339844 159.730469 Z M 251.339844 158.070312 "/>
<path style=" stroke:none;fill-rule:nonzero;fill:rgb(100%,100%,100%);fill-opacity:1;" d="M 251.339844 142.660156 L 260.152344 142.660156 L 260.152344 144.320312 L 251.339844 144.320312 Z M 251.339844 142.660156 "/>
<path style=" stroke:none;fill-rule:nonzero;fill:rgb(100%,100%,100%);fill-opacity:1;" d="M 251.339844 127.257812 L 260.152344 127.257812 L 260.152344 128.917969 L 251.339844 128.917969 Z M 251.339844 127.257812 "/>
<path style=" stroke:none;fill-rule:nonzero;fill:rgb(100%,100%,100%);fill-opacity:1;" d="M 251.339844 111.851562 L 260.152344 111.851562 L 260.152344 113.511719 L 251.339844 113.511719 Z M 251.339844 111.851562 "/>
<path style=" stroke:none;fill-rule:nonzero;fill:rgb(100%,100%,100%);fill-opacity:1;" d="M 251.339844 88.746094 L 255.742188 88.746094 L 255.742188 90.40625 L 251.339844 90.40625 Z M 251.339844 88.746094 "/>
<path style=" stroke:none;fill-rule:nonzero;fill:rgb(100%,100%,100%);fill-opacity:1;" d="M 251.339844 73.339844 L 255.976562 73.339844 L 255.976562 75 L 251.339844 75 Z M 251.339844 73.339844 "/>
<path style=" stroke:none;fill-rule:nonzero;fill:rgb(100%,100%,100%);fill-opacity:1;" d="M 251.339844 57.929688 L 255.976562 57.929688 L 255.976562 59.589844 L 251.339844 59.589844 Z M 251.339844 57.929688 "/>
<path style=" stroke:none;fill-rule:nonzero;fill:rgb(100%,100%,100%);fill-opacity:1;" d="M 251.339844 258.203125 L 255.976562 258.203125 L 255.976562 259.863281 L 251.339844 259.863281 Z M 251.339844 258.203125 "/>
<path style=" stroke:none;fill-rule:nonzero;fill:rgb(100%,100%,100%);fill-opacity:1;" d="M 251.339844 242.800781 L 255.976562 242.800781 L 255.976562 244.457031 L 251.339844 244.457031 Z M 251.339844 242.800781 "/>
<path style=" stroke:none;fill-rule:nonzero;fill:rgb(100%,100%,100%);fill-opacity:1;" d="M 251.339844 227.394531 L 255.976562 227.394531 L 255.976562 229.054688 L 251.339844 229.054688 Z M 251.339844 227.394531 "/>
<path style=" stroke:none;fill-rule:nonzero;fill:rgb(100%,100%,100%);fill-opacity:1;" d="M 251.339844 211.988281 L 255.976562 211.988281 L 255.976562 213.648438 L 251.339844 213.648438 Z M 251.339844 211.988281 "/>
<path style=" stroke:none;fill-rule:nonzero;fill:rgb(100%,100%,100%);fill-opacity:1;" d="M 251.339844 196.582031 L 255.976562 196.582031 L 255.976562 198.242188 L 251.339844 198.242188 Z M 251.339844 196.582031 "/>
<path style=" stroke:none;fill-rule:nonzero;fill:rgb(100%,100%,100%);fill-opacity:1;" d="M 251.339844 181.179688 L 255.984375 181.179688 L 255.984375 182.835938 L 251.339844 182.835938 Z M 251.339844 181.179688 "/>
<path style=" stroke:none;fill-rule:nonzero;fill:rgb(100%,100%,100%);fill-opacity:1;" d="M 251.339844 165.773438 L 255.976562 165.773438 L 255.976562 167.433594 L 251.339844 167.433594 Z M 251.339844 165.773438 "/>
<path style=" stroke:none;fill-rule:nonzero;fill:rgb(100%,100%,100%);fill-opacity:1;" d="M 251.339844 150.367188 L 255.976562 150.367188 L 255.976562 152.027344 L 251.339844 152.027344 Z M 251.339844 150.367188 "/>
<path style=" stroke:none;fill-rule:nonzero;fill:rgb(100%,100%,100%);fill-opacity:1;" d="M 251.339844 134.960938 L 255.976562 134.960938 L 255.976562 136.617188 L 251.339844 136.617188 Z M 251.339844 134.960938 "/>
<path style=" stroke:none;fill-rule:nonzero;fill:rgb(100%,100%,100%);fill-opacity:1;" d="M 251.339844 119.554688 L 255.976562 119.554688 L 255.976562 121.214844 L 251.339844 121.214844 Z M 251.339844 119.554688 "/>
<path style=" stroke:none;fill-rule:nonzero;fill:rgb(100%,100%,100%);fill-opacity:1;" d="M 251.339844 104.148438 L 255.976562 104.148438 L 255.976562 105.808594 L 251.339844 105.808594 Z M 251.339844 104.148438 "/>
<path style=" stroke:none;fill-rule:nonzero;fill:rgb(100%,100%,100%);fill-opacity:1;" d="M 251.339844 96.449219 L 260.152344 96.449219 L 260.152344 98.105469 L 251.339844 98.105469 Z M 251.339844 96.449219 "/>
<path style=" stroke:none;fill-rule:nonzero;fill:rgb(100%,100%,100%);fill-opacity:1;" d="M 251.339844 81.039062 L 260.152344 81.039062 L 260.152344 82.699219 L 251.339844 82.699219 Z M 251.339844 81.039062 "/>
<path style=" stroke:none;fill-rule:nonzero;fill:rgb(100%,100%,100%);fill-opacity:1;" d="M 251.339844 65.632812 L 260.152344 65.632812 L 260.152344 67.292969 L 251.339844 67.292969 Z M 251.339844 65.632812 "/>
<path style=" stroke:none;fill-rule:nonzero;fill:rgb(100%,100%,100%);fill-opacity:1;" d="M 251.339844 50.230469 L 260.152344 50.230469 L 260.152344 51.890625 L 251.339844 51.890625 Z M 251.339844 50.230469 "/>
<path style=" stroke:none;fill-rule:nonzero;fill:rgb(100%,59.999084%,47.059631%);fill-opacity:1;" d="M 204.511719 198.046875 L 199.34375 198.046875 L 197.835938 205.566406 L 206.019531 205.566406 Z M 204.511719 198.046875 "/>
<path style=" stroke:none;fill-rule:nonzero;fill:rgb(100%,59.999084%,47.059631%);fill-opacity:1;" d="M 187.128906 201.316406 L 182.652344 203.902344 L 185.105469 211.175781 L 192.195312 207.082031 Z M 187.128906 201.316406 "/>
<path style=" stroke:none;fill-rule:nonzero;fill:rgb(100%,59.999084%,47.059631%);fill-opacity:1;" d="M 173.710938 212.84375 L 171.125 217.320312 L 176.886719 222.390625 L 180.976562 215.300781 Z M 173.710938 212.84375 "/>
<path style=" stroke:none;fill-rule:nonzero;fill:rgb(100%,59.999084%,47.059631%);fill-opacity:1;" d="M 167.851562 229.539062 L 167.851562 234.707031 L 175.375 236.214844 L 175.375 228.03125 Z M 167.851562 229.539062 "/>
<path style=" stroke:none;fill-rule:nonzero;fill:rgb(100%,59.999084%,47.059631%);fill-opacity:1;" d="M 171.125 246.921875 L 173.710938 251.398438 L 180.976562 248.941406 L 176.886719 241.851562 Z M 171.125 246.921875 "/>
<path style=" stroke:none;fill-rule:nonzero;fill:rgb(100%,59.999084%,47.059631%);fill-opacity:1;" d="M 182.652344 260.339844 L 187.128906 262.925781 L 192.195312 257.164062 L 185.105469 253.070312 Z M 182.652344 260.339844 "/>
<path style=" stroke:none;fill-rule:nonzero;fill:rgb(100%,59.999084%,47.059631%);fill-opacity:1;" d="M 199.347656 266.195312 L 204.511719 266.195312 L 206.019531 258.675781 L 197.835938 258.675781 Z M 199.347656 266.195312 "/>
<path style=" stroke:none;fill-rule:nonzero;fill:rgb(100%,59.999084%,47.059631%);fill-opacity:1;" d="M 216.730469 262.925781 L 221.203125 260.339844 L 218.75 253.070312 L 211.660156 257.164062 Z M 216.730469 262.925781 "/>
<path style=" stroke:none;fill-rule:nonzero;fill:rgb(100%,59.999084%,47.059631%);fill-opacity:1;" d="M 230.144531 251.398438 L 232.730469 246.921875 L 226.972656 241.851562 L 222.878906 248.941406 Z M 230.144531 251.398438 "/>
<path style=" stroke:none;fill-rule:nonzero;fill:rgb(100%,59.999084%,47.059631%);fill-opacity:1;" d="M 236.003906 234.707031 L 236.003906 229.539062 L 228.484375 228.03125 L 228.484375 236.214844 Z M 236.003906 234.707031 "/>
<path style=" stroke:none;fill-rule:nonzero;fill:rgb(100%,59.999084%,47.059631%);fill-opacity:1;" d="M 232.730469 217.320312 L 230.144531 212.84375 L 222.878906 215.300781 L 226.972656 222.390625 Z M 232.730469 217.320312 "/>
<path style=" stroke:none;fill-rule:nonzero;fill:rgb(100%,59.999084%,47.059631%);fill-opacity:1;" d="M 221.203125 203.902344 L 216.726562 201.320312 L 211.660156 207.082031 L 218.75 211.171875 Z M 221.203125 203.902344 "/>
<path style=" stroke:none;fill-rule:nonzero;fill:rgb(96.469116%,51.368713%,37.649536%);fill-opacity:1;" d="M 201.925781 205.257812 C 187.085938 205.257812 175.0625 217.28125 175.0625 232.121094 C 175.0625 246.964844 187.085938 258.984375 201.925781 258.984375 C 216.769531 258.984375 228.792969 246.964844 228.792969 232.121094 C 228.792969 217.28125 216.769531 205.257812 201.925781 205.257812 Z M 201.925781 239.5625 C 197.824219 239.5625 194.488281 236.226562 194.488281 232.121094 C 194.488281 228.015625 197.824219 224.679688 201.925781 224.679688 C 206.03125 224.679688 209.367188 228.015625 209.367188 232.121094 C 209.367188 236.226562 206.03125 239.5625 201.925781 239.5625 Z M 201.925781 239.5625 "/>
<path style=" stroke:none;fill-rule:nonzero;fill:rgb(13.729858%,18.03894%,21.958923%);fill-opacity:1;" d="M 201.925781 219.226562 C 194.804688 219.226562 189.035156 224.996094 189.035156 232.121094 C 189.035156 239.246094 194.804688 245.015625 201.925781 245.015625 C 209.050781 245.015625 214.820312 239.246094 214.820312 232.121094 C 214.820312 224.996094 209.050781 219.226562 201.925781 219.226562 Z M 201.925781 238.574219 C 198.371094 238.574219 195.480469 235.683594 195.480469 232.125 C 195.480469 228.566406 198.371094 225.679688 201.925781 225.679688 C 205.484375 225.679688 208.375 228.566406 208.375 232.125 C 208.375 235.679688 205.484375 238.574219 201.925781 238.574219 Z M 201.925781 238.574219 "/>
<g clip-path="url(#clip4)" clip-rule="nonzero">
<path style=" stroke:none;fill-rule:nonzero;fill:rgb(20.779419%,24.708557%,28.62854%);fill-opacity:1;" d="M 331.058594 184.984375 L 331.058594 189.449219 C 330.390625 233.554688 309.859375 272.855469 278.023438 298.792969 L 209.726562 298.792969 L 209.726562 142.214844 L 323.890625 142.214844 C 328.335938 155.703125 330.832031 170.0625 331.058594 184.984375 Z M 331.058594 184.984375 "/>
</g>
<path style=" stroke:none;fill-rule:nonzero;fill:rgb(67.059326%,87.838745%,89.7995%);fill-opacity:1;" d="M 222.84375 155.496094 L 247.636719 155.496094 L 247.636719 157.953125 L 222.84375 157.953125 Z M 222.84375 155.496094 "/>
<path style=" stroke:none;fill-rule:nonzero;fill:rgb(67.059326%,87.838745%,89.7995%);fill-opacity:1;" d="M 222.84375 174.367188 L 229.835938 174.367188 L 229.835938 176.824219 L 222.84375 176.824219 Z M 222.84375 174.367188 "/>
<path style=" stroke:none;fill-rule:nonzero;fill:rgb(96.469116%,51.368713%,37.649536%);fill-opacity:1;" d="M 251.960938 155.496094 L 261.816406 155.496094 L 261.816406 157.953125 L 251.960938 157.953125 Z M 251.960938 155.496094 "/>
<path style=" stroke:none;fill-rule:nonzero;fill:rgb(39.608765%,41.569519%,45.098877%);fill-opacity:1;" d="M 231.644531 174.367188 L 256.871094 174.367188 L 256.871094 176.824219 L 231.644531 176.824219 Z M 231.644531 174.367188 "/>
<path style=" stroke:none;fill-rule:nonzero;fill:rgb(67.059326%,87.838745%,89.7995%);fill-opacity:1;" d="M 229.832031 161.945312 L 240.953125 161.945312 L 240.953125 164.402344 L 229.832031 164.402344 Z M 229.832031 161.945312 "/>
<path style=" stroke:none;fill-rule:nonzero;fill:rgb(67.059326%,87.838745%,89.7995%);fill-opacity:1;" d="M 229.832031 193.71875 L 240.953125 193.71875 L 240.953125 196.175781 L 229.832031 196.175781 Z M 229.832031 193.71875 "/>
<path style=" stroke:none;fill-rule:nonzero;fill:rgb(90.19928%,89.7995%,89.7995%);fill-opacity:1;" d="M 222.84375 231.9375 L 240.953125 231.9375 L 240.953125 234.394531 L 222.84375 234.394531 Z M 222.84375 231.9375 "/>
<path style=" stroke:none;fill-rule:nonzero;fill:rgb(67.059326%,87.838745%,89.7995%);fill-opacity:1;" d="M 229.832031 200.171875 L 234.421875 200.171875 L 234.421875 202.628906 L 229.832031 202.628906 Z M 229.832031 200.171875 "/>
<path style=" stroke:none;fill-rule:nonzero;fill:rgb(67.059326%,87.838745%,89.7995%);fill-opacity:1;" d="M 243.578125 193.71875 L 272.625 193.71875 L 272.625 196.175781 L 243.578125 196.175781 Z M 243.578125 193.71875 "/>
<path style=" stroke:none;fill-rule:nonzero;fill:rgb(67.059326%,87.838745%,89.7995%);fill-opacity:1;" d="M 241.71875 213.070312 L 269.882812 213.070312 L 269.882812 215.523438 L 241.71875 215.523438 Z M 241.71875 213.070312 "/>
<path style=" stroke:none;fill-rule:nonzero;fill:rgb(67.059326%,87.838745%,89.7995%);fill-opacity:1;" d="M 235.746094 283.054688 L 245.851562 283.054688 L 245.851562 285.511719 L 235.746094 285.511719 Z M 235.746094 283.054688 "/>
<path style=" stroke:none;fill-rule:nonzero;fill:rgb(90.19928%,89.7995%,89.7995%);fill-opacity:1;" d="M 273.292969 238.386719 L 283.710938 238.386719 L 283.710938 240.84375 L 273.292969 240.84375 Z M 273.292969 238.386719 "/>
<path style=" stroke:none;fill-rule:nonzero;fill:rgb(90.19928%,89.7995%,89.7995%);fill-opacity:1;" d="M 243.882812 270.15625 L 263.503906 270.15625 L 263.503906 272.613281 L 243.882812 272.613281 Z M 243.882812 270.15625 "/>
<path style=" stroke:none;fill-rule:nonzero;fill:rgb(90.19928%,89.7995%,89.7995%);fill-opacity:1;" d="M 250.242188 283.054688 L 273.300781 283.054688 L 273.300781 285.511719 L 250.242188 285.511719 Z M 250.242188 283.054688 "/>
<path style=" stroke:none;fill-rule:nonzero;fill:rgb(96.469116%,51.368713%,37.649536%);fill-opacity:1;" d="M 291.699219 251.285156 L 300.082031 251.285156 L 300.082031 253.738281 L 291.699219 253.738281 Z M 291.699219 251.285156 "/>
<path style=" stroke:none;fill-rule:nonzero;fill:rgb(96.469116%,51.368713%,37.649536%);fill-opacity:1;" d="M 274.980469 213.070312 L 295.890625 213.070312 L 295.890625 215.523438 L 274.980469 215.523438 Z M 274.980469 213.070312 "/>
<path style=" stroke:none;fill-rule:nonzero;fill:rgb(39.608765%,41.569519%,45.098877%);fill-opacity:1;" d="M 275.921875 193.71875 L 296.8125 193.71875 L 296.8125 196.175781 L 275.921875 196.175781 Z M 275.921875 193.71875 "/>
<path style=" stroke:none;fill-rule:nonzero;fill:rgb(39.608765%,41.569519%,45.098877%);fill-opacity:1;" d="M 301.066406 193.71875 L 313.859375 193.71875 L 313.859375 196.175781 L 301.066406 196.175781 Z M 301.066406 193.71875 "/>
<path style=" stroke:none;fill-rule:nonzero;fill:rgb(39.608765%,41.569519%,45.098877%);fill-opacity:1;" d="M 229.832031 180.820312 L 246.421875 180.820312 L 246.421875 183.277344 L 229.832031 183.277344 Z M 229.832031 180.820312 "/>
<path style=" stroke:none;fill-rule:nonzero;fill:rgb(39.608765%,41.569519%,45.098877%);fill-opacity:1;" d="M 229.832031 187.269531 L 253.359375 187.269531 L 253.359375 189.726562 L 229.832031 189.726562 Z M 229.832031 187.269531 "/>
<path style=" stroke:none;fill-rule:nonzero;fill:rgb(39.608765%,41.569519%,45.098877%);fill-opacity:1;" d="M 236.117188 200.171875 L 263.078125 200.171875 L 263.078125 202.628906 L 236.117188 202.628906 Z M 236.117188 200.171875 "/>
<path style=" stroke:none;fill-rule:nonzero;fill:rgb(90.19928%,89.7995%,89.7995%);fill-opacity:1;" d="M 229.832031 244.835938 L 256.792969 244.835938 L 256.792969 247.292969 L 229.832031 247.292969 Z M 229.832031 244.835938 "/>
<path style=" stroke:none;fill-rule:nonzero;fill:rgb(39.608765%,41.569519%,45.098877%);fill-opacity:1;" d="M 229.832031 251.285156 L 259.433594 251.285156 L 259.433594 253.738281 L 229.832031 253.738281 Z M 229.832031 251.285156 "/>
<path style=" stroke:none;fill-rule:nonzero;fill:rgb(96.469116%,51.368713%,37.649536%);fill-opacity:1;" d="M 255.050781 276.613281 L 307.460938 276.613281 L 307.460938 279.0625 L 255.050781 279.0625 Z M 255.050781 276.613281 "/>
<path style=" stroke:none;fill-rule:nonzero;fill:rgb(39.608765%,41.569519%,45.098877%);fill-opacity:1;" d="M 280.324219 283.054688 L 291.800781 283.054688 L 291.800781 285.511719 L 280.324219 285.511719 Z M 280.324219 283.054688 "/>
<path style=" stroke:none;fill-rule:nonzero;fill:rgb(39.608765%,41.569519%,45.098877%);fill-opacity:1;" d="M 262.621094 251.285156 L 288.300781 251.285156 L 288.300781 253.738281 L 262.621094 253.738281 Z M 262.621094 251.285156 "/>
<path style=" stroke:none;fill-rule:nonzero;fill:rgb(39.608765%,41.569519%,45.098877%);fill-opacity:1;" d="M 270.972656 270.15625 L 296.648438 270.15625 L 296.648438 272.613281 L 270.972656 272.613281 Z M 270.972656 270.15625 "/>
<path style=" stroke:none;fill-rule:nonzero;fill:rgb(67.059326%,87.838745%,89.7995%);fill-opacity:1;" d="M 236.117188 206.621094 L 244.878906 206.621094 L 244.878906 209.078125 L 236.117188 209.078125 Z M 236.117188 206.621094 "/>
<path style=" stroke:none;fill-rule:nonzero;fill:rgb(67.059326%,87.838745%,89.7995%);fill-opacity:1;" d="M 236.117188 219.515625 L 245.644531 219.515625 L 245.644531 221.972656 L 236.117188 221.972656 Z M 236.117188 219.515625 "/>
<path style=" stroke:none;fill-rule:nonzero;fill:rgb(67.059326%,87.838745%,89.7995%);fill-opacity:1;" d="M 229.832031 238.386719 L 269.882812 238.386719 L 269.882812 240.84375 L 229.832031 240.84375 Z M 229.832031 238.386719 "/>
<path style=" stroke:none;fill-rule:nonzero;fill:rgb(67.059326%,87.838745%,89.7995%);fill-opacity:1;" d="M 222.84375 270.15625 L 240.800781 270.15625 L 240.800781 272.613281 L 222.84375 272.613281 Z M 222.84375 270.15625 "/>
<path style=" stroke:none;fill-rule:nonzero;fill:rgb(67.059326%,87.838745%,89.7995%);fill-opacity:1;" d="M 229.832031 276.609375 L 250.289062 276.609375 L 250.289062 279.0625 L 229.832031 279.0625 Z M 229.832031 276.609375 "/>
<path style=" stroke:none;fill-rule:nonzero;fill:rgb(90.19928%,89.7995%,89.7995%);fill-opacity:1;" d="M 247.636719 206.621094 L 300.269531 206.621094 L 300.269531 209.078125 L 247.636719 209.078125 Z M 247.636719 206.621094 "/>
<path style=" stroke:none;fill-rule:nonzero;fill:rgb(39.608765%,41.569519%,45.098877%);fill-opacity:1;" d="M 235.433594 257.734375 L 252.261719 257.734375 L 252.261719 260.191406 L 235.433594 260.191406 Z M 235.433594 257.734375 "/>
<path style=" stroke:none;fill-rule:nonzero;fill:rgb(90.19928%,89.7995%,89.7995%);fill-opacity:1;" d="M 258.035156 257.734375 L 304.574219 257.734375 L 304.574219 260.191406 L 258.035156 260.191406 Z M 258.035156 257.734375 "/>
<path style=" stroke:none;fill-rule:nonzero;fill:rgb(96.469116%,51.368713%,37.649536%);fill-opacity:1;" d="M 268.625 200.171875 L 286.367188 200.171875 L 286.367188 202.628906 L 268.625 202.628906 Z M 268.625 200.171875 "/>
<path style=" stroke:none;fill-rule:nonzero;fill:rgb(39.608765%,41.569519%,45.098877%);fill-opacity:1;" d="M 255.867188 187.269531 L 279.382812 187.269531 L 279.382812 189.726562 L 255.867188 189.726562 Z M 255.867188 187.269531 "/>
<path style=" stroke:none;fill-rule:nonzero;fill:rgb(96.469116%,51.368713%,37.649536%);fill-opacity:1;" d="M 281.011719 187.269531 L 300.339844 187.269531 L 300.339844 189.726562 L 281.011719 189.726562 Z M 281.011719 187.269531 "/>
<path style=" stroke:none;fill-rule:nonzero;fill:rgb(90.19928%,89.7995%,89.7995%);fill-opacity:1;" d="M 307.464844 187.269531 L 317.933594 187.269531 L 317.933594 189.726562 L 307.464844 189.726562 Z M 307.464844 187.269531 "/>
<path style=" stroke:none;fill-rule:nonzero;fill:rgb(90.19928%,89.7995%,89.7995%);fill-opacity:1;" d="M 251.84375 180.820312 L 277.320312 180.820312 L 277.320312 183.277344 L 251.84375 183.277344 Z M 251.84375 180.820312 "/>
<path style=" stroke:none;fill-rule:nonzero;fill:rgb(90.19928%,89.7995%,89.7995%);fill-opacity:1;" d="M 245.066406 161.945312 L 270.289062 161.945312 L 270.289062 164.402344 L 245.066406 164.402344 Z M 245.066406 161.945312 "/>
<path style=" stroke:none;fill-rule:nonzero;fill:rgb(13.729858%,18.03894%,21.958923%);fill-opacity:1;" d="M 323.890625 142.214844 L 209.726562 142.214844 L 209.726562 127.355469 L 318.050781 127.355469 C 320.269531 132.167969 322.214844 137.128906 323.890625 142.214844 Z M 323.890625 142.214844 "/>
<path style=" stroke:none;fill-rule:nonzero;fill:rgb(13.729858%,18.03894%,21.958923%);fill-opacity:1;" d="M 63.988281 167.613281 C 63.988281 164.800781 66.277344 162.5 69.09375 162.5 L 152.800781 162.5 C 155.609375 162.5 157.90625 164.800781 157.90625 167.613281 L 157.90625 293.6875 C 157.90625 296.496094 155.609375 298.789062 152.800781 298.789062 L 69.09375 298.789062 C 66.277344 298.789062 63.988281 296.496094 63.988281 293.6875 Z M 63.988281 167.613281 "/>
<path style=" stroke:none;fill-rule:nonzero;fill:rgb(27.839661%,30.979919%,34.899902%);fill-opacity:1;" d="M 105.765625 293.09375 C 104.519531 293.09375 103.496094 292.074219 103.496094 290.820312 L 103.496094 290.261719 C 103.496094 289.003906 104.519531 287.984375 105.765625 287.984375 L 116.128906 287.984375 C 117.375 287.984375 118.398438 289.003906 118.398438 290.261719 L 118.398438 290.820312 C 118.398438 292.074219 117.375 293.09375 116.128906 293.09375 Z M 105.765625 293.09375 "/>
<path style=" stroke:none;fill-rule:nonzero;fill:rgb(27.839661%,30.979919%,34.899902%);fill-opacity:1;" d="M 110.9375 171.496094 C 109.644531 171.496094 108.609375 170.457031 108.609375 169.152344 C 108.609375 167.875 109.644531 166.816406 110.9375 166.816406 C 112.226562 166.816406 113.28125 167.875 113.28125 169.152344 C 113.28125 170.457031 112.222656 171.496094 110.9375 171.496094 Z M 110.9375 171.496094 "/>
<path style=" stroke:none;fill-rule:nonzero;fill:rgb(85.099792%,84.709167%,84.309387%);fill-opacity:1;" d="M 110.945312 170.136719 C 110.402344 170.136719 109.976562 169.699219 109.976562 169.15625 C 109.976562 168.617188 110.402344 168.179688 110.945312 168.179688 C 111.484375 168.179688 111.925781 168.617188 111.925781 169.15625 C 111.925781 169.699219 111.484375 170.136719 110.945312 170.136719 Z M 110.945312 170.136719 "/>
<path style=" stroke:none;fill-rule:nonzero;fill:rgb(100%,100%,100%);fill-opacity:1;" d="M 69.308594 175.816406 L 152.570312 175.816406 L 152.570312 282.289062 L 69.308594 282.289062 Z M 69.308594 175.816406 "/>
<path style=" stroke:none;fill-rule:nonzero;fill:rgb(96.469116%,51.368713%,37.649536%);fill-opacity:1;" d="M 72.59375 193.941406 L 89.222656 193.941406 L 89.222656 210.566406 L 72.59375 210.566406 Z M 72.59375 193.941406 "/>
<path style=" stroke:none;fill-rule:nonzero;fill:rgb(67.059326%,87.838745%,89.7995%);fill-opacity:1;" d="M 92.546875 193.941406 L 109.175781 193.941406 L 109.175781 210.566406 L 92.546875 210.566406 Z M 92.546875 193.941406 "/>
<path style=" stroke:none;fill-rule:nonzero;fill:rgb(100%,83.918762%,50.19989%);fill-opacity:1;" d="M 112.496094 193.941406 L 129.128906 193.941406 L 129.128906 210.566406 L 112.496094 210.566406 Z M 112.496094 193.941406 "/>
<path style=" stroke:none;fill-rule:nonzero;fill:rgb(27.839661%,30.979919%,34.899902%);fill-opacity:1;" d="M 132.449219 193.941406 L 149.082031 193.941406 L 149.082031 210.566406 L 132.449219 210.566406 Z M 132.449219 193.941406 "/>
<path style=" stroke:none;fill-rule:nonzero;fill:rgb(100%,83.918762%,50.19989%);fill-opacity:1;" d="M 72.59375 213.890625 L 89.222656 213.890625 L 89.222656 230.519531 L 72.59375 230.519531 Z M 72.59375 213.890625 "/>
<path style=" stroke:none;fill-rule:nonzero;fill:rgb(27.839661%,30.979919%,34.899902%);fill-opacity:1;" d="M 92.546875 213.890625 L 109.175781 213.890625 L 109.175781 230.519531 L 92.546875 230.519531 Z M 92.546875 213.890625 "/>
<path style=" stroke:none;fill-rule:nonzero;fill:rgb(67.059326%,87.838745%,89.7995%);fill-opacity:1;" d="M 112.496094 213.890625 L 129.128906 213.890625 L 129.128906 230.519531 L 112.496094 230.519531 Z M 112.496094 213.890625 "/>
<path style=" stroke:none;fill-rule:nonzero;fill:rgb(96.469116%,51.368713%,37.649536%);fill-opacity:1;" d="M 132.449219 213.890625 L 149.082031 213.890625 L 149.082031 230.519531 L 132.449219 230.519531 Z M 132.449219 213.890625 "/>
<path style=" stroke:none;fill-rule:nonzero;fill:rgb(96.469116%,51.368713%,37.649536%);fill-opacity:1;" d="M 92.546875 233.84375 L 109.175781 233.84375 L 109.175781 250.472656 L 92.546875 250.472656 Z M 92.546875 233.84375 "/>
<path style=" stroke:none;fill-rule:nonzero;fill:rgb(79.998779%,79.60968%,79.219055%);fill-opacity:1;" d="M 112.496094 233.84375 L 129.128906 233.84375 L 129.128906 250.472656 L 112.496094 250.472656 Z M 112.496094 233.84375 "/>
<path style=" stroke:none;fill-rule:nonzero;fill:rgb(100%,83.918762%,50.19989%);fill-opacity:1;" d="M 132.449219 233.84375 L 149.082031 233.84375 L 149.082031 250.472656 L 132.449219 250.472656 Z M 132.449219 233.84375 "/>
<path style=" stroke:none;fill-rule:nonzero;fill:rgb(96.469116%,51.368713%,37.649536%);fill-opacity:1;" d="M 72.59375 262.191406 L 89.222656 262.191406 L 89.222656 278.824219 L 72.59375 278.824219 Z M 72.59375 262.191406 "/>
<path style=" stroke:none;fill-rule:nonzero;fill:rgb(79.998779%,79.60968%,79.219055%);fill-opacity:1;" d="M 92.546875 262.191406 L 109.175781 262.191406 L 109.175781 278.824219 L 92.546875 278.824219 Z M 92.546875 262.191406 "/>
<path style=" stroke:none;fill-rule:nonzero;fill:rgb(90.19928%,89.7995%,89.7995%);fill-opacity:1;" d="M 69.308594 175.816406 L 152.570312 175.816406 L 152.570312 190.472656 L 69.308594 190.472656 Z M 69.308594 175.816406 "/>
<g clip-path="url(#clip5)" clip-rule="nonzero">
<path style=" stroke:none;fill-rule:nonzero;fill:rgb(76.858521%,92.939758%,94.509888%);fill-opacity:1;" d="M 123.65625 289.371094 L 187.214844 289.371094 L 187.214844 331.078125 L 123.65625 331.078125 Z M 123.65625 289.371094 "/>
</g>
<path style=" stroke:none;fill-rule:nonzero;fill:rgb(96.469116%,51.368713%,37.649536%);fill-opacity:1;" d="M 123.65625 282.289062 L 187.214844 282.289062 L 187.214844 289.371094 L 123.65625 289.371094 Z M 123.65625 282.289062 "/>
<path style=" stroke:none;fill-rule:nonzero;fill:rgb(96.469116%,51.368713%,37.649536%);fill-opacity:1;" d="M 145.316406 317.558594 L 165.550781 317.558594 L 165.550781 324.636719 L 145.316406 324.636719 Z M 145.316406 317.558594 "/>
<path style=" stroke:none;fill-rule:nonzero;fill:rgb(100%,100%,100%);fill-opacity:1;" d="M 149.964844 320.191406 L 160.90625 320.191406 L 160.90625 322.015625 L 149.964844 322.015625 Z M 149.964844 320.191406 "/>
<path style=" stroke:none;fill-rule:nonzero;fill:rgb(56.858826%,82.749939%,85.099792%);fill-opacity:1;" d="M 168.335938 295.804688 L 175.417969 295.804688 L 175.417969 302.886719 L 168.335938 302.886719 Z M 168.335938 295.804688 "/>
<path style=" stroke:none;fill-rule:nonzero;fill:rgb(100%,100%,100%);fill-opacity:1;" d="M 172.933594 298.691406 C 172.933594 299.378906 172.460938 299.9375 171.878906 299.9375 C 171.292969 299.9375 170.824219 299.378906 170.824219 298.691406 C 170.824219 298.007812 171.292969 297.445312 171.878906 297.445312 C 172.460938 297.449219 172.933594 298.007812 172.933594 298.691406 Z M 172.933594 298.691406 "/>
<path style=" stroke:none;fill-rule:nonzero;fill:rgb(100%,100%,100%);fill-opacity:1;" d="M 172.4375 300.226562 C 172.265625 300.308594 172.078125 300.351562 171.878906 300.351562 C 171.679688 300.351562 171.488281 300.304688 171.316406 300.226562 C 170.554688 300.363281 169.988281 300.757812 169.921875 301.242188 L 173.832031 301.242188 C 173.769531 300.757812 173.199219 300.363281 172.4375 300.226562 Z M 172.4375 300.226562 "/>
<path style=" stroke:none;fill-rule:nonzero;fill:rgb(100%,100%,100%);fill-opacity:1;" d="M 135.453125 295.804688 L 168.335938 295.804688 L 168.335938 302.886719 L 135.453125 302.886719 Z M 135.453125 295.804688 "/>
<path style=" stroke:none;fill-rule:nonzero;fill:rgb(79.998779%,79.60968%,79.219055%);fill-opacity:1;" d="M 141.871094 298.433594 L 161.917969 298.433594 L 161.917969 300.257812 L 141.871094 300.257812 Z M 141.871094 298.433594 "/>
<path style=" stroke:none;fill-rule:nonzero;fill:rgb(56.858826%,82.749939%,85.099792%);fill-opacity:1;" d="M 168.335938 305.417969 L 175.417969 305.417969 L 175.417969 312.5 L 168.335938 312.5 Z M 168.335938 305.417969 "/>
<path style=" stroke:none;fill-rule:nonzero;fill:rgb(100%,100%,100%);fill-opacity:1;" d="M 172.859375 308.628906 L 172.859375 308.042969 C 172.859375 307.503906 172.417969 307.0625 171.878906 307.0625 C 171.335938 307.0625 170.894531 307.5 170.894531 308.042969 L 170.894531 308.628906 L 170.53125 308.628906 L 170.53125 310.855469 L 173.222656 310.855469 L 173.222656 308.628906 Z M 172.546875 308.628906 L 171.207031 308.628906 L 171.207031 308.042969 C 171.207031 307.675781 171.511719 307.378906 171.878906 307.378906 C 172.242188 307.378906 172.546875 307.675781 172.546875 308.042969 Z M 172.546875 308.628906 "/>
<path style=" stroke:none;fill-rule:nonzero;fill:rgb(100%,100%,100%);fill-opacity:1;" d="M 135.453125 305.417969 L 168.335938 305.417969 L 168.335938 312.5 L 135.453125 312.5 Z M 135.453125 305.417969 "/>
<path style=" stroke:none;fill-rule:nonzero;fill:rgb(27.839661%,30.979919%,34.899902%);fill-opacity:1;" d="M 143.699219 308.957031 C 143.699219 309.210938 143.609375 309.425781 143.429688 309.601562 C 143.253906 309.78125 143.039062 309.871094 142.785156 309.871094 C 142.53125 309.871094 142.316406 309.78125 142.140625 309.601562 C 141.960938 309.425781 141.871094 309.210938 141.871094 308.957031 C 141.871094 308.707031 141.960938 308.488281 142.140625 308.3125 C 142.316406 308.132812 142.53125 308.042969 142.785156 308.042969 C 143.039062 308.042969 143.253906 308.132812 143.429688 308.3125 C 143.609375 308.488281 143.699219 308.707031 143.699219 308.957031 Z M 143.699219 308.957031 "/>
<path style=" stroke:none;fill-rule:nonzero;fill:rgb(27.839661%,30.979919%,34.899902%);fill-opacity:1;" d="M 146.425781 308.042969 C 145.925781 308.042969 145.515625 308.453125 145.515625 308.953125 C 145.515625 309.460938 145.925781 309.867188 146.425781 309.867188 C 146.933594 309.867188 147.339844 309.460938 147.339844 308.953125 C 147.339844 308.457031 146.933594 308.042969 146.425781 308.042969 Z M 146.425781 308.042969 "/>
<path style=" stroke:none;fill-rule:nonzero;fill:rgb(27.839661%,30.979919%,34.899902%);fill-opacity:1;" d="M 150.984375 308.957031 C 150.984375 309.210938 150.894531 309.425781 150.71875 309.601562 C 150.539062 309.78125 150.324219 309.871094 150.070312 309.871094 C 149.820312 309.871094 149.605469 309.78125 149.425781 309.601562 C 149.246094 309.425781 149.160156 309.210938 149.160156 308.957031 C 149.160156 308.707031 149.246094 308.488281 149.425781 308.3125 C 149.605469 308.132812 149.820312 308.042969 150.070312 308.042969 C 150.324219 308.042969 150.539062 308.132812 150.71875 308.3125 C 150.894531 308.488281 150.984375 308.707031 150.984375 308.957031 Z M 150.984375 308.957031 "/>
<path style=" stroke:none;fill-rule:nonzero;fill:rgb(27.839661%,30.979919%,34.899902%);fill-opacity:1;" d="M 154.628906 308.957031 C 154.628906 309.210938 154.542969 309.425781 154.363281 309.601562 C 154.183594 309.78125 153.96875 309.871094 153.71875 309.871094 C 153.464844 309.871094 153.25 309.78125 153.070312 309.601562 C 152.894531 309.425781 152.804688 309.210938 152.804688 308.957031 C 152.804688 308.707031 152.894531 308.488281 153.070312 308.3125 C 153.25 308.132812 153.464844 308.042969 153.71875 308.042969 C 153.96875 308.042969 154.183594 308.132812 154.363281 308.3125 C 154.542969 308.488281 154.628906 308.707031 154.628906 308.957031 Z M 154.628906 308.957031 "/>
<path style=" stroke:none;fill-rule:nonzero;fill:rgb(27.839661%,30.979919%,34.899902%);fill-opacity:1;" d="M 158.273438 308.957031 C 158.273438 309.210938 158.1875 309.425781 158.007812 309.601562 C 157.828125 309.78125 157.613281 309.871094 157.363281 309.871094 C 157.109375 309.871094 156.894531 309.78125 156.714844 309.601562 C 156.539062 309.425781 156.449219 309.210938 156.449219 308.957031 C 156.449219 308.707031 156.539062 308.488281 156.714844 308.3125 C 156.894531 308.132812 157.109375 308.042969 157.363281 308.042969 C 157.613281 308.042969 157.828125 308.132812 158.007812 308.3125 C 158.1875 308.488281 158.273438 308.707031 158.273438 308.957031 Z M 158.273438 308.957031 "/>
<path style=" stroke:none;fill-rule:nonzero;fill:rgb(27.839661%,30.979919%,34.899902%);fill-opacity:1;" d="M 161.917969 308.957031 C 161.917969 309.210938 161.828125 309.425781 161.648438 309.601562 C 161.46875 309.78125 161.253906 309.871094 161.003906 309.871094 C 160.75 309.871094 160.535156 309.78125 160.355469 309.601562 C 160.179688 309.425781 160.089844 309.210938 160.089844 308.957031 C 160.089844 308.707031 160.179688 308.488281 160.355469 308.3125 C 160.535156 308.132812 160.75 308.042969 161.003906 308.042969 C 161.253906 308.042969 161.46875 308.132812 161.648438 308.3125 C 161.828125 308.488281 161.917969 308.707031 161.917969 308.957031 Z M 161.917969 308.957031 "/>
<path style=" stroke:none;fill-rule:nonzero;fill:rgb(27.839661%,30.979919%,34.899902%);fill-opacity:1;" d="M 76.074219 170.4375 C 75.84375 170.4375 75.617188 170.332031 75.464844 170.140625 C 75.199219 169.800781 75.257812 169.316406 75.597656 169.050781 L 108.710938 143.148438 C 109.351562 142.648438 110.121094 142.351562 110.933594 142.292969 C 111.742188 142.234375 112.546875 142.410156 113.253906 142.816406 L 144.351562 160.460938 C 144.726562 160.671875 144.855469 161.144531 144.644531 161.515625 C 144.433594 161.890625 143.960938 162.019531 143.585938 161.808594 L 112.488281 144.160156 C 112.050781 143.914062 111.554688 143.800781 111.042969 143.835938 C 110.539062 143.875 110.0625 144.058594 109.664062 144.371094 L 76.550781 170.273438 C 76.410156 170.382812 76.242188 170.4375 76.074219 170.4375 Z M 76.074219 170.4375 "/>
<path style=" stroke:none;fill-rule:nonzero;fill:rgb(96.469116%,51.368713%,37.649536%);fill-opacity:1;" d="M 68.722656 169.628906 L 136.078125 161.128906 L 137.914062 175.667969 L 70.558594 184.167969 Z M 68.722656 169.628906 "/>
<path style=" stroke:none;fill-rule:nonzero;fill:rgb(100%,100%,100%);fill-opacity:1;" d="M 134.367188 164.277344 L 135.472656 173.0625 L 72.285156 181.035156 L 71.175781 172.253906 Z M 134.367188 164.277344 "/>
<path style=" stroke:none;fill-rule:nonzero;fill:rgb(79.998779%,79.60968%,79.219055%);fill-opacity:1;" d="M 74.617188 175.347656 L 93.179688 173.007812 L 93.40625 174.828125 L 74.84375 177.167969 Z M 74.617188 175.347656 "/>
<path style=" stroke:none;fill-rule:nonzero;fill:rgb(96.469116%,51.368713%,37.649536%);fill-opacity:1;" d="M 136.082031 161.128906 L 151.332031 159.203125 L 153.164062 173.742188 L 137.917969 175.667969 Z M 136.082031 161.128906 "/>
<path style=" stroke:none;fill-rule:nonzero;fill:rgb(100%,100%,100%);fill-opacity:1;" d="M 148.609375 169.738281 L 146.828125 168.355469 C 146.78125 168.320312 146.726562 168.304688 146.664062 168.3125 C 146.605469 168.320312 146.550781 168.351562 146.519531 168.394531 L 146.457031 168.476562 L 145.949219 168.082031 C 146.28125 167.546875 146.4375 166.902344 146.351562 166.222656 C 146.152344 164.65625 144.71875 163.542969 143.148438 163.742188 C 141.582031 163.9375 140.46875 165.371094 140.664062 166.941406 C 140.863281 168.511719 142.296875 169.625 143.867188 169.425781 C 144.539062 169.34375 145.128906 169.03125 145.5625 168.578125 L 146.070312 168.96875 L 146.007812 169.046875 C 145.976562 169.089844 145.957031 169.148438 145.964844 169.210938 C 145.972656 169.269531 146.003906 169.324219 146.046875 169.359375 L 147.828125 170.738281 C 147.957031 170.835938 148.121094 170.886719 148.296875 170.863281 C 148.46875 170.84375 148.617188 170.753906 148.71875 170.625 C 148.816406 170.496094 148.867188 170.332031 148.847656 170.15625 C 148.828125 169.988281 148.738281 169.835938 148.609375 169.738281 Z M 143.808594 168.941406 C 142.507812 169.101562 141.316406 168.179688 141.15625 166.878906 C 140.992188 165.578125 141.914062 164.394531 143.210938 164.226562 C 144.515625 164.066406 145.703125 164.984375 145.867188 166.285156 C 146.03125 167.585938 145.109375 168.777344 143.808594 168.941406 Z M 143.808594 168.941406 "/>
<path style=" stroke:none;fill-rule:nonzero;fill:rgb(100%,72.549438%,34.899902%);fill-opacity:1;" d="M 110.941406 146.613281 C 105.601562 146.613281 101.257812 142.269531 101.257812 136.933594 C 101.257812 136.167969 101.875 135.550781 102.640625 135.550781 C 103.402344 135.550781 104.023438 136.167969 104.023438 136.933594 C 104.023438 140.746094 107.125 143.847656 110.941406 143.847656 C 114.753906 143.847656 117.855469 140.746094 117.855469 136.933594 C 117.855469 133.117188 114.753906 130.015625 110.941406 130.015625 C 110.175781 130.015625 109.554688 129.394531 109.554688 128.632812 L 109.554688 124.707031 C 109.554688 123.945312 110.175781 123.324219 110.941406 123.324219 C 111.703125 123.324219 112.324219 123.945312 112.324219 124.707031 L 112.324219 127.347656 C 117.011719 128.019531 120.621094 132.0625 120.621094 136.929688 C 120.621094 142.269531 116.28125 146.613281 110.941406 146.613281 Z M 110.941406 146.613281 "/>
<path style=" stroke:none;fill-rule:nonzero;fill:rgb(13.729858%,18.03894%,21.958923%);fill-opacity:1;" d="M 110.941406 126.089844 C 108.863281 126.089844 107.179688 124.402344 107.179688 122.328125 C 107.179688 120.253906 108.867188 118.566406 110.941406 118.566406 C 113.015625 118.566406 114.703125 120.253906 114.703125 122.328125 C 114.703125 124.402344 113.015625 126.089844 110.941406 126.089844 Z M 110.941406 121.332031 C 110.390625 121.332031 109.945312 121.777344 109.945312 122.328125 C 109.945312 122.878906 110.390625 123.324219 110.941406 123.324219 C 111.488281 123.324219 111.933594 122.878906 111.933594 122.328125 C 111.9375 121.777344 111.488281 121.332031 110.941406 121.332031 Z M 110.941406 121.332031 "/>
<path style=" stroke:none;fill-rule:nonzero;fill:rgb(39.608765%,41.569519%,45.098877%);fill-opacity:1;" d="M 110.941406 123.101562 C 110.511719 123.101562 110.164062 122.757812 110.164062 122.328125 L 110.164062 80.082031 C 110.164062 79.652344 110.511719 79.304688 110.941406 79.304688 C 111.367188 79.304688 111.714844 79.652344 111.714844 80.082031 L 111.714844 122.328125 C 111.714844 122.757812 111.367188 123.101562 110.941406 123.101562 Z M 110.941406 123.101562 "/>
<path style=" stroke:none;fill-rule:nonzero;fill:rgb(27.839661%,30.979919%,34.899902%);fill-opacity:1;" d="M 110.9375 143.847656 C 110.472656 143.902344 110.03125 144.078125 109.664062 144.367188 L 107.574219 146.003906 C 107.019531 145.804688 106.5 145.550781 106.011719 145.261719 L 108.425781 143.371094 C 109.199219 143.679688 110.050781 143.847656 110.9375 143.847656 Z M 110.9375 143.847656 "/>
<path style=" stroke:none;fill-rule:nonzero;fill:rgb(96.469116%,51.368713%,37.649536%);fill-opacity:1;" d="M 254.878906 251.285156 L 330.894531 251.285156 L 330.894531 298.792969 L 254.878906 298.792969 Z M 254.878906 251.285156 "/>
<path style=" stroke:none;fill-rule:nonzero;fill:rgb(100%,100%,100%);fill-opacity:1;" d="M 292.886719 286.105469 C 286.78125 286.105469 281.816406 281.140625 281.816406 275.035156 C 281.816406 268.929688 286.78125 263.964844 292.886719 263.964844 C 298.988281 263.964844 303.953125 268.929688 303.953125 275.035156 C 303.953125 281.140625 298.988281 286.105469 292.886719 286.105469 Z M 292.886719 264.679688 C 287.175781 264.679688 282.53125 269.324219 282.53125 275.035156 C 282.53125 280.746094 287.175781 285.390625 292.886719 285.390625 C 298.59375 285.390625 303.238281 280.746094 303.238281 275.035156 C 303.242188 269.324219 298.59375 264.679688 292.886719 264.679688 Z M 292.886719 264.679688 "/>
<path style=" stroke:none;fill-rule:nonzero;fill:rgb(100%,100%,100%);fill-opacity:1;" d="M 290.828125 271.472656 L 297 275.035156 L 290.828125 278.601562 Z M 290.828125 271.472656 "/>
<path style=" stroke:none;fill-rule:nonzero;fill:rgb(20.779419%,24.708557%,28.62854%);fill-opacity:1;" d="M 254.878906 298.792969 L 330.890625 298.792969 L 330.890625 313.042969 L 254.878906 313.042969 Z M 254.878906 298.792969 "/>
<path style=" stroke:none;fill-rule:nonzero;fill:rgb(79.998779%,79.60968%,79.219055%);fill-opacity:1;" d="M 311.253906 305.917969 C 311.253906 305.4375 311.464844 304.910156 312 304.910156 C 312.535156 304.910156 312.75 305.4375 312.75 305.917969 C 312.75 306.394531 312.535156 306.929688 312 306.929688 C 311.464844 306.929688 311.253906 306.394531 311.253906 305.917969 Z M 312.5 305.917969 C 312.5 305.523438 312.371094 305.125 312 305.125 C 311.625 305.125 311.503906 305.527344 311.503906 305.917969 C 311.503906 306.308594 311.625 306.710938 312 306.710938 C 312.371094 306.714844 312.5 306.308594 312.5 305.917969 Z M 312.5 305.917969 "/>
<path style=" stroke:none;fill-rule:nonzero;fill:rgb(79.998779%,79.60968%,79.219055%);fill-opacity:1;" d="M 312.984375 306.605469 L 313.125 306.453125 C 313.242188 306.605469 313.441406 306.714844 313.671875 306.714844 C 313.960938 306.714844 314.128906 306.570312 314.128906 306.34375 C 314.128906 306.101562 313.929688 306 313.644531 306 C 313.5625 306 313.472656 306 313.441406 306 L 313.441406 305.777344 C 313.472656 305.78125 313.566406 305.78125 313.644531 305.78125 C 313.890625 305.78125 314.097656 305.683594 314.097656 305.460938 C 314.097656 305.242188 313.902344 305.125 313.660156 305.125 C 313.449219 305.125 313.285156 305.203125 313.144531 305.363281 L 313.011719 305.207031 C 313.152344 305.035156 313.375 304.90625 313.679688 304.90625 C 314.054688 304.90625 314.339844 305.097656 314.339844 305.425781 C 314.339844 305.710938 314.105469 305.851562 313.921875 305.878906 C 314.097656 305.898438 314.371094 306.046875 314.371094 306.363281 C 314.371094 306.691406 314.109375 306.929688 313.675781 306.929688 C 313.347656 306.929688 313.105469 306.78125 312.984375 306.605469 Z M 312.984375 306.605469 "/>
<path style=" stroke:none;fill-rule:nonzero;fill:rgb(79.998779%,79.60968%,79.219055%);fill-opacity:1;" d="M 314.710938 305.617188 C 314.710938 305.53125 314.78125 305.457031 314.871094 305.457031 C 314.957031 305.457031 315.03125 305.53125 315.03125 305.617188 C 315.03125 305.703125 314.960938 305.78125 314.871094 305.78125 C 314.78125 305.78125 314.710938 305.703125 314.710938 305.617188 Z M 314.710938 306.761719 C 314.710938 306.675781 314.78125 306.601562 314.871094 306.601562 C 314.957031 306.601562 315.03125 306.675781 315.03125 306.761719 C 315.03125 306.851562 314.960938 306.921875 314.871094 306.921875 C 314.78125 306.925781 314.710938 306.847656 314.710938 306.761719 Z M 314.710938 306.761719 "/>
<path style=" stroke:none;fill-rule:nonzero;fill:rgb(79.998779%,79.60968%,79.219055%);fill-opacity:1;" d="M 316.21875 306.894531 L 316.21875 306.398438 L 315.285156 306.398438 L 315.285156 306.195312 L 316.125 304.9375 L 316.460938 304.9375 L 316.460938 306.1875 L 316.738281 306.1875 L 316.738281 306.398438 L 316.460938 306.398438 L 316.460938 306.894531 Z M 316.21875 305.164062 L 315.53125 306.1875 L 316.21875 306.1875 Z M 316.21875 305.164062 "/>
<path style=" stroke:none;fill-rule:nonzero;fill:rgb(79.998779%,79.60968%,79.219055%);fill-opacity:1;" d="M 316.984375 306.398438 C 316.984375 306.136719 317.207031 305.957031 317.453125 305.882812 C 317.226562 305.820312 317.019531 305.671875 317.019531 305.414062 C 317.019531 305.066406 317.359375 304.90625 317.683594 304.90625 C 318.007812 304.90625 318.359375 305.066406 318.359375 305.414062 C 318.359375 305.671875 318.148438 305.820312 317.921875 305.882812 C 318.164062 305.957031 318.386719 306.136719 318.386719 306.398438 C 318.386719 306.730469 318.070312 306.925781 317.683594 306.925781 C 317.300781 306.929688 316.984375 306.730469 316.984375 306.398438 Z M 318.140625 306.371094 C 318.140625 306.113281 317.808594 306.007812 317.683594 305.996094 C 317.566406 306.007812 317.230469 306.113281 317.230469 306.371094 C 317.230469 306.582031 317.441406 306.714844 317.683594 306.714844 C 317.925781 306.714844 318.140625 306.582031 318.140625 306.371094 Z M 318.113281 305.445312 C 318.113281 305.246094 317.921875 305.125 317.683594 305.125 C 317.445312 305.125 317.261719 305.246094 317.261719 305.445312 C 317.261719 305.6875 317.570312 305.761719 317.683594 305.785156 C 317.808594 305.761719 318.113281 305.6875 318.113281 305.445312 Z M 318.113281 305.445312 "/>
<path style=" stroke:none;fill-rule:nonzero;fill:rgb(79.998779%,79.60968%,79.219055%);fill-opacity:1;" d="M 267.382812 305.917969 C 267.382812 305.4375 267.59375 304.910156 268.132812 304.910156 C 268.664062 304.910156 268.878906 305.4375 268.878906 305.917969 C 268.878906 306.394531 268.667969 306.929688 268.132812 306.929688 C 267.59375 306.929688 267.382812 306.394531 267.382812 305.917969 Z M 268.628906 305.917969 C 268.628906 305.523438 268.503906 305.125 268.132812 305.125 C 267.757812 305.125 267.632812 305.527344 267.632812 305.917969 C 267.632812 306.308594 267.757812 306.710938 268.132812 306.710938 C 268.503906 306.714844 268.628906 306.308594 268.628906 305.917969 Z M 268.628906 305.917969 "/>
<path style=" stroke:none;fill-rule:nonzero;fill:rgb(79.998779%,79.60968%,79.219055%);fill-opacity:1;" d="M 269.554688 306.894531 L 269.554688 305.257812 L 269.238281 305.589844 L 269.089844 305.441406 L 269.582031 304.9375 L 269.796875 304.9375 L 269.796875 306.894531 Z M 269.554688 306.894531 "/>
<path style=" stroke:none;fill-rule:nonzero;fill:rgb(79.998779%,79.60968%,79.219055%);fill-opacity:1;" d="M 270.203125 305.617188 C 270.203125 305.53125 270.273438 305.457031 270.363281 305.457031 C 270.449219 305.457031 270.523438 305.53125 270.523438 305.617188 C 270.523438 305.703125 270.445312 305.78125 270.363281 305.78125 C 270.273438 305.78125 270.203125 305.703125 270.203125 305.617188 Z M 270.203125 306.761719 C 270.203125 306.675781 270.273438 306.601562 270.363281 306.601562 C 270.449219 306.601562 270.523438 306.675781 270.523438 306.761719 C 270.523438 306.851562 270.445312 306.921875 270.363281 306.921875 C 270.273438 306.925781 270.203125 306.847656 270.203125 306.761719 Z M 270.203125 306.761719 "/>
<path style=" stroke:none;fill-rule:nonzero;fill:rgb(79.998779%,79.60968%,79.219055%);fill-opacity:1;" d="M 271.207031 306.894531 L 271.207031 305.257812 L 270.894531 305.589844 L 270.75 305.441406 L 271.238281 304.9375 L 271.449219 304.9375 L 271.449219 306.894531 Z M 271.207031 306.894531 "/>
<path style=" stroke:none;fill-rule:nonzero;fill:rgb(79.998779%,79.60968%,79.219055%);fill-opacity:1;" d="M 272.035156 306.894531 L 272.824219 305.15625 L 271.769531 305.15625 L 271.769531 304.9375 L 273.109375 304.9375 L 273.109375 305.101562 L 272.308594 306.890625 Z M 272.035156 306.894531 "/>
<path style=" stroke:none;fill-rule:nonzero;fill:rgb(79.998779%,79.60968%,79.219055%);fill-opacity:1;" d="M 308.980469 305.296875 L 288.449219 305.296875 L 288.449219 306.539062 L 308.980469 306.539062 C 309.316406 306.539062 309.597656 306.261719 309.597656 305.917969 C 309.597656 305.574219 309.316406 305.296875 308.980469 305.296875 Z M 308.980469 305.296875 "/>
<path style=" stroke:none;fill-rule:nonzero;fill:rgb(56.858826%,82.749939%,85.099792%);fill-opacity:1;" d="M 289.066406 305.917969 C 289.066406 306.261719 288.785156 306.539062 288.449219 306.539062 L 276.792969 306.539062 C 276.453125 306.539062 276.171875 306.261719 276.171875 305.917969 C 276.171875 305.574219 276.453125 305.296875 276.792969 305.296875 L 288.449219 305.296875 C 288.785156 305.296875 289.066406 305.574219 289.066406 305.917969 Z M 289.066406 305.917969 "/>
<path style=" stroke:none;fill-rule:nonzero;fill:rgb(100%,100%,100%);fill-opacity:1;" d="M 290.1875 305.917969 C 290.1875 306.148438 290.140625 306.371094 290.054688 306.582031 C 289.964844 306.796875 289.839844 306.984375 289.675781 307.148438 C 289.511719 307.3125 289.324219 307.4375 289.113281 307.523438 C 288.898438 307.613281 288.675781 307.65625 288.445312 307.65625 C 288.214844 307.65625 287.992188 307.613281 287.78125 307.523438 C 287.566406 307.4375 287.378906 307.3125 287.214844 307.148438 C 287.050781 306.984375 286.925781 306.796875 286.835938 306.582031 C 286.75 306.371094 286.703125 306.148438 286.703125 305.917969 C 286.703125 305.6875 286.75 305.464844 286.835938 305.25 C 286.925781 305.039062 287.050781 304.847656 287.214844 304.6875 C 287.378906 304.523438 287.566406 304.398438 287.78125 304.308594 C 287.992188 304.21875 288.214844 304.175781 288.445312 304.175781 C 288.675781 304.175781 288.898438 304.21875 289.113281 304.308594 C 289.324219 304.398438 289.511719 304.523438 289.675781 304.6875 C 289.839844 304.847656 289.964844 305.039062 290.054688 305.25 C 290.140625 305.464844 290.1875 305.6875 290.1875 305.917969 Z M 290.1875 305.917969 "/>
<path style=" stroke:none;fill-rule:nonzero;fill:rgb(79.998779%,79.60968%,79.219055%);fill-opacity:1;" d="M 259.074219 303.984375 L 262.421875 305.917969 L 259.074219 307.851562 Z M 259.074219 303.984375 "/>
<path style=" stroke:none;fill-rule:nonzero;fill:rgb(79.998779%,79.60968%,79.219055%);fill-opacity:1;" d="M 323.335938 304.777344 L 324.925781 304.777344 L 324.925781 307.058594 L 323.335938 307.058594 Z M 323.335938 304.777344 "/>
<path style=" stroke:none;fill-rule:nonzero;fill:rgb(79.998779%,79.60968%,79.219055%);fill-opacity:1;" d="M 326.695312 308.410156 L 324.925781 307.058594 L 324.925781 304.777344 L 326.695312 303.429688 Z M 326.695312 308.410156 "/>
<path style=" stroke:none;fill-rule:nonzero;fill:rgb(100%,83.918762%,50.19989%);fill-opacity:1;" d="M 192.269531 154.386719 L 261.527344 154.386719 L 261.527344 169.226562 L 192.269531 169.226562 Z M 192.269531 154.386719 "/>
<path style=" stroke:none;fill-rule:nonzero;fill:rgb(100%,72.549438%,34.899902%);fill-opacity:1;" d="M 177.429688 154.386719 L 192.269531 154.386719 L 192.269531 169.226562 L 177.429688 169.226562 Z M 177.429688 154.386719 "/>
<path style=" stroke:none;fill-rule:nonzero;fill:rgb(100%,72.549438%,34.899902%);fill-opacity:1;" d="M 261.527344 154.386719 L 276.367188 154.386719 L 276.367188 169.226562 L 261.527344 169.226562 Z M 261.527344 154.386719 "/>
<path style=" stroke:none;fill-rule:nonzero;fill:rgb(100%,100%,100%);fill-opacity:1;" d="M 198.453125 161.066406 L 255.34375 161.066406 L 255.34375 162.550781 L 198.453125 162.550781 Z M 198.453125 161.066406 "/>
<path style=" stroke:none;fill-rule:nonzero;fill:rgb(100%,100%,100%);fill-opacity:1;" d="M 182.277344 158.835938 L 187.421875 161.808594 L 182.277344 164.777344 Z M 182.277344 158.835938 "/>
<path style=" stroke:none;fill-rule:nonzero;fill:rgb(100%,100%,100%);fill-opacity:1;" d="M 266.441406 160.109375 L 268.808594 160.109375 L 268.808594 163.503906 L 266.441406 163.503906 Z M 266.441406 160.109375 "/>
<path style=" stroke:none;fill-rule:nonzero;fill:rgb(100%,100%,100%);fill-opacity:1;" d="M 271.453125 165.515625 L 268.808594 163.503906 L 268.808594 160.109375 L 271.453125 158.097656 Z M 271.453125 165.515625 "/>
<path style=" stroke:none;fill-rule:nonzero;fill:rgb(100%,72.549438%,34.899902%);fill-opacity:1;" d="M 215.890625 161.808594 C 215.890625 162.203125 215.816406 162.578125 215.664062 162.945312 C 215.515625 163.308594 215.300781 163.628906 215.023438 163.90625 C 214.742188 164.183594 214.421875 164.398438 214.058594 164.550781 C 213.695312 164.699219 213.316406 164.777344 212.921875 164.777344 C 212.53125 164.777344 212.152344 164.699219 211.789062 164.550781 C 211.425781 164.398438 211.101562 164.183594 210.824219 163.90625 C 210.546875 163.628906 210.332031 163.308594 210.183594 162.945312 C 210.03125 162.578125 209.957031 162.203125 209.957031 161.808594 C 209.957031 161.414062 210.03125 161.035156 210.183594 160.671875 C 210.332031 160.308594 210.546875 159.988281 210.824219 159.710938 C 211.101562 159.429688 211.425781 159.214844 211.789062 159.066406 C 212.152344 158.914062 212.53125 158.839844 212.921875 158.839844 C 213.316406 158.839844 213.695312 158.914062 214.058594 159.066406 C 214.421875 159.214844 214.742188 159.429688 215.023438 159.710938 C 215.300781 159.988281 215.515625 160.308594 215.664062 160.671875 C 215.816406 161.035156 215.890625 161.414062 215.890625 161.808594 Z M 215.890625 161.808594 "/>
</g>
</svg>
